<svg width="128" height="128" viewBox="0 0 128 128" fill="none" xmlns="http://www.w3.org/2000/svg">
<g id="Images">
<path id="Vector" d="M118.426 127.378C124.495 114.62 128 99.5705 128 83.4532C128 37.3631 99.3465 0 63.9999 0C28.6537 0 0 37.3631 0 83.4532C0 99.5705 3.5048 114.62 9.57369 127.378H118.426Z" fill="#A9E8B7"/>
<path id="Vector_2" opacity="0.25" d="M109.813 26.9677C107.042 26.5032 104.227 26.8926 101.442 26.6009C98.6581 26.3094 95.9181 25.3303 93.4086 23.7308C92.7146 23.288 92.0277 22.7937 91.2753 22.5625C90.2648 22.2519 89.2095 22.4372 88.172 22.4923C86.1496 22.5999 84.1123 22.2004 82.2037 21.3219C81.5587 21.0251 80.8397 20.5345 80.7331 19.654C80.598 18.53 81.5373 17.7263 82.358 17.3407C83.1786 16.9551 84.1642 16.4795 84.3413 15.3654C84.4209 14.8648 84.3142 14.2992 84.5219 13.8656C84.6641 13.5693 84.9215 13.4085 85.1676 13.2702C87.8933 11.7387 90.8565 11.1404 93.8054 10.9799C94.4511 10.9447 95.1174 10.9752 95.7901 11.0132C92.2595 8.37295 88.5197 6.15474 84.6072 4.42076C82.7363 4.55037 80.8611 4.5815 78.9823 4.50736C75.0506 4.35211 70.8248 3.85112 67.4679 6.52382C67.0321 6.87095 66.5928 7.31382 66.4493 7.95303C66.095 9.53049 67.6403 10.6076 68.8624 11.01C69.0551 12.1035 67.948 12.7244 67.1009 12.9201C64.3693 13.5507 61.6791 14.4858 59.0693 15.7118C57.2188 16.5811 55.1643 17.9697 54.7999 20.4901C54.5437 22.2627 55.2744 24.096 56.3519 25.2271C57.4295 26.3582 58.8014 26.8957 60.1594 27.239C64.783 28.4076 69.5639 27.6056 74.252 28.1887C74.8778 28.2665 75.5313 28.3837 76.0405 28.8636C76.8454 29.6228 77.0616 31.0464 77.6241 32.1138C78.7427 34.2331 80.9834 34.6204 82.9532 34.7605C87.3393 35.0725 91.7368 35.1192 96.1258 34.9004C97.2323 34.8453 98.3587 34.7763 99.4275 35.1545C100.55 35.5522 101.535 36.418 102.576 37.0976C105.05 38.7136 107.839 39.275 110.573 39.82C113.38 40.3791 116.211 40.9423 119.043 40.8523C116.828 35.9952 114.243 31.4585 111.344 27.3028C110.836 27.1702 110.326 27.0537 109.813 26.9677Z" fill="white"/>
<path id="Vector_3" opacity="0.25" d="M98.6446 54.338C98.2144 53.5666 97.5566 53.0733 96.9045 52.6405C87.3259 46.2803 75.904 48.4889 65.1886 47.3775C62.445 47.0928 59.6619 46.5594 57.1906 44.98C54.3049 43.1358 51.7894 39.8625 48.582 39.6022C46.3278 39.4191 43.3408 40.3476 42.3723 37.687C42.1338 37.0319 42.1469 36.2808 42.0746 35.5619C41.0914 25.7799 26.8675 28.6236 25.4802 28.708C22.0819 28.9148 18.6836 29.1215 15.2853 29.3283C11.9236 34.4678 9.0326 40.1463 6.69741 46.2497C9.89269 46.2108 13.0881 46.1838 16.2832 46.1441C17.8593 46.1246 19.4645 46.1103 20.9719 46.7113C23.0266 47.5306 24.7465 49.4334 26.7954 50.2771C28.3693 50.9251 30.0518 50.9141 31.7024 50.8972C37.6735 50.8359 43.6447 50.7746 49.6158 50.7134C50.7434 50.7018 51.9031 50.6974 52.9532 51.2331C53.9843 51.7588 54.8226 52.7604 55.7541 53.5408C58.8282 56.1158 62.7034 56.1582 66.2916 57.0574C67.4305 57.3428 68.6846 57.847 69.2299 59.1816C70.1383 61.4046 68.4191 63.9486 66.6849 65.0583C59.7242 69.512 51.1534 65.1915 43.746 68.1785C41.765 68.9773 39.9278 70.2795 37.9972 71.266C31.6659 74.5008 24.62 74.2171 17.8573 73.2891C12.1333 72.504 6.38552 71.2909 0.653527 71.4914C0.223536 75.3982 0 79.3911 0 83.453C0 84.7266 0.0243704 85.9924 0.0676641 87.2518C3.26565 87.3456 6.46364 87.4395 9.66158 87.5334C15.702 87.7111 21.7552 87.8875 27.7773 87.2503C31.1513 86.8934 34.5524 86.2662 37.6816 84.583C39.5684 83.5675 41.3369 82.1787 43.2774 81.3531C46.6898 79.9024 50.3738 80.2893 53.9585 80.0546C59.4947 79.6926 64.8991 77.8203 70.255 75.9579C78.5067 73.0886 98.8381 68.7932 99.36 57.9195C99.4197 56.6709 99.2092 55.3497 98.6446 54.338Z" fill="white"/>
<path id="Vector_4" d="M116.889 47.9736C116.889 47.9736 116.705 50.3388 115.274 50.5024C116.705 50.666 116.889 53.0311 116.889 53.0311C116.889 53.0311 117.073 50.666 118.504 50.5024C117.073 50.3388 116.889 47.9736 116.889 47.9736Z" fill="white"/>
<path id="Vector_5" d="M46.2355 13.9883C46.2355 13.9883 46.1109 15.5914 45.1406 15.7023C46.1109 15.8133 46.2355 17.4164 46.2355 17.4164C46.2355 17.4164 46.3602 15.8133 47.3304 15.7023C46.3601 15.5914 46.2355 13.9883 46.2355 13.9883Z" fill="white"/>
<path id="Vector_6" d="M119.044 85.686C119.044 85.686 118.915 87.3436 117.912 87.4588C118.915 87.5733 119.044 89.2316 119.044 89.2316C119.044 89.2316 119.173 87.5733 120.177 87.4588C119.173 87.3436 119.044 85.686 119.044 85.686Z" fill="white"/>
<path id="Vector_7" d="M106.064 70.4844C106.828 70.4844 106.829 68.937 106.064 68.937C105.301 68.9371 105.3 70.4844 106.064 70.4844Z" fill="white"/>
<path id="Vector_8" d="M91.9561 79.7253C92.338 79.7253 92.338 78.9517 91.9561 78.9517C91.5742 78.9517 91.5735 79.7253 91.9561 79.7253Z" fill="white"/>
<path id="Vector_9" d="M113.712 63.22C114.094 63.22 114.095 62.4463 113.712 62.4463C113.331 62.4463 113.33 63.22 113.712 63.22Z" fill="white"/>
<path id="Vector_10" d="M102.108 46.0258C102.49 46.0258 102.491 45.252 102.108 45.252C101.727 45.252 101.727 46.0258 102.108 46.0258Z" fill="white"/>
<path id="Vector_11" d="M39.8711 25.3933C40.2528 25.3933 40.2535 24.6196 39.8711 24.6196C39.4892 24.6196 39.4887 25.3933 39.8711 25.3933Z" fill="white"/>
<path id="Vector_12" d="M51.0791 35.2369C51.8427 35.2369 51.8439 33.6895 51.0791 33.6895C50.3155 33.6895 50.3141 35.2369 51.0791 35.2369Z" fill="white"/>
<path id="Vector_13" d="M51.6069 23.3304C51.9887 23.3304 51.9893 22.5566 51.6069 22.5566C51.2251 22.5566 51.2244 23.3304 51.6069 23.3304Z" fill="white"/>
<path id="Vector_14" d="M40.2666 15.593C40.6484 15.593 40.6489 14.8193 40.2666 14.8193C39.8848 14.8193 39.8841 15.593 40.2666 15.593Z" fill="white"/>
<path id="Vector_15" d="M35.9153 15.3995C36.1062 15.3995 36.1065 15.0127 35.9153 15.0127C35.7244 15.0127 35.724 15.3995 35.9153 15.3995Z" fill="white"/>
<path id="Vector_16" d="M17.5866 48.4117C17.7775 48.4117 17.7779 48.0249 17.5866 48.0249C17.3958 48.0249 17.3954 48.4117 17.5866 48.4117Z" fill="white"/>
<path id="Vector_17" d="M28.3991 47.0791C28.9718 47.0791 28.9728 45.9185 28.3991 45.9185C27.8264 45.9185 27.8255 47.0791 28.3991 47.0791Z" fill="white"/>
<path id="Vector_18" d="M6.90626 68.0339C7.28808 68.0339 7.28872 67.2603 6.90626 67.2603C6.52442 67.2603 6.52376 68.0339 6.90626 68.0339Z" fill="white"/>
<path id="Vector_19" d="M99.9993 24.3297C100.858 24.3297 100.86 22.5889 99.9993 22.5889C99.1403 22.5889 99.1388 24.3297 99.9993 24.3297Z" fill="white"/>
<path id="Vector_20" d="M85.0985 11.6601C85.6717 11.6601 85.6724 10.4995 85.0985 10.4995C84.5261 10.4995 84.5254 11.6601 85.0985 11.6601Z" fill="white"/>
<path id="Vector_21" d="M71.7808 16.1087C72.1627 16.1087 72.1634 15.335 71.7808 15.335C71.3989 15.335 71.3982 16.1087 71.7808 16.1087Z" fill="white"/>
<path id="Vector_22" d="M94.8565 18.9348C95.1431 18.9348 95.1431 18.3545 94.8565 18.3545C94.57 18.3545 94.57 18.9348 94.8565 18.9348Z" fill="white"/>
<path id="Vector_23" d="M106.46 28.0475C106.746 28.0475 106.747 27.4673 106.46 27.4673C106.174 27.4673 106.173 28.0475 106.46 28.0475Z" fill="white"/>
<path id="Vector_24" d="M95.3841 45.4138C95.6707 45.4138 95.6707 44.8335 95.3841 44.8335C95.0976 44.8334 95.0969 45.4138 95.3841 45.4138Z" fill="white"/>
<path id="Vector_25" d="M48.3101 46.445C48.5965 46.445 48.597 45.8647 48.3101 45.8647C48.0238 45.8648 48.0233 46.445 48.3101 46.445Z" fill="white"/>
<path id="Vector_26" d="M123.273 128H4.10401C3.61268 128 3.21436 127.557 3.21436 127.01C3.21436 126.464 3.61268 126.021 4.10401 126.021H123.273C123.764 126.021 124.162 126.464 124.162 127.01C124.162 127.557 123.764 128 123.273 128Z" fill="#F0806A"/>
<path id="Vector_27" d="M83.2685 59.7158C82.6811 58.2472 81.9408 53.6877 81.6933 52.1386C81.7509 52.0181 82.0546 51.3037 81.8889 50.0004C81.7716 49.0798 82.2039 47.4806 81.682 47.6477C81.1593 47.8148 81.2866 49.4225 80.9403 49.1846C80.594 48.9467 80.1232 45.6065 79.6496 45.7579C79.1767 45.9095 79.8096 49.0326 79.4996 48.8198C79.1902 48.6069 78.8958 45.6921 78.226 45.9063C77.5568 46.1204 78.8589 49.3001 78.4997 49.415C78.1406 49.5299 77.3669 47.5023 76.8279 47.6746C76.2889 47.847 78.0034 50.3887 77.8213 50.2635C77.6393 50.1383 76.3621 49.1693 76.1915 49.4406C75.9988 49.7475 79.0139 52.598 79.1028 53.4319C79.0821 55.5755 79.0039 59.4623 79.8501 61.7978C80.8855 64.6554 83.4427 70.9753 83.4427 70.9753L87.4377 69.4001C87.4377 69.4001 83.9653 61.4575 83.2685 59.7158Z" fill="#F7A491"/>
<path id="Vector_28" d="M80.5496 49.8594C80.3583 49.9845 80.2054 50.1597 80.076 50.3542C80.0639 50.3919 79.6045 50.9902 79.8193 51.8482C79.8577 51.3026 79.9025 50.6976 80.5496 49.8594Z" fill="#F48C7F"/>
<path id="Vector_29" d="M95.1773 55.2301C95.1773 55.2301 96.879 54.3615 98.0502 55.5824C99.2214 56.8034 98.863 57.7315 98.863 57.7315C98.863 57.7315 100.958 58.1474 100.792 60.3659C100.626 62.5842 100.26 62.773 100.26 62.773C100.26 62.773 101.043 63.7281 100.802 64.872C100.559 66.0158 99.5948 66.3278 99.5948 66.3278C99.5948 66.3278 98.9597 68.2179 97.5304 68.4779C96.1004 68.738 95.6211 68.4385 95.6211 68.4385C95.6211 68.4385 94.8275 69.6232 92.5448 69.1009C91.7093 68.9094 91.1809 68.4596 91.0984 68.2342C91.0984 68.2342 89.3199 67.9165 88.7041 67.0384C87.6232 65.4983 88.116 64.4502 88.116 64.4502C88.116 64.4502 86.9469 62.0874 87.8337 60.3543C88.5391 58.9755 89.0063 59.1527 89.0063 59.1527C89.0063 59.1527 88.4325 55.7558 91.1809 56.3566C91.1809 56.3566 92.2397 53.6127 95.1773 55.2301Z" fill="#A34B3D"/>
<path id="Vector_30" d="M109.922 70.2413C109.922 70.2413 109.746 69.5198 110.185 68.3207C110.466 67.5515 110.429 66.0573 110.828 66.332C111.227 66.6067 110.799 67.969 111.133 67.8488C111.468 67.7285 112.527 64.9489 112.888 65.1979C113.25 65.4466 112.1 67.9977 112.399 67.89C112.698 67.7824 113.526 65.328 114.037 65.6799C114.549 66.0317 112.833 68.4655 113.107 68.6545C113.382 68.8432 114.429 67.2771 114.84 67.5604C115.251 67.8437 113.323 69.622 113.498 69.5587C113.675 69.4954 114.926 68.9721 115.012 69.2497C115.111 69.5636 112.514 70.8283 112.273 71.5294C112.032 72.2299 108.053 79.4128 106.733 79.5735C105.413 79.7349 99.0536 75.981 98.4826 74.5808C97.9123 73.1806 98.2999 71.5771 99.1446 71.2727C99.9887 70.9692 105.944 74.7351 106.209 74.6391C106.474 74.5438 109.922 70.2413 109.922 70.2413Z" fill="#F7A491"/>
<path id="Vector_31" d="M111.077 68.3525C111.226 68.5354 111.325 68.7534 111.397 68.9819C111.399 69.0219 111.677 69.7453 111.242 70.4932C111.352 69.9595 111.471 69.3672 111.077 68.3525Z" fill="#F48C7F"/>
<path id="Vector_32" d="M104.52 103.738C105.203 103.474 106.44 102.083 106.44 102.083C108.025 103.447 111.313 107.702 111.313 107.702C111.313 107.702 110.698 108.172 110.174 107.908C109.65 107.642 107.238 106.441 106.116 106.874C105.824 106.988 102.551 108.222 99.6514 109.054C99.2944 107.897 100.275 105.583 99.7908 104.497C101.339 103.935 104.294 103.826 104.52 103.738Z" fill="#F7A491"/>
<path id="Vector_33" d="M105.312 103.2C105.312 103.2 108.156 106.436 108.434 107.01C108.66 107.478 112.191 109.084 112.368 108.484C112.545 107.884 108.168 101.453 107.477 101.218C106.786 100.983 105.312 103.2 105.312 103.2Z" fill="#F0806A"/>
<path id="Vector_34" d="M86.8841 113.143C87.1223 113.879 88.4051 115.222 88.4051 115.222C87.1166 116.908 83.1159 120.389 83.1159 120.389C83.1159 120.389 82.6842 119.725 82.9367 119.165C83.1891 118.605 84.4684 115.123 84.0773 113.914C83.9749 113.599 83.2282 111.255 82.5264 109.931C83.6087 109.561 84.6697 108.991 85.688 108.483C86.1929 110.151 86.8051 112.899 86.8841 113.143Z" fill="#F7A491"/>
<path id="Vector_35" d="M87.3316 88.0605C87.3316 88.0605 79.9275 96.1942 79.173 97.763C78.6098 98.9363 82.0267 110.991 82.0267 110.991C82.0267 110.991 85.2388 110.719 86.5821 109.277C86.5821 109.277 84.8826 100.866 85.2353 100.488C85.588 100.109 94.0481 94.649 94.0481 94.649L92.9978 89.6641L87.3316 88.0605Z" fill="#253A66"/>
<path id="Vector_36" d="M88.9634 87.8465C88.9634 87.8465 90.8969 92.8393 90.8969 94.787C90.8969 96.2782 90.3045 108.227 93.1348 109.38C94.7404 110.033 102.302 109.068 102.302 109.068L101.617 103.659C101.617 103.659 98.0172 104.253 97.7008 103.914C97.3844 103.575 100.584 94.5651 99.9166 91.4732C99.2496 88.382 93.6994 86.4976 93.6994 86.4976L88.9634 87.8465Z" fill="#355389"/>
<path id="Vector_37" d="M85.491 64.1631C85.491 64.1631 84.5886 64.4642 81.8096 68.6661L86.9964 77.5114L88.9882 69.22L85.491 64.1631Z" fill="#D9664A"/>
<path id="Vector_38" d="M93.0672 69.7759C93.0672 69.7759 89.8359 69.4731 88.9491 69.1149C88.0617 68.7567 84.9861 87.7459 84.8325 90.3507C89.0835 91.3669 100.341 94.3287 100.341 94.3287C100.341 94.3287 100.533 93.1077 99.9379 90.9985C98.9068 87.3463 98.323 78.9893 98.323 77.5159C98.323 76.6504 102.351 79.6506 102.351 79.6506L104.04 72.8623C104.04 72.8623 98.8962 70.563 97.0935 70.1498C96.5907 70.0343 93.0672 69.7759 93.0672 69.7759Z" fill="#F0806A"/>
<path id="Vector_39" d="M87.3261 113.928C87.3261 113.928 84.1168 117.185 83.5359 117.5C83.063 117.756 81.9686 121.611 82.5702 121.823C83.1718 122.036 89.1288 117.259 89.3734 116.461C89.618 115.664 87.3261 113.928 87.3261 113.928Z" fill="#F0806A"/>
<path id="Vector_40" d="M91.8898 66.3263C91.8898 66.3263 92.3371 69.9532 91.3878 70.9345C90.3858 71.9706 95.0151 71.6854 95.3415 69.9739C95.5186 69.049 94.8857 64.9668 94.8857 64.9668L91.8898 66.3263Z" fill="#F7A491"/>
<path id="Vector_41" d="M94.8856 64.9668L91.8896 66.3263C91.8896 66.3263 91.9992 67.2152 91.9949 68.2317C92.7273 68.3514 93.5601 68.1762 94.4603 67.5889C94.7199 67.4198 94.9552 67.2332 95.1693 67.0326C95.0356 65.9333 94.8856 64.9668 94.8856 64.9668Z" fill="#F48C7F"/>
<path id="Vector_42" d="M96.3906 63.7568C96.1495 64.5035 96.3223 65.2553 96.776 65.4363C97.2297 65.6171 97.7922 65.1584 98.0326 64.4118C98.2736 63.6652 98.1008 62.9132 97.6471 62.7323C97.1934 62.5514 96.6309 63.0101 96.3906 63.7568Z" fill="#F7A491"/>
<path id="Vector_43" d="M88.4074 61.9235C88.374 62.7159 88.7367 63.3787 89.2181 63.4041C89.6988 63.4294 90.1169 62.8076 90.1503 62.0153C90.1838 61.2229 89.8211 60.5602 89.3397 60.5349C88.8583 60.5097 88.4408 61.1313 88.4074 61.9235Z" fill="#F7A491"/>
<path id="Vector_44" d="M94.1476 57.0412C94.1476 57.0412 95.5976 57.4676 96.4502 59.0374C97.3021 60.6073 97.7729 65.1454 94.73 67.1304C91.6872 69.1155 89.4728 66.0412 89.5304 63.1334C89.588 60.2255 90.75 56.5081 94.1476 57.0412Z" fill="#F7A491"/>
<path id="Vector_45" d="M82.9257 19.2748C89.9352 22.0453 94.3775 28.1751 92.8479 32.9663C92.0834 35.362 89.97 36.9693 87.1725 37.6314L87.762 45.8197L83.5288 37.9622C81.5846 37.8906 79.4897 37.4563 77.3869 36.6252C70.3774 33.8547 65.935 27.7248 67.4644 22.9337C68.9939 18.1425 75.9163 16.5044 82.9257 19.2748Z" fill="white"/>
<path id="Vector_46" d="M85.5203 27.6733C85.5516 30.5577 83.4759 32.9243 80.8839 32.959C78.2919 32.9938 76.165 30.6835 76.1337 27.7988C76.1017 24.9143 78.1774 22.5479 80.7694 22.5131C83.3621 22.4784 85.489 24.7888 85.5203 27.6733Z" fill="#F7CC7F"/>
<path id="Vector_47" d="M78.3267 28.597C78.3437 30.1392 79.4808 31.3744 80.8667 31.3558C82.252 31.3373 83.362 30.072 83.345 28.5298L78.3267 28.597Z" fill="#EFEFEF"/>
<path id="Vector_48" d="M42.8551 61.3055C43.9768 59.9546 46.3386 54.3312 47.1372 52.7336C47.2611 52.427 47.3056 51.3073 47.6844 50.2792C48.0534 49.2775 49.0186 47.8537 49.5 48.2809C49.9815 48.7082 48.5017 49.8672 48.9501 49.8173C49.7889 49.7242 51.1137 46.3947 51.55 46.7818C51.9861 47.1691 50.1718 50.1741 50.5663 50.0826C50.9611 49.9911 52.2215 47.5717 52.6606 48.0023C53.0129 48.3476 50.9901 50.7831 51.3564 51.0194C51.5959 51.1739 52.2266 49.7082 52.5371 49.9845C53.0329 50.4259 51.7354 51.7756 51.8381 52.0136C51.983 52.3496 52.2076 52.3157 52.3111 52.8914C52.3887 53.3237 49.7449 54.4851 49.3607 55.3657C48.6312 57.7452 47.3503 62.0784 45.6578 64.2677C43.5869 66.9465 37.6294 74.3742 37.6294 74.3742L35.1543 69.1513C35.1543 69.1513 41.5248 62.9074 42.8551 61.3055Z" fill="#FFB27D"/>
<path id="Vector_49" d="M49.1172 50.7446C49.2714 50.9719 49.3678 51.2364 49.4331 51.5114C49.4328 51.5589 49.698 52.4334 49.1753 53.2824C49.3267 52.6613 49.4927 51.9717 49.1172 50.7446Z" fill="#6B4744"/>
<path id="Vector_50" d="M23.0362 116.752C23.0362 116.752 22.6576 120.407 22.0429 122.002C21.4282 123.597 19.4007 124.604 17.618 124.995C15.8352 125.386 16.4291 125.698 16.6903 125.989C16.9515 126.28 24.679 126.476 26.0423 126.202C26.0423 126.202 25.518 123.208 25.518 122.741C25.518 122.275 27.6503 114.923 27.6503 114.923L23.0362 116.752Z" fill="#FFB27D"/>
<path id="Vector_51" d="M26.0425 126.201C26.0425 126.201 25.9358 125.592 25.8186 124.88C24.3279 125.102 20.9172 124.714 19.2085 124.492C18.6852 124.713 18.0498 124.779 17.5268 124.893C15.7442 125.284 15.8779 125.804 16.3249 126.166C16.6235 126.408 24.6793 126.476 26.0425 126.201Z" fill="#466EB6"/>
<path id="Vector_52" d="M38.2398 115.895C38.2398 115.895 38.0307 120.388 38.4633 122.002C38.9091 123.665 39.5474 123.951 41.2981 124.493C43.0169 125.024 42.3643 125.876 42.1032 126.167C41.8418 126.457 35.8273 126.476 34.4638 126.202C34.4638 126.202 34.9882 123.208 34.9882 122.741C34.9882 122.275 34.3516 114.719 34.3516 114.719L38.2398 115.895Z" fill="#FFB27D"/>
<path id="Vector_53" d="M34.4644 126.201C34.4644 126.201 34.5713 125.592 34.6884 124.88C36.1792 125.102 39.5898 124.714 41.2986 124.492C41.8895 124.652 42.3681 124.783 42.8888 124.995C44.5957 125.688 44.4434 125.875 44.182 126.166C43.9211 126.457 35.8278 126.476 34.4644 126.201Z" fill="#466EB6"/>
<path id="Vector_54" d="M21.1152 117.115C21.1152 117.115 25.2048 118.34 29.8449 118.34C34.485 118.34 43.608 115.715 43.608 115.715C43.608 115.715 41.0914 108.947 40.2263 103.755C39.3611 98.5628 38.732 89.6362 38.732 89.6362H24.8874L24.0221 95.8158L21.1152 117.115Z" fill="#466EB6"/>
<path id="Vector_55" d="M26.7941 68.8041C26.0038 69.8323 25.6698 70.6453 25.797 73.0525C25.988 76.6635 25.9364 81.551 25.6744 83.4176C25.412 85.285 24.6255 89.9229 24.6255 89.9229C24.6255 89.9229 26.9325 92.0527 32.9102 91.4688C38.8877 90.8857 39.2023 89.9911 39.2023 89.9911C39.2023 89.9911 38.3634 74.9583 38.3634 73.3824C38.3634 71.8073 37.0801 67.2502 37.0801 67.2502C37.0801 67.2502 33.6268 66.8536 32.0538 66.9884C30.4806 67.1229 27.5844 67.7759 26.7941 68.8041Z" fill="#F47458"/>
<path id="Vector_56" d="M37.8669 56.0114C37.8669 56.0114 41.777 60.364 37.8614 64.1108C36.5423 65.3731 35.1313 64.9813 35.1313 64.9813C35.1313 64.9813 34.2493 67.4999 30.0847 66.9603C27.0629 66.5689 27.0476 64.1244 27.0476 64.1244C27.0476 64.1244 24.9418 64.7454 23.3947 62.5881C21.5366 59.9969 22.2444 56.6002 24.7662 55.3697C24.7662 55.3697 23.5176 51.6311 26.9102 50.1236C29.6172 48.9207 31.6236 50.8653 31.6236 50.8653C31.6236 50.8653 33.4863 48.6388 36.356 50.7447C39.2021 52.8333 37.8669 56.0114 37.8669 56.0114Z" fill="#13375B"/>
<path id="Vector_57" d="M30.1441 60.3554C30.6002 61.0694 30.6185 61.9263 30.1847 62.2692C29.7511 62.6123 29.0297 62.3117 28.5735 61.5976C28.1175 60.8838 28.0993 60.0269 28.5329 59.6838C28.9666 59.3407 29.688 59.6415 30.1441 60.3554Z" fill="#FFB27D"/>
<path id="Vector_58" d="M34.1629 63.9746L34.3226 67.3768C34.3226 67.3768 34.369 68.7006 33.1493 69.0095C31.9296 69.3185 30.7054 68.3791 30.6114 67.3128C30.5994 67.1776 30.7987 62.4658 30.7987 62.4658L34.1629 63.9746Z" fill="#FFB27D"/>
<path id="Vector_59" d="M30.7987 62.4658L34.1629 63.9746L34.2198 65.1848C33.6411 65.2524 32.7782 65.2949 32.0505 64.9135C31.4388 64.5929 31.0736 64.1408 30.7554 63.4973C30.7805 62.8948 30.7987 62.4658 30.7987 62.4658Z" fill="#F69755"/>
<path id="Vector_60" d="M30.7352 53.4966C30.7352 53.4966 29.3872 54.4202 28.9252 56.3405C28.4631 58.2607 29.1271 63.1539 32.6769 64.222C36.2264 65.2903 37.4409 61.4143 36.8928 58.333C36.2443 54.6893 34.011 51.8185 30.7352 53.4966Z" fill="#FFB27D"/>
<path id="Vector_61" d="M46.1131 78.1192C44.4504 77.8277 43.315 76.0911 43.5772 74.2415L49.2812 33.6914L55.3025 34.7478L49.5985 75.2975C49.3363 77.1478 47.7759 78.4115 46.1131 78.1192Z" fill="#C5DDF9"/>
<path id="Vector_62" d="M53.1761 49.0439C52.2542 49.8389 52.5468 50.1453 53.1054 49.8347C53.6264 49.5449 53.459 48.8 53.1761 49.0439Z" fill="#966259"/>
<path id="Vector_63" d="M53.0957 50.009C52.4435 50.5762 52.72 50.751 53.0626 50.5661C53.3866 50.3912 53.3054 49.8265 53.0957 50.009Z" fill="#966259"/>
<path id="Vector_64" d="M53.2603 47.97C52.39 48.5141 52.2933 48.829 52.3837 49.0008C52.4685 49.1618 53.3808 48.8467 53.5221 48.4847C53.6392 48.185 53.4868 47.8284 53.2603 47.97Z" fill="#966259"/>
<path id="Vector_65" d="M55.4439 38.4028L48.1364 37.1207C47.8562 37.0716 47.6648 36.7788 47.709 36.4669L48.3895 31.6644C48.4338 31.3525 48.6968 31.1396 48.9771 31.1887L56.2845 32.4708C56.5648 32.52 56.7562 32.8127 56.712 33.1245L56.0315 37.9272C55.9872 38.239 55.7242 38.452 55.4439 38.4028Z" fill="#FAE0B2"/>
<path id="Vector_66" d="M50.2626 31.4139L49.306 31.2461L48.4688 37.1569L49.4253 37.3247L50.2626 31.4139Z" fill="#F7CC7F"/>
<path id="Vector_67" d="M52.1601 31.7464L51.2035 31.5786L50.3662 37.4894L51.3228 37.6572L52.1601 31.7464Z" fill="#F7CC7F"/>
<path id="Vector_68" d="M54.0596 32.0769L53.103 31.9092L52.2656 37.8199L53.2223 37.9876L54.0596 32.0769Z" fill="#F7CC7F"/>
<path id="Vector_69" d="M55.9569 32.41L55.0003 32.2422L54.1631 38.1529L55.1196 38.3207L55.9569 32.41Z" fill="#F7CC7F"/>
<path id="Vector_70" d="M53.1313 39.9109L49.9197 39.3474C49.499 39.2735 49.2117 38.8341 49.2781 38.366L49.4256 37.3252L54.1607 38.156L54.0132 39.1968C53.9469 39.665 53.552 39.9847 53.1313 39.9109Z" fill="#F7CC7F"/>
<path id="Vector_71" d="M46.8131 76.3859L45.9356 76.2316C44.8647 76.0439 44.133 74.9267 44.3002 73.7349L47.1817 53.0703L49.0906 54.2581L51.9411 53.9054L49.0605 74.5634C48.893 75.7573 47.8862 76.5744 46.8131 76.3859Z" fill="#F47458"/>
<path id="Vector_72" d="M47.1816 53.0703C47.1816 53.0703 49.1545 54.1218 50.4937 53.5476C51.8329 52.9734 52.63 53.9512 51.2199 54.8723C49.7683 55.8204 47.1816 53.0703 47.1816 53.0703Z" fill="#B75742"/>
<path id="Vector_73" opacity="0.5" d="M45.3348 74.5493L44.9048 74.474C44.7638 74.4498 44.6675 74.3026 44.6897 74.1454L49.7218 38.6359C49.7441 38.479 49.8764 38.3719 50.0174 38.3966L50.4474 38.4721C50.5885 38.4968 50.6847 38.644 50.6624 38.801L45.6304 74.3104C45.6081 74.4676 45.4758 74.5742 45.3348 74.5493Z" fill="white"/>
<path id="Vector_74" d="M41.7589 75.6168C41.7589 75.6168 42.1544 74.1334 42.8667 73.3156C43.5578 72.522 44.5482 70.9288 44.8316 71.5478C45.115 72.1664 43.7835 73.3874 44.2382 73.5069C44.6929 73.6271 47.6218 71.2797 47.8786 71.84C48.1353 72.4011 45.2447 74.4185 45.6517 74.5259C46.0586 74.6333 48.6365 72.6912 48.8859 73.2701C49.2314 74.0729 45.7885 75.5136 45.9832 75.9396C46.1781 76.3641 48.3403 75.3878 48.6325 76.0256C48.9247 76.6635 45.6282 77.2054 45.8676 77.268C46.107 77.3312 47.8543 77.6968 47.7808 78.0793C47.6976 78.5117 43.5895 77.5865 42.8807 78.1988C42.172 78.8111 33.562 84.2923 31.9613 83.4617C30.3605 82.6319 25.6829 73.4934 25.6758 71.4482C25.6686 69.3942 26.8862 67.8128 28.4798 68.1942C29.634 68.4706 33.4633 78.8744 33.824 78.9696C34.1846 79.0649 41.7589 75.6168 41.7589 75.6168Z" fill="#FFB27D"/>
</g>
</svg>
