<svg width="128" height="128" viewBox="0 0 128 128" fill="none" xmlns="http://www.w3.org/2000/svg">
<g id="Vector Art">
<path id="Vector" d="M68.4369 14.5195H56.5892C55.0329 14.5195 53.7593 15.8707 53.7593 17.5219V22.2776C53.7593 23.0319 54.0258 23.7236 54.4632 24.2526L53.7593 27.666L57.8185 25.28H68.4376C69.9939 25.28 71.2675 23.9288 71.2675 22.2776V17.5219C71.2675 15.8707 69.9939 14.5195 68.4376 14.5195H68.4369Z" fill="#A9E8B7"/>
<path id="Vector_2" d="M68.6595 18.1424H56.3764C56.1233 18.1424 55.9165 17.9231 55.9165 17.6545C55.9165 17.3859 56.1233 17.1665 56.3764 17.1665H68.6595C68.9127 17.1665 69.1194 17.3859 69.1194 17.6545C69.1194 17.9223 68.9127 18.1424 68.6595 18.1424Z" fill="#B7D3F3"/>
<path id="Vector_3" d="M68.6595 20.2772H56.3764C56.1233 20.2772 55.9165 20.0578 55.9165 19.7892C55.9165 19.5206 56.1233 19.3013 56.3764 19.3013H68.6595C68.9127 19.3013 69.1194 19.5206 69.1194 19.7892C69.1194 20.0578 68.9127 20.2772 68.6595 20.2772Z" fill="#B7D3F3"/>
<path id="Vector_4" d="M68.6595 22.3309H56.3764C56.1233 22.3309 55.9165 22.1115 55.9165 21.8429C55.9165 21.5751 56.1233 21.355 56.3764 21.355H68.6595C68.9127 21.355 69.1194 21.5743 69.1194 21.8429C69.1194 22.1115 68.9127 22.3309 68.6595 22.3309Z" fill="#B7D3F3"/>
<path id="Vector_5" d="M12.6805 127.938C12.6805 127.938 -6.37843 86.9392 3.82229 54.9213C34.6607 -41.8748 129.71 8.20868 120.826 61.0849C115.94 90.1646 134.089 98.877 124.644 128L12.6805 127.938Z" fill="#A9E8B7"/>
<path id="Intersect" fill-rule="evenodd" clip-rule="evenodd" d="M9.28367 40.6547C12.2369 34.1849 15.538 28.5916 19.1029 23.8029L28.1175 23.3003C28.2526 23.2928 28.5003 23.2631 28.8399 23.2223C32.2702 22.8108 45.0827 21.2735 46.0494 30.0871C46.0692 30.2675 46.083 30.45 46.0969 30.6324C46.1378 31.1699 46.1786 31.7072 46.371 32.1915C47.1707 34.2046 49.2438 34.1426 51.2641 34.0823C51.8879 34.0636 52.5066 34.0451 53.0812 34.0879C55.4167 34.2616 57.4126 35.7899 59.4202 37.3271C60.392 38.0713 61.3665 38.8175 62.3837 39.4132C65.0541 40.9771 68.0615 41.5053 71.0262 41.7871C74.2595 42.0945 77.5524 42.1454 80.8449 42.1964C89.3429 42.3279 97.838 42.4594 105.298 46.9987C106.003 47.4272 106.714 47.9158 107.179 48.6796C107.789 49.6814 108.016 50.9897 107.952 52.226C107.474 61.3549 91.6088 65.8016 81.3572 68.6749C79.5171 69.1907 77.8579 69.6557 76.5009 70.0881C70.7133 71.932 64.8734 73.7861 58.8911 74.1447C57.9118 74.2034 56.9257 74.2228 55.9392 74.2422C53.0234 74.2995 50.1043 74.3569 47.3492 75.4305C46.0915 75.9206 44.9007 76.6117 43.7091 77.3032C42.9139 77.7646 42.1183 78.2263 41.3023 78.6287C37.9209 80.2957 34.2457 80.9168 30.5998 81.2702C24.0924 81.9011 17.5513 81.726 11.0241 81.5505L0.974539 81.2803C0.680276 76.1133 0.783501 70.8442 1.46516 65.6601C6.16967 65.5292 10.8838 66.1957 15.5888 66.861C17.0204 67.0634 18.451 67.2657 19.8804 67.4454C27.1881 68.3641 34.8018 68.6451 41.6434 65.4419C42.4501 65.0642 43.2417 64.6398 44.0331 64.2155C45.2882 63.5425 46.5426 62.8699 47.8554 62.3847C51.4947 61.0399 55.3938 61.1909 59.2712 61.3411C63.9219 61.5212 68.5412 61.7001 72.6431 59.2951C74.5171 58.1962 76.3748 55.6771 75.3933 53.4758C74.8039 52.1542 73.4488 51.655 72.2181 51.3724C71.2355 51.1468 70.233 50.9756 69.2298 50.8043C66.274 50.2997 63.3114 49.7939 60.8313 47.8901C60.5094 47.643 60.1978 47.3735 59.8864 47.1042C59.224 46.5313 58.5626 45.9592 57.8048 45.6051C56.6699 45.0747 55.4168 45.079 54.1983 45.0904L34.8412 45.2724C33.0577 45.2892 31.2395 45.3001 29.5388 44.6584C28.4439 44.2453 27.4359 43.5756 26.4281 42.906C25.398 42.2217 24.3682 41.5376 23.2459 41.1275C21.6171 40.5324 19.8825 40.5466 18.1794 40.5659C16.4013 40.5861 14.6232 40.603 12.8451 40.6199C11.6579 40.6311 10.4708 40.6424 9.28367 40.6547Z" fill="#D4F3DB"/>
<path id="Vector_6" d="M73.9059 66.6656C74.7688 67.0521 75.9833 68.3973 77.9257 67.5818C79.3153 67.0096 80.7851 66.6089 81.5003 66.4224C81.7837 66.3649 81.9455 66.3224 81.9455 66.3224L81.1768 63.9468C81.1768 63.9468 81.1501 63.961 81.0826 63.9751C80.5833 64.0893 78.0474 64.6623 76.861 64.3758C75.5255 64.0468 73.2863 65.7494 73.2863 65.7494C73.2863 65.7494 73.0437 66.2933 73.9066 66.6656H73.9059Z" fill="#FFB27D"/>
<path id="Vector_7" d="M60.0145 68.7227L61.4 69.2002C61.4 69.2002 63.6011 68.4264 65.526 71.1654C65.526 71.1654 66.1286 72.1846 65.3867 72.9613C64.7039 73.6761 64.5702 71.9914 63.2551 72.3279C61.9401 72.6636 61.049 72.1391 60.4625 71.287L59.4941 70.673L60.0145 68.7227Z" fill="#FFB27D"/>
<path id="Vector_8" d="M41.9319 36.4033C41.9319 36.4033 46.8546 44.5688 45.2969 59.488C44.811 64.1453 60.201 71.537 60.201 71.537C60.201 71.537 61.3565 70.5775 60.8614 68.8577C60.8614 68.8577 52.3182 59.8111 51.4504 58.7009C50.6804 57.7153 48.5952 47.2182 47.6957 43.7242C46.1493 37.715 41.9312 36.4041 41.9312 36.4041L41.9319 36.4033Z" fill="#233862"/>
<path id="Vector_9" d="M122.901 128H5.09917C4.61349 128 4.21973 127.557 4.21973 127.01C4.21973 126.463 4.61349 126.02 5.09917 126.02H122.901C123.386 126.02 123.78 126.463 123.78 127.01C123.78 127.556 123.386 128 122.901 128Z" fill="#F0806A"/>
<path id="Vector_10" d="M19.3487 119.284C19.3487 119.284 17.6637 120.916 17.9922 122.075C18.3206 123.234 19.8417 124.007 20.0471 125.423C20.2524 126.84 21.0745 127.613 21.8143 127.613H25.3412C25.3412 127.613 25.8855 126.617 24.5704 126.316C23.2553 126.015 22.7595 124.351 22.8411 122.805C22.9234 121.259 22.718 119.198 22.718 119.198L19.9233 118.511L19.348 119.284L19.3487 119.284Z" fill="#233862"/>
<path id="Vector_11" d="M40.0216 123.504C40.0216 123.504 39.7192 127.217 40.4591 127.603L49.927 127.582C49.927 127.582 49.927 126.423 48.4065 126.166C46.8854 125.908 44.2144 124.964 43.7622 122.86C43.31 120.755 40.0223 123.503 40.0223 123.503L40.0216 123.504Z" fill="#233862"/>
<path id="Vector_12" d="M48.0148 71.0537C48.0148 71.0537 47.5155 77.562 46.929 85.3858C46.1308 96.0134 45.1715 109.068 45.0766 111.541C44.9127 115.835 44.2545 122.704 44.2545 122.704C44.2545 122.704 42.6933 124.336 39.5687 123.648C39.5687 123.648 36.7845 113.842 35.9891 103.466C35.9765 103.296 35.9645 103.125 35.9519 102.954C35.212 92.3917 34.0615 70.1509 34.0615 70.1509L48.0141 71.0522L48.0148 71.0537Z" fill="#FFB93E"/>
<path id="Vector_13" d="M48.0151 71.0539C48.0151 71.0539 47.5158 77.5622 46.9293 85.386L35.9901 103.467C35.9775 103.297 35.9655 103.126 35.9529 102.955C35.213 92.3927 34.0625 70.1519 34.0625 70.1519L48.0151 71.0532V71.0539Z" fill="#E3A330"/>
<path id="Vector_14" d="M45.7343 71.8275C45.7343 71.8275 36.7333 95.3987 30.8154 106.476C24.8968 117.554 23.0473 120.645 23.0473 120.645C23.0473 120.645 19.6569 119.228 19.3481 118.262C19.3481 118.262 21.6112 96.8767 25.5748 91.6637C27.8139 88.718 30.4448 79.8781 30.5686 76.7862C30.6917 73.695 31.3696 67.5762 31.3696 67.5762L45.7343 71.8268V71.8275Z" fill="#FFB93E"/>
<path id="Vector_15" d="M33.8921 35.5016C33.8921 35.5016 39.9823 38.6188 43.4929 37.4624C43.4929 37.4624 42.6286 36.3059 41.1166 35.4449C41.2383 34.6973 41.3325 34.0482 41.3867 33.4983C41.5351 32.2284 41.5351 31.5091 41.5351 31.5091L39.1855 29.5483L36.9576 27.6719C37.1334 32.9476 33.8921 35.5008 33.8921 35.5008V35.5016Z" fill="#FFB27D"/>
<path id="Vector_16" d="M48.3994 71.5918C48.2918 71.691 48.1702 71.7462 48.0337 71.7462C46.7109 71.7179 42.8627 72.4931 39.6087 72.1409C36.8541 71.8589 34.4229 71.0128 31.8167 69.8004C31.465 69.631 30.6682 69.1796 30.6823 68.7849C30.6964 68.3335 30.7358 67.6986 30.7899 66.8794C30.8989 65.2677 31.0529 62.9794 31.1015 60.2666C31.138 58.255 31.1176 56.0107 30.9798 53.6336C30.9721 53.474 30.9636 53.3128 30.9573 53.1516C30.9179 52.2802 30.8989 51.402 30.8989 50.544C30.8849 47.7789 31.0733 45.1414 31.451 42.7859C32.1141 38.6942 33.3434 35.4695 35.1789 34.0444C35.4223 33.846 36.9483 34.6451 38.352 35.3651C39.6355 36.0284 40.9175 36.0992 42.1327 35.8456L43.3479 36.9737C44.8213 38.3973 46.4416 40.358 47.1568 43.3216C47.7503 45.833 48.1012 50.3746 48.2911 55.087C48.3847 57.2306 48.4529 59.375 48.4796 61.42V61.4909C48.4937 61.7021 48.4937 61.9155 48.4937 62.1274C48.5598 67.3606 48.4937 71.5224 48.3987 71.5925L48.3994 71.5918Z" fill="#2B478B"/>
<path id="Vector_17" d="M36.917 29.6898C36.917 29.6898 38.4564 32.6661 41.3869 33.4987C41.5353 32.2289 41.5353 31.5096 41.5353 31.5096L39.1857 29.5488L36.917 29.6898Z" fill="#ED985F"/>
<path id="Vector_18" d="M42.6063 31.4231C42.6063 31.4231 36.7967 32.4311 36.251 28.6423C35.7053 24.8528 34.5885 22.431 38.275 21.6274C41.9614 20.8238 42.8918 22.1556 43.3686 23.374C43.8447 24.5924 44.1035 31.0635 42.6063 31.4231Z" fill="#FFB27D"/>
<path id="Vector_19" d="M34.1395 21.1738C34.0868 21.1096 33.9651 21.0582 33.6943 21.0425C33.6943 21.0425 33.9109 20.8985 34.2 20.891C34.2562 20.4919 34.4567 19.7845 35.1044 19.6129C35.1044 19.6129 34.7563 19.8099 34.7105 20.2345C35.4609 19.4167 37.0693 18.8213 41.5216 19.1944C47.3895 19.6861 45.4556 23.6718 44.6961 24.1471C43.9365 24.6223 42.0244 23.3196 40.6087 23.439C39.1931 23.5584 38.9237 25.7281 38.4441 26.0258C37.9638 26.3235 38.153 25.7967 37.5032 25.4856C36.8534 25.1737 36.7915 26.316 36.9792 27.0591C37.167 27.8015 36.2739 28.7812 36.2739 28.7812L35.3716 27.75C34.4693 26.7197 33.6191 22.3534 34.0291 21.423C34.0657 21.3409 34.1015 21.2574 34.1381 21.1738H34.1395Z" fill="#ED7D2B"/>
<path id="Vector_20" d="M62.0232 69.4928C62.0232 69.4928 62.7666 69.1392 63.2103 69.6473C63.6541 70.1546 64.6921 70.5045 64.6028 70.7702C64.4185 71.3193 63.4614 70.7 62.4501 71.0343C62.0964 71.1507 60.9986 70.4322 62.0232 69.4936V69.4928Z" fill="#FFB27D"/>
<path id="Vector_21" d="M31.1017 60.2666C31.1383 58.255 31.1179 56.0107 30.98 53.6336C30.9723 53.4739 30.9638 53.3128 30.9575 53.1516C31.5096 50.2485 32.345 47.6737 33.575 47.5894C33.575 47.5894 37.2383 53.697 31.1017 60.2666Z" fill="#233862"/>
<path id="Vector_22" d="M26.2563 70.7984C26.2563 70.7984 26.5616 73.9478 26.897 74.5439C27.2318 75.1393 28.6587 77.0434 29.2663 77.4172C29.8739 77.791 28.895 74.9088 29.0187 74.3477C29.1425 73.7866 29.5187 75.3713 29.7867 75.4087C30.0546 75.446 29.9857 74.0201 29.9956 73.5016C30.0054 72.9823 28.6924 71.702 28.2297 70.597C27.7669 69.492 26.2571 70.7992 26.2571 70.7992L26.2563 70.7984Z" fill="#FFB27D"/>
<path id="Vector_23" d="M35.1953 34.0361C35.1953 34.0361 31.5193 35.8828 29.757 38.7217C27.0234 43.1253 23.8539 59.1749 23.7955 60.6619C23.7371 62.1481 26.1085 72.6407 26.1085 72.6407C26.1085 72.6407 28.5136 72.4728 29.1339 71.1843C29.1339 71.1843 28.6536 60.4037 28.9581 59.7106C29.2626 59.0175 38.9851 45.2487 37.8922 42.3113C36.7994 39.3731 35.196 34.0361 35.196 34.0361H35.1953Z" fill="#2B478B"/>
<path id="Vector_24" d="M88.4527 22.3743C88.4618 22.1169 88.6496 19.3398 92.6363 19.1943C92.6363 19.1943 90.6757 19.442 90.3374 20.3568C90.3374 20.3568 91.6722 19.2272 92.7594 19.5905C93.8466 19.9539 94.4852 21.9743 94.4915 22.6391C94.4978 23.3039 93.8938 25.446 93.2039 25.6281C92.9422 25.6967 92.6413 25.6788 92.3684 25.6288C92.5519 25.9332 92.732 26.2682 92.9036 26.6428C94.4943 30.107 92.8536 33.4928 91.5069 33.119C90.6433 32.8788 90.3986 34.4426 90.3986 34.4426L82.0073 27.2352C82.0073 27.2352 85.0897 20.4694 88.4527 22.3735V22.3743Z" fill="#2C3A64"/>
<path id="Vector_25" d="M67.8631 62.0718C67.8631 62.0718 66.2006 61.7279 65.8201 62.0718C65.4397 62.4158 63.6365 64.3594 64.0226 64.9981C64.4087 65.636 66.2597 64.4698 66.6451 64.3594C67.0297 64.2497 68.1057 63.8035 68.1057 63.8035L67.8631 62.0718Z" fill="#FFB27D"/>
<path id="Vector_26" d="M85.531 124.439L87.313 125.143C87.313 125.143 95.0545 113.752 96.0081 103.729C96.1783 101.94 96.1213 100.206 95.7535 98.6049C95.7535 98.6049 95.8294 98.1468 95.9617 97.3357C96.0228 96.9575 96.0988 96.5023 96.1846 95.9801C96.4364 94.4498 96.7824 92.3569 97.1783 89.9731C98.089 84.4877 99.2691 77.4757 100.186 72.3208L99.7058 72.1574L94.5094 70.3787L93.4356 66.7601L89.5663 65.6797C89.5663 65.6797 88.702 67.4733 87.9291 75.9477C87.7863 77.0594 87.6569 78.2853 87.5592 79.6141C87.2582 83.6714 87.2364 88.704 87.927 94.458C88.1042 95.9308 88.3285 97.4514 88.6063 99.0137C88.8103 100.159 88.8405 101.72 88.7547 103.513C88.3644 111.706 85.5303 124.439 85.5303 124.439H85.531Z" fill="#2B478B"/>
<path id="Vector_27" d="M87.5598 79.6141L95.9616 97.3357C96.0228 96.9575 96.0987 96.5023 96.1845 95.9801C96.4363 94.4498 96.7823 92.3569 97.1782 89.9731C98.0889 84.4877 99.269 77.4757 100.186 72.3208L99.7057 72.1574L94.5093 70.3787L93.4355 66.7601L89.5662 65.6797C89.5662 65.6797 88.7019 67.4733 87.929 75.9477C87.7862 77.0594 87.6568 78.2853 87.5591 79.6141H87.5598Z" fill="#233862"/>
<path id="Vector_28" d="M91.2559 67.9538L91.4507 66.184C94.7095 67.1025 103.416 63.6182 103.416 63.6182C103.416 63.6182 106.573 66.5623 106.159 73.6191C105.956 77.0639 105.587 91.7003 105.201 96.0315C105.061 97.6013 104.939 98.7183 104.889 99.1644C104.888 99.1667 104.888 99.1674 104.888 99.1689C104.873 99.3047 104.918 99.4338 104.983 99.5524C105.552 100.575 106.022 101.641 106.408 102.731C110.197 113.441 105.824 126.63 105.824 126.63L104.69 126.145C104.69 126.145 102.202 111.467 100.181 104.983C99.8377 103.883 99.5086 103.018 99.2076 102.502C98.3285 100.997 97.5134 98.5377 96.7729 95.6129C95.3734 90.0835 94.2475 82.8902 93.4978 77.3384C93.3945 77.3436 91.2573 67.9531 91.2573 67.9531L91.2559 67.9538Z" fill="#2B478B"/>
<path id="Vector_29" d="M67.8628 62.0722L68.1054 63.804C68.1054 63.804 68.213 63.804 68.4022 63.7898C68.9957 63.7465 70.4388 63.6607 72.0711 63.4749C74.5261 63.2175 77.4397 62.7594 78.5994 62.0014C80.3667 60.8568 83.2662 57.3501 85.1551 53.8441C85.2093 53.7583 85.2494 53.6725 85.2902 53.5867C86.2747 51.7259 86.9625 49.88 87.0166 48.4064C87.0574 47.5051 86.9625 46.7322 86.7874 46.0592C86.5581 45.172 86.1805 44.4707 85.7895 43.941C85.7353 43.8552 85.6819 43.7694 85.6003 43.6977C84.9526 42.8822 84.319 42.539 84.319 42.539C83.9955 42.3958 83.6445 42.5674 83.2803 42.9822V42.9964C82.9835 43.3254 82.66 43.8261 82.3498 44.4558C82.3365 44.47 82.3231 44.4841 82.3231 44.4991C82.2556 44.6281 82.1881 44.7706 82.1072 44.9281C82.0805 44.9564 82.0671 44.9997 82.0531 45.028C81.9047 45.3571 81.7563 45.7003 81.6079 46.0584C79.9489 49.8935 78.5284 55.5296 77.0579 57.2613C76.4242 58.0052 73.178 59.6392 70.8713 60.727C69.2123 61.5 67.8635 62.0722 67.8635 62.0722H67.8628Z" fill="#FFB27D"/>
<path id="Vector_30" d="M70.8033 58.3311C72.7379 57.3985 74.9595 58.1789 75.8386 62.099C76.4251 64.7156 82.1327 67.6202 79.563 71.6157C77.1044 74.7531 71.1907 72.6998 71.6894 68.7237C72.188 64.7477 73.4461 61.4238 72.074 60.7896C70.3609 59.998 70.8033 58.3311 70.8033 58.3311Z" fill="#ED7D2B"/>
<path id="Vector_31" d="M67.4622 69.8247C71.52 69.2091 75.4111 69.3569 75.6284 74.0954C75.845 78.8332 76.8999 87.7455 75.634 89.5004C74.3682 91.2553 67.7322 91.0053 67.7322 91.0053C63.2926 82.9741 67.4622 69.8247 67.4622 69.8247Z" fill="#FFB93E"/>
<path id="Vector_32" d="M85.0308 46.4888C86.054 46.9924 87.2889 47.3349 88.7833 47.4214C94.3855 47.7475 95.6576 42.5366 95.889 39.0784C95.0817 38.768 94.3742 38.7971 93.967 38.8203C93.5697 38.8434 93.1548 38.8867 92.813 38.9314C92.1273 38.5517 90.8966 36.7065 90.1849 33.6206L89.943 33.7392L85.9007 35.7552C85.9007 35.7552 86.3297 37.1512 86.6475 38.486C86.8951 39.5313 87.0723 40.5408 86.9239 40.8236C86.6053 40.9609 86.4148 41.0474 86.4148 41.0474C86.4148 41.0474 86.4148 41.0489 86.4134 41.0519C86.3726 41.1616 85.4935 43.5372 85.0308 46.4881V46.4888Z" fill="#FFB27D"/>
<path id="Vector_33" d="M85.9006 35.7565C85.9006 35.7565 86.3303 37.151 86.6468 38.4873C89.0097 37.7874 89.727 35.1529 89.9429 33.7397L85.8999 35.7557L85.9006 35.7565Z" fill="#ED985F"/>
<path id="Vector_34" d="M85.403 37.2333C85.403 37.2333 91.0565 35.8455 90.1872 32.1231C89.318 28.4015 89.4629 25.7155 85.8165 26.4445C82.1701 27.1734 81.803 28.7768 81.8087 30.0945C81.8136 31.4113 83.91 37.4981 85.403 37.2333Z" fill="#FFB27D"/>
<path id="Vector_35" d="M81.4904 27.9815C82.098 26.6325 82.8132 26.7049 83.2605 26.9437C85.9167 24.336 88.5222 26.4661 88.5222 26.4661C89.5251 29.0365 91.6981 30.0863 91.6981 30.0863C91.6981 30.0863 90.8296 31.0301 88.3127 31.0092C87.544 31.0025 86.7711 30.628 86.0672 30.1124C87.4237 31.5621 89.0145 32.4447 89.0145 32.4447C85.8639 31.8053 83.7506 27.9352 83.534 27.5241C83.2668 27.9427 82.7562 28.8328 82.7133 29.5841C82.655 30.6056 82.9862 32.5895 82.4349 32.6648C82.4349 32.6648 80.5775 30.0042 81.489 27.9815H81.4904Z" fill="#2C3A64"/>
<path id="Vector_36" d="M81.5937 46.0521C81.7976 45.4038 83.1584 42.8849 83.1584 42.8849C83.1584 42.8849 83.1584 42.8849 83.1591 42.8849C83.1648 42.8789 84.0241 42.0433 86.4138 41.048C86.4138 41.048 86.4138 41.0494 86.4124 41.0524C86.3744 41.2009 85.3547 45.1202 85.7267 45.9574C86.1051 46.8079 93.2656 44.0615 93.6573 43.4348C93.9703 42.9311 93.9787 40.2713 93.9703 39.2356C93.9689 38.9775 93.9661 38.8201 93.9661 38.8201C93.9661 38.8201 96.6391 38.4358 98.1427 39.0812C98.1427 39.0812 97.5491 40.4488 97.3304 41.9575C97.31 42.1007 97.2925 42.2447 97.2798 42.388C97.251 42.6924 97.2418 42.996 97.258 43.293C97.2798 43.6855 97.4704 44.0324 97.7742 44.3719C98.0506 44.6838 98.4261 44.9912 98.8509 45.3194C99.1286 45.5328 99.4268 45.7567 99.7356 45.9984C99.7616 47.7742 99.6434 50.6952 99.9536 53.8117C100.032 54.6018 100.279 55.3584 100.669 56.0284C100.824 56.2955 101.001 56.5484 101.199 56.785C102.778 58.6637 105.578 62.4092 104.962 64.7408C104.917 66.9395 87.4391 69.8277 87.8126 67.4133C87.8126 67.4133 85.1859 53.9833 83.7674 50.7414C83.7168 50.6228 83.6697 50.5064 83.6275 50.3878C83.1725 49.1082 83.2492 47.7928 83.4032 46.6147C82.6022 46.0103 81.5923 46.0514 81.5923 46.0514L81.5937 46.0521Z" fill="#F99746"/>
<path id="Vector_37" d="M92.5205 62.9015C95.9679 62.8627 98.8871 59.065 100.671 56.0298C100.281 55.3598 100.034 54.6032 99.9553 53.8131C99.6452 50.6966 99.7634 47.7756 99.7373 45.9998C99.4286 45.7573 99.1304 45.5335 98.8526 45.3201C98.4279 44.9911 98.0523 44.6844 97.776 44.3726C94.9531 49.4349 87.8474 62.9545 92.5212 62.9015H92.5205Z" fill="#ED7D2B"/>
<path id="Vector_38" d="M79.4897 64.8915L79.9616 66.7232C79.9616 66.7232 80.5552 66.609 81.4996 66.4225C81.7831 66.365 81.9448 66.3225 81.9448 66.3225C82.7001 66.1651 83.6038 65.9502 84.5883 65.7211H84.6017C86.2881 65.2914 88.1764 64.7766 89.7678 64.2043C90.8874 63.7895 91.8586 63.3455 92.5197 62.9023C92.5872 62.8591 92.6413 62.8165 92.7088 62.7591C94.2869 61.5429 96.1618 57.9653 97.6183 54.1303C97.8208 53.6006 98.0093 53.0716 98.1984 52.556C98.8729 50.6385 99.4123 48.7493 99.7358 47.1176C99.9383 46.1447 100.073 45.2568 100.1 44.5271C100.113 44.2697 100.127 44.0264 100.113 43.7974C100.087 39.6475 98.1443 39.0752 98.1443 39.0752C98.1042 39.0611 98.0634 39.0469 98.0093 39.0327C97.6717 38.9753 97.3215 39.2185 96.9572 39.6908C96.4987 40.2772 96.0127 41.236 95.5141 42.3954C94.7455 44.2413 93.936 46.6311 93.1807 49.0067C92.7623 50.3087 92.3579 51.6114 91.9535 52.8134C91.7243 53.5431 91.495 54.2303 91.2791 54.86C90.8607 56.062 90.483 57.0349 90.1462 57.6505C89.9303 58.0511 89.31 58.6092 88.4872 59.2389C87.0575 60.3409 84.9667 61.672 83.146 62.7591C82.3907 63.2172 81.6755 63.632 81.0826 63.9752C80.1248 64.5333 79.4912 64.8915 79.4912 64.8915H79.4897Z" fill="#FFB27D"/>
<path id="Vector_39" d="M95.519 42.4007C98.1162 41.6412 100.119 43.7922 100.119 43.7922C100.087 39.649 98.1422 39.082 98.1422 39.082C97.3602 38.738 96.4537 40.1751 95.519 42.4007Z" fill="#F99746"/>
<path id="Vector_40" d="M99.2282 127.613H108.205C108.205 127.613 108.42 126.162 107.951 125.061C107.502 124.004 106.798 123.524 106.967 122.245C106.397 122.868 105.467 123.566 104.169 123.381C104.01 123.655 103.142 125.118 102.611 125.523C102.024 125.97 99.4083 125.811 99.2275 127.613H99.2282Z" fill="#233862"/>
<path id="Vector_41" d="M79.9531 127.614H88.9302C88.9302 127.614 89.2656 126.095 88.6763 125.061C88.1545 124.146 88.3542 123.626 88.741 122.869C88.3345 123.046 87.8085 123.206 87.229 123.171C86.7817 123.144 86.3084 122.929 85.8942 122.673C85.5081 123.14 83.8534 125.13 83.3365 125.524C82.75 125.971 80.1339 125.812 79.9531 127.614V127.614Z" fill="#233862"/>
<path id="Vector_42" d="M59.833 94.1593C59.833 94.1593 63.4506 121.381 63.0328 124.742L65.3156 124.448C65.3156 124.448 68.1729 112.565 67.829 109.24C67.4851 105.914 70.6596 92.2098 67.7313 91.0055C64.8029 89.8006 59.833 94.1593 59.833 94.1593Z" fill="#F0995E"/>
<path id="Vector_43" d="M63.123 94.1923C63.123 94.1923 68.2835 121.439 68.062 124.821L70.3202 124.267C70.3202 124.267 72.5157 112.018 71.9798 108.722C71.444 105.426 73.8167 91.5399 70.8237 90.5289C67.8306 89.5179 63.123 94.1931 63.123 94.1931V94.1923Z" fill="#FFB27D"/>
<path id="Vector_44" d="M63.061 124.264C63.061 124.264 62.5187 125.321 61.485 125.566C60.8337 125.72 60.2782 126.083 59.9336 126.59C59.6424 127.018 59.9294 127.617 60.4273 127.614L65.6792 127.582C66.1264 127.579 66.4731 127.168 66.426 126.695C66.3845 126.283 66.3409 125.802 66.3212 125.434C66.2783 124.629 65.4562 123.906 65.4562 123.906C65.4562 123.906 64.7354 124.345 64.4569 124.397C63.8521 124.51 63.0602 124.263 63.0602 124.263L63.061 124.264Z" fill="#2C3A64"/>
<path id="Vector_45" d="M67.9994 124.264C67.9994 124.264 67.4572 125.321 66.4234 125.566C65.7722 125.72 65.2166 126.083 64.8721 126.59C64.5809 127.018 64.8678 127.617 65.3657 127.614L70.6176 127.582C71.0649 127.579 71.4116 127.168 71.3645 126.695C71.323 126.283 71.2794 125.802 71.2597 125.434C71.2168 124.629 70.3947 123.906 70.3947 123.906C70.3947 123.906 69.6739 124.345 69.3954 124.397C68.7906 124.51 67.9987 124.263 67.9987 124.263L67.9994 124.264Z" fill="#35488B"/>
<path id="Vector_46" d="M62.0597 70.5776C62.0597 70.5776 58.6278 76.7166 57.9351 81.7223C57.9351 81.7223 59.6046 84.1121 60.2832 82.4341C60.9626 80.7561 65.8354 71.7737 62.0597 70.5776Z" fill="#FFB27D"/>
<path id="Vector_47" d="M62.7139 59.6802C62.7504 59.6153 64.2863 57.039 67.157 56.5249C69.4827 56.1086 71.6593 57.8515 72.0172 60.3249C72.3766 62.8102 72.0102 66.0311 68.188 67.1914L62.7139 59.6802Z" fill="#ED7D2B"/>
<path id="Vector_48" d="M63.416 70.7546L67.741 73.4802L68.8831 70.254C68.8831 70.254 68.3332 69.0729 68.1876 67.1904C68.1271 66.3988 68.1285 65.4818 68.2572 64.4761L64.4962 66.2093C64.4962 66.2093 64.5616 66.5726 64.5883 67.1039C64.6165 67.6776 64.5982 68.4476 64.4013 69.1676C64.2318 69.7854 63.9322 70.3659 63.416 70.7554V70.7546Z" fill="#FFB27D"/>
<path id="Vector_49" d="M73.3575 99.5239C72.9538 94.6197 72.3511 88.1718 71.9721 85.5253C71.8469 84.6524 71.8398 83.7645 71.9531 82.8901L72.8434 75.9266L73.1233 73.7412C73.271 72.5848 72.6662 71.4671 71.6514 71.0164C70.7266 70.6068 70.0493 70.5121 68.8841 70.2547C68.1604 70.9478 66.7539 71.9431 65.2658 71.6342C64.1476 71.4014 63.9254 70.815 63.9859 70.1338C63.7018 70.1636 63.4423 70.1442 63.1996 70.18C62.2622 70.3151 61.4542 70.8672 60.9408 71.6559L60.9401 71.6521L60.9218 71.685C60.8416 71.8118 60.7678 71.9431 60.7031 72.0811L59.0589 75.0641C59.0589 75.0641 59.2178 76.1019 60.0259 76.5809C59.2178 86.0193 58.2825 107.33 59.0371 107.604C63.9233 109.373 72.5937 106.912 73.7682 105.722C73.8272 105.661 73.6416 102.975 73.3575 99.5246V99.5239Z" fill="#2C3A64"/>
<path id="Vector_50" d="M62.6769 70.7533C60.1445 72.9051 59.2943 78.3271 59.6262 82.0173C60.2605 80.3416 60.2204 77.8563 60.8351 75.218C61.4329 72.6529 63.1017 70.6533 63.1017 70.6533C63.0384 70.6533 62.6762 70.7533 62.6762 70.7533H62.6769Z" fill="#FFB93E"/>
<path id="Vector_51" d="M64.4014 69.1668C66.476 69.2481 68.1877 67.1903 68.1877 67.1903L64.5884 67.103C64.6166 67.6768 64.5983 68.4468 64.4014 69.1668Z" fill="#ED985F"/>
<path id="Vector_52" d="M63.4706 67.8744C63.4706 67.8744 67.5326 69.3106 69.167 65.9211C70.9307 62.2629 69.4075 59.409 68.0157 59.1292C65.24 58.5718 63.5472 59.594 62.9839 60.7572C62.4206 61.9204 61.2286 67.1036 63.4713 67.8744H63.4706Z" fill="#FFB27D"/>
<path id="Vector_53" d="M65.2258 66.0227C65.2258 66.0227 65.0261 66.4629 63.9515 66.1354C63.9515 66.1354 63.0492 65.8608 63.1836 65.3564C63.1836 65.3564 64.1463 65.2012 65.2258 66.0219V66.0227Z" fill="white"/>
<path id="Vector_54" d="M73.3574 99.524C73.2287 99.3659 65.0069 89.1889 64.7102 83.7744C64.4127 78.3173 68.8355 74.3301 68.8355 74.3301C70.5978 74.207 71.8995 74.8188 72.8433 75.9267L71.953 82.8902C71.8398 83.7647 71.8468 84.6518 71.972 85.5255C72.351 88.1719 72.9537 94.6198 73.3574 99.524Z" fill="#232E4F"/>
<path id="Vector_55" d="M70.1274 70.4037C66.204 71.3632 65.1491 78.2416 66.9515 83.5076C68.2891 87.4158 72.4137 89.2773 72.4137 89.2773C72.8617 88.7431 72.5157 87.5411 72.5157 87.5411C66.467 83.4509 67.4839 77.6693 68.8834 74.7528C70.2828 71.8362 70.5641 70.7536 72.6296 71.537C72.3715 70.3119 70.1274 70.4044 70.1274 70.4044V70.4037Z" fill="#FFB93E"/>
<path id="Vector_56" d="M66.3166 59.5317C66.3166 59.5317 65.9312 63.5749 69.5466 65.0074C70.9841 65.5767 71.7324 59.4018 68.7288 58.1693C65.7252 56.9359 62.763 58.4006 62.4086 60.5561C62.0549 62.7116 62.3242 63.1608 62.3242 63.1608C62.3242 63.1608 63.73 59.0601 66.3166 59.5317Z" fill="#ED7D2B"/>
<path id="Vector_57" d="M68.5112 72.7572C68.5112 72.7572 66.853 79.7139 66.789 82.4812C66.789 82.4812 63.1503 89.2231 62.9365 89.7029C62.7227 90.1826 64.2502 90.8377 64.2502 90.8377C64.2502 90.8377 68.815 85.6731 69.6948 83.5027C70.5746 81.3322 73.6963 74.2747 72.4467 72.1677C71.1977 70.0614 68.5112 72.7572 68.5112 72.7572Z" fill="#FFB27D"/>
<path id="Vector_58" d="M57.9357 81.7224C57.9357 81.7224 57.6101 86.4617 60.7888 90.1953C60.7888 90.1953 61.6566 89.0873 61.5469 88.7434C61.4372 88.3994 60.1931 83.1177 59.2845 82.3663C58.3759 81.615 57.9357 81.7232 57.9357 81.7232V81.7224Z" fill="#FFB27D"/>
<path id="Vector_59" d="M62.9368 89.7027C62.9368 89.7027 60.9022 89.687 60.7883 90.1944C60.6744 90.7017 61.3115 92.2902 62.7996 91.7366C64.2877 91.183 64.2504 90.8375 64.2504 90.8375L62.9368 89.7027Z" fill="#FFB27D"/>
<path id="Vector_60" d="M61.5468 88.7427C61.5468 88.7427 63.1812 89.544 62.6263 90.3983C62.0707 91.2526 60.9603 90.7415 60.7887 90.1954C60.6171 89.6485 61.5468 88.7434 61.5468 88.7434V88.7427Z" fill="#FFB27D"/>
<path id="Vector_61" d="M67.3144 76.4281C67.3144 76.4281 69.448 78.5336 72.7379 78.2076C72.7379 78.2076 74.3589 72.1118 71.7589 71.3635C69.159 70.6151 67.0106 74.2278 67.3144 76.4281Z" fill="#2C3A64"/>
</g>
</svg>
