<svg width="208" height="208" viewBox="0 0 208 208" fill="none" xmlns="http://www.w3.org/2000/svg">
<g id="Vector Art" clip-path="url(#clip0_1926_11847)">
<path id="Vector" d="M172.397 178.743C168.393 183.218 164.604 186.105 161.611 188.385C126.424 215.19 84.7891 207.375 75.9407 205.468C62.8739 202.65 37.6164 197.203 19.3555 174.404C-8.27212 139.911 -3.97005 85.5672 17.4593 49.6944C21.3791 43.1326 42.0846 6.71357 84.1681 0.872694C109.637 -2.66184 139.325 4.46725 160.824 23.5909C205.952 63.7328 202.741 144.827 172.397 178.743Z" fill="#A9E8B7"/>
<path id="Intersect" fill-rule="evenodd" clip-rule="evenodd" d="M162.856 36.7361C163.916 37.6461 164.948 38.5776 165.953 39.5297C177.91 77.942 75.1747 63.2749 43.8223 32.4914C44.836 31.6972 45.8819 30.9112 46.9604 30.1372C61.4019 36.3249 91.2613 45.2211 126.1 46.1501C152.457 46.853 161.299 41.8557 162.856 36.7361Z" fill="#D4F3DB"/>
<path id="Vector_2" d="M200.735 208H1.48748C0.666 208 0 207.224 0 206.267C0 205.309 0.666 204.533 1.48748 204.533H200.735C201.556 204.533 202.222 205.309 202.222 206.267C202.222 207.224 201.556 208 200.735 208Z" fill="#F0806A"/>
<path id="Vector_3" d="M145.713 199.642H123.908V176.32C123.908 173.985 121.508 172.431 119.341 173.338C116.973 174.33 113.755 175.274 109.86 175.451C101.132 175.848 94.4871 168.709 95.8114 158.795C97.1357 148.88 105.632 146.501 109.776 147.691C111.938 148.312 115.695 150.694 118.791 152.828C120.953 154.319 123.908 152.781 123.908 150.169V123.5H148.809C150.585 123.5 151.766 125.311 151.051 126.925C148.798 132.019 145.864 141.295 152.756 144.121C162.424 148.087 173.456 144.915 174.255 137.777C174.693 133.867 172.888 129.957 171.167 127.22C170.148 125.6 171.302 123.5 173.228 123.5H197.23C197.23 123.5 197.803 171.805 197.785 174.708L197.66 195.46C197.646 197.774 195.752 199.643 193.42 199.643H176.385C173.6 199.643 148.366 199.642 145.713 199.642Z" fill="url(#paint0_linear_1926_11847)"/>
<path id="Vector_4" d="M77.1487 199.643H59.0291C56.1725 199.643 53.8572 197.329 53.8572 194.474V177.346C53.8572 174.821 53.9072 151.369 53.9072 148.801V122.923H77.8123C79.7822 122.923 80.9385 120.684 79.7732 119.095C74.1781 111.468 79.0603 100.613 83.2379 98.7756C88.1888 96.5983 98.2881 96.0045 101.259 107.089C102.806 112.862 101.387 117.078 99.6709 119.793C98.6488 121.41 99.78 123.517 101.694 123.517H124.429V150.138C124.429 152.746 121.5 154.28 119.357 152.792C116.287 150.661 112.564 148.284 110.421 147.664C106.315 146.476 97.8928 148.852 96.5794 158.748C95.2668 168.644 101.853 175.77 110.504 175.374C114.366 175.197 117.555 174.255 119.902 173.265C122.049 172.359 124.429 173.911 124.429 176.241V199.521H103.241C100.524 199.521 79.9872 199.643 77.1487 199.643Z" fill="#B8A8E9"/>
<path id="Vector_5" d="M37.4001 60.0132C37.4001 60.0132 34.1756 61.5805 33.5832 63.3814C33.1077 64.826 29.5423 65.0127 29.1903 67.8543C29.0088 69.3212 27.9223 70.4965 26.46 70.7204C22.8187 71.2783 17.2076 73.1685 16.3094 79.4877C15.624 84.3109 18.0842 86.1401 20.6658 86.7731C22.562 87.2381 23.8218 89.0814 23.4386 90.9953C23.071 92.8305 23.6194 94.9527 26.8 96.6302C33.9285 100.39 41.0473 87.7231 41.0473 87.7231L42.5059 65.6056L37.3994 60.0132H37.4001Z" fill="url(#paint1_linear_1926_11847)"/>
<path id="Vector_6" d="M8.10049 198.697L7.6391 202.488C7.55129 203.207 6.98497 203.776 6.26535 203.858C5.04936 203.997 3.09887 204.14 1.19006 203.938C0.352112 203.849 -0.191882 203.001 0.0633706 202.199C0.528482 200.736 1.37982 198.539 2.60697 197.246H6.81381C7.59147 197.246 8.19426 197.926 8.10049 198.698V198.697Z" fill="url(#paint2_linear_1926_11847)"/>
<path id="Vector_7" d="M41.0481 154.294L41.7581 158.469C41.7581 158.469 39.3804 182.543 38.9577 192.172C38.8915 193.682 39.2822 195.174 40.0747 196.46L44.2094 203.172L33.7016 196.974L33.4925 195.692L35.2123 193.328L32.9589 166.359C32.8264 164.775 33.1539 163.186 33.901 161.783L36.074 157.701L41.0474 154.293L41.0481 154.294Z" fill="url(#paint3_linear_1926_11847)"/>
<path id="Vector_8" d="M44.9009 204.144H41.5476C40.9203 204.144 40.3279 203.856 39.9454 203.358C38.8998 202.001 36.7343 199.352 35.6984 199.283C34.3045 199.19 34.4824 204.144 34.4824 204.144H33.701L32.7112 197.988C32.4619 196.439 33.2329 194.904 34.6245 194.178C34.6245 194.178 34.943 196.534 36.671 197.576C38.399 198.618 43.7027 202.35 43.7027 202.35C43.7027 202.35 44.3524 202.258 45.0653 202.387C46.1236 202.578 45.9755 204.144 44.9001 204.144H44.9009Z" fill="url(#paint4_linear_1926_11847)"/>
<path id="Vector_9" d="M26.6557 156.277C26.6557 156.277 12.7262 182.688 10.5122 188.718C8.29831 194.748 7.52213 199.779 7.49236 200.255C7.44622 201 6.51972 201.713 3.96645 201.713C2.64925 201.713 2.0033 201.185 1.68777 200.674C1.41838 200.238 1.40424 199.693 1.63122 199.233C2.43716 197.603 4.99416 192.394 5.94075 190.031C7.07116 187.211 9.50313 174.427 10.8374 169.983C12.171 165.538 13.6787 160.717 19.4878 156.276C19.4878 156.276 23.4751 152.372 26.6549 156.276L26.6557 156.277Z" fill="url(#paint5_linear_1926_11847)"/>
<path id="Vector_10" d="M35.4557 113C39.0486 97.7815 29.9465 89.1734 29.9465 89.1734C35.6901 83.6629 46.1547 81.1553 46.1547 81.1553C46.1547 81.1553 56.1401 88.4526 54.9554 94.1641C54.2611 97.5115 47.9363 114.216 47.9363 114.216C47.9363 114.216 42.0878 116.982 35.4557 113Z" fill="url(#paint6_linear_1926_11847)"/>
<path id="Vector_11" d="M27.4891 120.535C28.9514 116.131 35.4555 113 35.4555 113C42.0876 116.982 47.9361 114.216 47.9361 114.216C47.9361 114.216 49.2474 119.227 48.3424 123.884C47.4375 128.541 41.758 158.47 41.758 158.47C32.8092 160.282 19.0464 156.646 19.0464 156.646C24.746 146.53 26.0268 124.94 27.4891 120.536V120.535Z" fill="url(#paint7_linear_1926_11847)"/>
<path id="Vector_12" d="M39.6261 71.0978L36.7045 84.2144C36.4247 85.3696 37.4784 85.1807 38.6468 84.9605C40.5608 84.5997 43.027 83.8574 43.8516 82.3689C43.9357 82.2171 43.9773 82.046 44.0012 81.875L45.2558 72.7797C45.3556 72.0581 44.9649 71.3574 44.2988 71.0628L41.8773 69.9894C40.9448 69.5758 39.8658 70.1077 39.6254 71.0993L39.6261 71.0978Z" fill="url(#paint8_linear_1926_11847)"/>
<path id="Vector_13" d="M28.3309 93.2249C28.3309 93.2249 55.0521 125.84 75.0161 88.7036C75.0161 88.7036 75.3994 87.7544 75.1598 86.3842C75.0385 85.6924 75.4969 83.2377 75.7484 81.9835C75.8295 81.5803 75.543 81.1995 75.133 81.16C74.8122 81.1295 74.4975 81.2634 74.2988 81.5171L70.6523 86.1588C70.3807 87.0783 70.8182 88.0579 71.6845 88.4686C72.2374 88.7304 72.4115 89.4319 72.0402 89.9184C56.8575 109.812 31.4631 87.9821 30.9988 88.2387C29.3497 89.1484 27.4453 90.1542 28.3309 93.2249Z" fill="url(#paint9_linear_1926_11847)"/>
<path id="Vector_14" d="M43.0535 58.6094C43.0535 58.6094 46.5132 60.0697 48.8655 65.067C51.2179 70.0643 49.4616 72.3718 47.2544 72.6886C45.0479 73.0055 41.7475 72.9572 38.2573 69.7288C34.7671 66.5004 38.5557 56.8785 43.0535 58.6094Z" fill="url(#paint10_linear_1926_11847)"/>
<path id="Vector_15" d="M40.6038 67.0606C40.6038 67.0606 37.9933 59.7491 44.4788 59.6628L46.0051 60.7288C46.0051 60.7288 48.3842 56.6754 44.4788 54.7399C40.5733 52.8051 36.0026 54.4029 34.3408 59.6628C32.6791 64.922 32.3948 68.4427 35.1602 70.9592C37.9248 73.4757 39.0649 70.6222 39.0649 70.6222C39.0649 70.6222 37.5594 68.2686 38.1719 67.0093C38.7851 65.7499 40.1983 67.2696 40.1983 67.2696L40.6038 67.0606Z" fill="url(#paint11_linear_1926_11847)"/>
<path id="Vector_16" d="M39.8767 67.8752C39.8767 67.8752 38.5572 64.109 36.7965 65.6087C35.0358 67.1083 38.2276 69.0878 39.477 69.729L39.8774 67.8752H39.8767Z" fill="url(#paint12_linear_1926_11847)"/>
<path id="Vector_17" d="M80.9538 60.8574C80.9538 60.8574 62.7133 80.2568 45.272 81.3198C45.272 81.3198 46.7306 91.1627 49.0264 92.7002C49.0264 92.7002 72.7627 79.5918 81.1912 64.1602L80.9538 60.8582V60.8574Z" fill="url(#paint13_linear_1926_11847)"/>
<path id="Vector_18" d="M103.242 95.0821C104.79 92.642 106.071 88.853 104.675 83.6645C101.995 73.7028 92.8837 74.2362 88.417 76.1935C84.6485 77.8446 80.2438 87.6007 85.2917 94.4555C86.343 95.8829 85.3001 97.8951 83.5226 97.8951H61.9562L61.2858 28.4902C61.2725 27.11 62.3991 25.9876 63.7853 26.0001L123.125 26.5384C124.623 26.5523 125.83 27.765 125.83 29.257V48.39C125.83 50.8065 128.631 52.1741 130.536 50.6773C132.162 49.3993 134.205 48.3872 136.655 48.2657C143.801 47.9101 150.59 53.2466 151.305 60.3619C152.02 67.4772 145.23 74.9488 138.442 73.8813C135.223 73.3749 132.164 72.092 129.838 70.8828C127.896 69.8735 125.578 71.2759 125.578 73.4562V98.4286H105.067C103.341 98.4286 102.321 96.5351 103.242 95.0814V95.0821Z" fill="url(#paint14_linear_1926_11847)"/>
<path id="Vector_19" d="M173.2 198.843C173.2 198.843 173.771 201.903 174.066 204.934C174.181 206.119 173.276 207.156 172.087 207.217C168.047 207.424 159.404 207.834 156.3 207.725C155.833 207.708 155.524 207.234 155.692 206.799C155.833 206.434 156.109 206.137 156.463 205.971L170.682 199.274L173.2 198.842V198.843Z" fill="url(#paint15_linear_1926_11847)"/>
<path id="Vector_20" d="M173.626 197.038L173.226 200.709C173.226 200.709 170.735 201.897 169.015 200.602L170.012 196.507L173.626 197.039V197.038Z" fill="url(#paint16_linear_1926_11847)"/>
<path id="Vector_21" d="M172.641 128.12C172.838 129.076 174.106 175.884 169.3 196.912C169.222 197.255 169.398 197.606 169.726 197.736C170.497 198.043 172.006 198.482 173.811 198.525C174.37 198.539 174.867 198.171 175.02 197.634C176.405 192.752 183.029 168.298 183.701 144.991C184.452 118.949 183.693 144.105 183.693 144.105L182.953 128.019L172.642 128.119L172.641 128.12Z" fill="url(#paint17_linear_1926_11847)"/>
<path id="Vector_22" d="M189.643 200.285C189.643 200.285 190.52 201.824 191.394 205.927C191.552 206.668 191.04 207.384 190.286 207.466C188.953 207.609 186.899 207.798 185.254 207.802C184.495 207.804 183.897 207.15 183.981 206.395C184.149 204.893 184.693 202.425 186.429 200.49L189.643 200.285Z" fill="url(#paint18_linear_1926_11847)"/>
<path id="Vector_23" d="M190.356 195.563L189.392 201.117C189.392 201.117 188.394 201.874 186.4 201.351L186.828 195.382L190.356 195.563Z" fill="url(#paint19_linear_1926_11847)"/>
<path id="Vector_24" d="M192.471 129.367C196.801 154.029 192.165 190.426 190.553 197.557C190.454 197.994 190.106 198.331 189.664 198.408C188.916 198.54 187.681 198.653 186.461 198.311C186.04 198.193 185.742 197.817 185.72 197.381C185.44 191.632 185.509 156.317 181.56 142.398C181.36 141.693 180.922 141.08 180.32 140.661L172.865 135.47L172.216 126.97L192.471 129.368V129.367Z" fill="url(#paint20_linear_1926_11847)"/>
<path id="Vector_25" d="M165.933 82.813C178.202 82.4931 191.774 85.7877 191.774 85.7877C195.636 107.086 192.852 131.722 192.852 131.722C183.377 134.302 172.622 130.392 172.622 130.392C170.958 121.49 163.352 96.4652 163.352 96.4652C157.349 95.7786 152.394 94.0967 148.304 91.8495C151.373 88.2253 152.792 83.6372 153.401 80.9272C157.752 82.2335 162.149 82.9119 165.933 82.813Z" fill="url(#paint21_linear_1926_11847)"/>
<path id="Vector_26" d="M129.515 65.0915C130.707 63.6246 132.239 64.2986 132.239 64.2986C134.117 71.9061 143.645 77.9977 153.401 80.927C152.792 83.637 151.373 88.2251 148.305 91.8493C132.075 82.9303 129.516 65.0915 129.516 65.0915H129.515Z" fill="url(#paint22_linear_1926_11847)"/>
<path id="Vector_27" d="M129.812 65.4592C129.69 65.8608 131.156 66.4574 132 64.8105C132.023 64.0242 132.468 60.6545 131.993 60.0185C129.459 56.6339 124.569 52.4072 124.569 52.4072C123.757 53.2233 124.44 54.011 124.44 54.011L126.816 56.4383C126.333 57.3316 125.74 58.0882 125.469 59.1653C125.263 59.9813 125.402 60.8501 125.821 61.5873C126.24 62.3267 126.813 63.2885 127.353 64.0399C128.375 65.4621 129.812 65.4592 129.812 65.4592H129.812Z" fill="url(#paint23_linear_1926_11847)"/>
<path id="Vector_28" d="M127.86 58.0176L130.021 59.814L130.711 61.6164L128.82 63.7543C128.82 63.7543 128.143 60.1718 127.659 59.3997C127.174 58.6276 127.418 58.2497 127.86 58.0183L127.86 58.0176Z" fill="url(#paint24_linear_1926_11847)"/>
<path id="Vector_29" d="M187.181 97.7088L191.774 85.7876C191.774 85.7876 203.31 93.4628 205.289 103.315C203.125 103.495 199.19 104.096 195.351 106.079C194.458 101.427 187.181 97.7088 187.181 97.7088Z" fill="url(#paint25_linear_1926_11847)"/>
<path id="Vector_30" d="M177.272 108.98C177.272 108.98 190.209 116.127 194.492 109.878C195.381 108.581 195.584 107.297 195.351 106.078C199.189 104.094 203.125 103.494 205.289 103.314C205.886 106.284 205.616 109.452 203.897 112.667C196.424 126.646 175.599 112.168 175.599 112.168L177.272 108.981V108.98Z" fill="url(#paint26_linear_1926_11847)"/>
<path id="Vector_31" d="M178.267 72.7363L182.279 83.9859C182.345 84.1718 182.271 84.3801 182.098 84.4776C181.039 85.0756 177.222 86.8126 172.573 83.9286C172.088 83.6281 171.756 83.1334 171.677 82.5695L170.32 72.8129L178.267 72.7371V72.7363Z" fill="url(#paint27_linear_1926_11847)"/>
<path id="Vector_32" d="M179.916 120.275L172.868 95.6728C172.787 95.3938 172.549 95.19 172.26 95.1558C170.983 95.007 167.283 94.589 163.011 94.2274C157.865 93.7923 151.889 93.4397 148.318 93.7395C147.81 93.7819 147.504 94.3189 147.729 94.7757C149.76 98.8826 158.113 115.587 162.296 121.06C162.434 121.241 162.649 121.347 162.877 121.344L179.229 121.193C179.704 121.188 180.045 120.732 179.914 120.275H179.916Z" fill="url(#paint28_linear_1926_11847)"/>
<path id="Vector_33" d="M178.213 114.331C178.213 114.331 179.194 110.295 178.798 108.864C178.403 107.432 177.635 105.592 175.078 106.001C172.52 106.41 169.503 107.487 169.503 107.487C169.503 107.487 169.655 109.352 171.599 108.75L170.394 109.682C170.394 109.682 170.566 111.175 172.208 110.378L171.087 111.614C171.087 111.614 171.792 112.841 173 112.054C174.208 111.267 174.787 114.817 178.213 114.331Z" fill="url(#paint29_linear_1926_11847)"/>
<path id="Vector_34" d="M163.481 101.572C163.481 102.714 162.555 103.64 161.413 103.64C160.27 103.64 159.344 102.714 159.344 101.572C159.344 100.43 160.27 99.5039 161.413 99.5039C162.555 99.5039 163.481 100.43 163.481 101.572Z" fill="#91B3FA"/>
<path id="Vector_35" d="M172.052 102.941L170.617 98.0749C170.443 97.4843 169.967 97.0409 169.377 96.9174C164.882 95.9802 152.572 95.7808 152.449 95.7793L152.458 95.1909C152.966 95.1984 164.947 95.3925 169.498 96.3417C170.3 96.5098 170.945 97.1101 171.182 97.9083L172.617 102.774L172.053 102.941H172.052Z" fill="#BDD0FB"/>
<path id="Vector_36" d="M169.923 60.1513C169.791 60.3083 165.067 73.0143 165.067 73.0143L172.382 75.5561L178.65 64.1779C178.65 64.1779 172.136 57.5262 169.923 60.1506L169.923 60.1513Z" fill="url(#paint30_linear_1926_11847)"/>
<path id="Vector_37" d="M175.618 64.8237C175.779 65.1287 175.789 65.4895 175.647 65.8034L172.858 71.9611C172.815 72.0548 172.762 72.1411 172.695 72.2185C172.329 72.6485 171.05 73.9249 169.786 72.5354C168.71 71.3511 167.704 70.277 166.715 69.9006C166.138 69.6804 165.494 69.9839 165.281 70.5634C164.842 71.7573 164.006 74.1838 163.565 76.4444C163.455 77.0113 163.805 77.5647 164.361 77.7187C165.83 78.1248 168.722 78.8315 171.222 78.8865C171.633 78.8955 172.013 78.679 172.215 78.3219C173.106 76.7502 175.621 72.3539 176.522 71.2217C177.359 70.1699 179.146 70.3231 179.959 70.4585C180.268 70.5098 180.582 70.4317 180.829 70.2405C181.571 69.6678 182.826 68.3095 181.317 66.4304C180.942 65.9633 181.026 65.2737 181.485 64.8892C182.308 64.2003 183.148 62.9878 182.021 61.3134C180.879 59.6181 179.195 59.6486 178.077 59.9186C177.582 60.0384 177.041 59.8338 176.795 59.389C176.686 59.1911 176.495 59.0334 176.173 59.0059C175.564 58.9538 175.111 58.4554 175.159 57.8469C175.241 56.8033 174.937 55.4948 173.203 54.7882C170.023 53.4908 167.715 56.4708 167.311 58.808C166.907 61.1453 170.434 62.3555 172.567 62.3786C174.134 62.3957 175.176 63.9824 175.619 64.8237H175.618Z" fill="url(#paint31_linear_1926_11847)"/>
<path id="Vector_38" d="M175.469 73.4868C175.469 73.4868 176.348 69.4453 178.066 69.391C179.784 69.3367 181.32 70.8765 179.432 73.0256C177.083 75.6983 175.469 73.4875 175.469 73.4875V73.4868Z" fill="url(#paint32_linear_1926_11847)"/>
</g>
<defs>
<linearGradient id="paint0_linear_1926_11847" x1="95.6025" y1="220.783" x2="229.724" y2="94.6036" gradientUnits="userSpaceOnUse">
<stop stop-color="#00BB29"/>
<stop offset="1" stop-color="#00BB29"/>
</linearGradient>
<linearGradient id="paint1_linear_1926_11847" x1="43.0708" y1="47.113" x2="33.5142" y2="71.0966" gradientUnits="userSpaceOnUse">
<stop stop-color="#09005D"/>
<stop offset="1" stop-color="#1A0F91"/>
</linearGradient>
<linearGradient id="paint2_linear_1926_11847" x1="8.10942" y1="200.642" x2="0.000115038" y2="200.642" gradientUnits="userSpaceOnUse">
<stop stop-color="#09005D"/>
<stop offset="1" stop-color="#1A0F91"/>
</linearGradient>
<linearGradient id="paint3_linear_1926_11847" x1="42.378" y1="232.609" x2="30.7166" y2="96.2641" gradientUnits="userSpaceOnUse">
<stop stop-color="#FEBBBA"/>
<stop offset="1" stop-color="#FF928E"/>
</linearGradient>
<linearGradient id="paint4_linear_1926_11847" x1="45.7872" y1="199.161" x2="32.6651" y2="199.161" gradientUnits="userSpaceOnUse">
<stop stop-color="#09005D"/>
<stop offset="1" stop-color="#1A0F91"/>
</linearGradient>
<linearGradient id="paint5_linear_1926_11847" x1="18.9014" y1="234.638" x2="7.2378" y2="98.2572" gradientUnits="userSpaceOnUse">
<stop stop-color="#FEBBBA"/>
<stop offset="1" stop-color="#FF928E"/>
</linearGradient>
<linearGradient id="paint6_linear_1926_11847" x1="96.997" y1="-20.1731" x2="81.977" y2="11.3829" gradientUnits="userSpaceOnUse">
<stop stop-color="#FF928E"/>
<stop offset="1" stop-color="#FE7062"/>
</linearGradient>
<linearGradient id="paint7_linear_1926_11847" x1="51.2834" y1="81.6687" x2="11.0408" y2="221.457" gradientUnits="userSpaceOnUse">
<stop stop-color="#09005D"/>
<stop offset="1" stop-color="#1A0F91"/>
</linearGradient>
<linearGradient id="paint8_linear_1926_11847" x1="43.6581" y1="98.2148" x2="41.4675" y2="82.1827" gradientUnits="userSpaceOnUse">
<stop stop-color="#FEBBBA"/>
<stop offset="1" stop-color="#FF928E"/>
</linearGradient>
<linearGradient id="paint9_linear_1926_11847" x1="48.1268" y1="79.6507" x2="60.5333" y2="104.49" gradientUnits="userSpaceOnUse">
<stop stop-color="#FEBBBA"/>
<stop offset="1" stop-color="#FF928E"/>
</linearGradient>
<linearGradient id="paint10_linear_1926_11847" x1="49.1907" y1="77.5446" x2="30.0752" y2="43.511" gradientUnits="userSpaceOnUse">
<stop stop-color="#FEBBBA"/>
<stop offset="1" stop-color="#FF928E"/>
</linearGradient>
<linearGradient id="paint11_linear_1926_11847" x1="45.0778" y1="47.9126" x2="35.5205" y2="71.8962" gradientUnits="userSpaceOnUse">
<stop stop-color="#09005D"/>
<stop offset="1" stop-color="#1A0F91"/>
</linearGradient>
<linearGradient id="paint12_linear_1926_11847" x1="45.1194" y1="79.8322" x2="26.0039" y2="45.7979" gradientUnits="userSpaceOnUse">
<stop stop-color="#FEBBBA"/>
<stop offset="1" stop-color="#FF928E"/>
</linearGradient>
<linearGradient id="paint13_linear_1926_11847" x1="68.5014" y1="69.2726" x2="36.5009" y2="99.3293" gradientUnits="userSpaceOnUse">
<stop stop-color="#FEBBBA"/>
<stop offset="1" stop-color="#FF928E"/>
</linearGradient>
<linearGradient id="paint14_linear_1926_11847" x1="58.2491" y1="114.741" x2="171.535" y2="-47.5932" gradientUnits="userSpaceOnUse">
<stop stop-color="#00BB29"/>
<stop offset="1" stop-color="#00BB29"/>
</linearGradient>
<linearGradient id="paint15_linear_1926_11847" x1="156.646" y1="194.703" x2="209.452" y2="251.09" gradientUnits="userSpaceOnUse">
<stop stop-color="#09005D"/>
<stop offset="1" stop-color="#1A0F91"/>
</linearGradient>
<linearGradient id="paint16_linear_1926_11847" x1="173.659" y1="198.765" x2="169.014" y2="198.809" gradientUnits="userSpaceOnUse">
<stop stop-color="#FEBBBA"/>
<stop offset="1" stop-color="#FF928E"/>
</linearGradient>
<linearGradient id="paint17_linear_1926_11847" x1="151.919" y1="130.438" x2="196.963" y2="190.326" gradientUnits="userSpaceOnUse">
<stop stop-color="#09005D"/>
<stop offset="1" stop-color="#1A0F91"/>
</linearGradient>
<linearGradient id="paint18_linear_1926_11847" x1="168.275" y1="183.81" x2="221.084" y2="240.198" gradientUnits="userSpaceOnUse">
<stop stop-color="#09005D"/>
<stop offset="1" stop-color="#1A0F91"/>
</linearGradient>
<linearGradient id="paint19_linear_1926_11847" x1="190.398" y1="198.369" x2="186.388" y2="198.407" gradientUnits="userSpaceOnUse">
<stop stop-color="#FEBBBA"/>
<stop offset="1" stop-color="#FF928E"/>
</linearGradient>
<linearGradient id="paint20_linear_1926_11847" x1="159.795" y1="124.515" x2="204.839" y2="184.401" gradientUnits="userSpaceOnUse">
<stop stop-color="#09005D"/>
<stop offset="1" stop-color="#1A0F91"/>
</linearGradient>
<linearGradient id="paint21_linear_1926_11847" x1="189.275" y1="22.4926" x2="182.517" y2="54.7962" gradientUnits="userSpaceOnUse">
<stop stop-color="#FF928E"/>
<stop offset="1" stop-color="#FE7062"/>
</linearGradient>
<linearGradient id="paint22_linear_1926_11847" x1="153.398" y1="77.8109" x2="129.665" y2="78.0346" gradientUnits="userSpaceOnUse">
<stop stop-color="#FEBBBA"/>
<stop offset="1" stop-color="#FF928E"/>
</linearGradient>
<linearGradient id="paint23_linear_1926_11847" x1="134.884" y1="74.063" x2="151.138" y2="110.134" gradientUnits="userSpaceOnUse">
<stop stop-color="#FEBBBA"/>
<stop offset="1" stop-color="#FF928E"/>
</linearGradient>
<linearGradient id="paint24_linear_1926_11847" x1="129.628" y1="61.9965" x2="122.891" y2="51.8444" gradientUnits="userSpaceOnUse">
<stop stop-color="#FEBBBA"/>
<stop offset="1" stop-color="#FF928E"/>
</linearGradient>
<linearGradient id="paint25_linear_1926_11847" x1="211.594" y1="27.1618" x2="204.835" y2="59.4654" gradientUnits="userSpaceOnUse">
<stop stop-color="#FF928E"/>
<stop offset="1" stop-color="#FE7062"/>
</linearGradient>
<linearGradient id="paint26_linear_1926_11847" x1="205.645" y1="110.92" x2="175.612" y2="111.203" gradientUnits="userSpaceOnUse">
<stop stop-color="#FEBBBA"/>
<stop offset="1" stop-color="#FF928E"/>
</linearGradient>
<linearGradient id="paint27_linear_1926_11847" x1="182.28" y1="79.0452" x2="170.406" y2="79.1571" gradientUnits="userSpaceOnUse">
<stop stop-color="#FEBBBA"/>
<stop offset="1" stop-color="#FF928E"/>
</linearGradient>
<linearGradient id="paint28_linear_1926_11847" x1="167.537" y1="91.8991" x2="150.978" y2="160.925" gradientUnits="userSpaceOnUse">
<stop stop-color="#09005D"/>
<stop offset="1" stop-color="#1A0F91"/>
</linearGradient>
<linearGradient id="paint29_linear_1926_11847" x1="178.892" y1="110.16" x2="169.503" y2="110.16" gradientUnits="userSpaceOnUse">
<stop stop-color="#FEBBBA"/>
<stop offset="1" stop-color="#FF928E"/>
</linearGradient>
<linearGradient id="paint30_linear_1926_11847" x1="172.185" y1="62.1971" x2="170.816" y2="87.9519" gradientUnits="userSpaceOnUse">
<stop stop-color="#FEBBBA"/>
<stop offset="1" stop-color="#FF928E"/>
</linearGradient>
<linearGradient id="paint31_linear_1926_11847" x1="178.084" y1="73.6301" x2="163.88" y2="61.6507" gradientUnits="userSpaceOnUse">
<stop stop-color="#09005D"/>
<stop offset="1" stop-color="#1A0F91"/>
</linearGradient>
<linearGradient id="paint32_linear_1926_11847" x1="179.103" y1="89.3355" x2="177.815" y2="71.5103" gradientUnits="userSpaceOnUse">
<stop stop-color="#FEBBBA"/>
<stop offset="1" stop-color="#FF928E"/>
</linearGradient>
<clipPath id="clip0_1926_11847">
<rect width="208" height="208" fill="white"/>
</clipPath>
</defs>
</svg>
