<svg width="129" height="128" viewBox="0 0 129 128" fill="none" xmlns="http://www.w3.org/2000/svg">
<g id="Vector Art">
<path id="Vector" d="M11.4347 128C1.49242 116.013 0.80705 96.4503 10.7494 77.5323C20.6917 58.6151 -7.92874 34.2012 19.7872 10.2332C35.7525 -3.57336 79.1964 -8.56491 111.938 29.0617C139.625 60.8799 129.145 113.168 109.67 127.999H11.4347V128Z" fill="#A9E8B7"/>
<path id="Vector_2" d="M128.021 128H1.84044C1.3202 128 0.898438 127.522 0.898438 126.933C0.898438 126.344 1.3202 125.867 1.84044 125.867H128.021C128.541 125.867 128.963 126.344 128.963 126.933C128.963 127.522 128.541 128 128.021 128Z" fill="#F0806A"/>
<path id="Intersect" fill-rule="evenodd" clip-rule="evenodd" d="M16.8667 12.9667C17.7623 12.0551 18.734 11.1439 19.787 10.2333C21.0957 9.10151 22.589 8.02899 24.246 7.03433C27.5921 7.09361 39.6461 6.86304 41.4199 6.80002C41.8058 6.78626 42.1945 6.76955 42.5849 6.75277C46.2625 6.59464 50.0936 6.42991 53.1977 8.66664C53.6435 8.98823 54.0932 9.39781 54.2393 9.98943C54.6016 11.4495 53.0207 12.4469 51.7712 12.8193C51.5739 13.8319 52.7066 14.4068 53.5735 14.5873C56.3677 15.1714 59.1197 16.0368 61.7889 17.1722C63.6815 17.977 65.7836 19.2626 66.1564 21.5957C66.4185 23.237 65.6714 24.9337 64.5687 25.9812C63.4661 27.0287 62.063 27.5262 60.6742 27.844C57.897 28.4791 55.0646 28.4853 52.2285 28.4915C50.2344 28.4958 48.2386 28.5002 46.2589 28.7231C45.6195 28.7952 44.9507 28.9036 44.4303 29.3481C43.9072 29.7948 43.6271 30.4896 43.3446 31.1904C43.1825 31.5925 43.0195 31.9966 42.8095 32.357C41.6662 34.3192 39.3736 34.6779 37.3589 34.8069C32.8724 35.0958 28.3746 35.1391 23.8843 34.9366C23.8506 34.935 23.8168 34.9335 23.7831 34.932C22.6844 34.8823 21.5674 34.8317 20.5072 35.1717C19.6854 35.4349 18.9357 35.9202 18.1858 36.4057C17.8877 36.5987 17.5895 36.7917 17.2867 36.9708C14.7561 38.4673 11.904 38.9868 9.10601 39.4912L9.10305 39.4918C8.60006 39.5824 8.09633 39.6732 7.59198 39.7608C7.14914 35.8512 7.18723 31.8852 8.15332 27.8907C8.88334 27.7592 9.61913 27.6325 9.88477 27.5922L9.88402 27.5945C11.4607 27.3552 13.0516 27.3606 14.6432 27.3659C15.9126 27.3702 17.1824 27.3745 18.4458 27.2547C21.2935 26.9847 24.0967 26.0783 26.6627 24.5977C26.7749 24.533 26.887 24.4671 26.9991 24.4011C27.5965 24.0494 28.1966 23.6962 28.8453 23.5161C29.6648 23.2883 30.5127 23.3487 31.3575 23.4089C31.5787 23.4246 31.7996 23.4404 32.0199 23.4509C34.0888 23.5503 36.1727 23.1809 38.1249 22.367C38.7839 22.0925 39.5197 21.6381 39.6282 20.8228C39.7668 19.7821 38.8065 19.0381 37.9667 18.6808C37.127 18.3236 36.1192 17.8837 35.9377 16.8521C35.9075 16.6799 35.9036 16.4993 35.8997 16.3198C35.8932 16.0164 35.8867 15.7159 35.7532 15.4634C35.6079 15.1888 35.3443 15.0401 35.0927 14.912C32.3045 13.4944 29.2739 12.9399 26.2575 12.792C25.7444 12.7667 19.8175 12.8924 16.8667 12.9667Z" fill="#D4F3DB"/>
<path id="Vector_3" d="M28.0943 52.714C28.5341 51.9996 29.2074 51.5429 29.8747 51.1425C39.6732 45.2544 51.3568 47.2993 62.3174 46.27C65.1237 46.0068 67.9706 45.513 70.4981 44.0507C73.4497 42.3434 76.0232 39.3132 79.304 39.072C81.6101 38.9029 84.6649 39.7623 85.656 37.2987C85.9001 36.6919 85.8865 35.9964 85.9603 35.3312C86.9658 26.275 101.516 28.9077 102.935 28.9858C106.411 29.1769 108.973 29.4087 112.449 29.5999C115.963 33.9999 118.159 35.9999 122.148 45.2256C118.879 45.1892 115.61 45.1641 112.342 45.1277C110.73 45.1095 109.088 45.0966 107.546 45.6526C105.444 46.4111 103.685 48.173 101.59 48.9535C99.9795 49.5535 98.2585 49.5436 96.5707 49.5277C90.4626 49.4708 84.3546 49.4139 78.2473 49.3578C77.0942 49.3472 75.908 49.3434 74.8333 49.8386C73.7789 50.3256 72.921 51.2524 71.9683 51.9753C68.8239 54.3592 64.8601 54.3986 61.1892 55.2314C60.0241 55.4954 58.7415 55.9626 58.1834 57.1982C57.254 59.2559 59.0126 61.6118 60.787 62.6387C67.9073 66.7618 76.674 62.7616 84.2514 65.5278C86.2774 66.2673 88.1573 67.4725 90.132 68.3857C96.6084 71.381 103.815 71.1178 110.733 70.2592C116.588 69.5325 122.468 68.4092 128.331 68.5951C128.771 72.2115 129 75.9083 129 79.6689C129 80.8475 128.975 82.0202 128.931 83.1859C125.66 83.2732 122.388 83.3596 119.117 83.4468C112.938 83.6107 106.747 83.7745 100.586 83.1844C97.1356 82.8537 93.656 82.2735 90.4551 80.7148C88.5248 79.775 86.7157 78.4887 84.7312 77.7249C81.2411 76.3816 77.4723 76.7396 73.8052 76.5227C68.1423 76.1874 62.6142 74.4536 57.1358 72.7295C48.6944 70.0733 27.8977 66.0966 27.3645 56.0294C27.3035 54.8734 27.5189 53.65 28.0958 52.7133L28.0943 52.714Z" fill="#D4F3DB"/>
<path id="Vector_4" d="M94.4126 63.9858L94 62.71L96.6991 61.8247L97.1117 63.1005C97.299 63.6797 96.9841 64.303 96.4091 64.4916L95.7939 64.6934C95.2189 64.882 94.5999 64.5649 94.4126 63.9858Z" fill="#FAE1B4"/>
<path id="Vector_5" d="M90.1495 50.8057L93.9995 62.7104L96.6986 61.8252L92.8486 49.9204L90.1495 50.8057Z" fill="#B75742"/>
<path id="Vector_6" d="M90.0854 47.4137L90.151 50.8049C90.749 51.3798 91.3199 51.5535 91.5006 50.3619C92.3298 50.6934 93.0965 51.3244 92.8503 49.919L90.9199 47.1392L90.0862 47.4122L90.0854 47.4137Z" fill="#FAE1B4"/>
<path id="Vector_7" d="M94.0487 62.9194L93.9557 62.6316C93.9424 62.5905 93.9646 62.5465 94.0054 62.5331L96.6021 61.6814C96.6429 61.668 96.6866 61.6904 96.6999 61.7315L96.7929 62.0193C96.8062 62.0604 96.784 62.1044 96.7432 62.1178L94.1465 62.9695C94.1057 62.9828 94.062 62.9605 94.0487 62.9194Z" fill="#A1A1A1"/>
<path id="Vector_8" d="M90.0856 47.4141C90.3522 47.6075 90.6301 47.5165 90.9193 47.141C90.9193 47.141 90.1918 46.0427 90.1496 46.0503C90.0796 46.0625 90.0856 47.4148 90.0856 47.4148V47.4141Z" fill="#F47458"/>
<path id="Vector_9" d="M102.29 20.7926C102.785 20.7304 103.278 20.647 103.761 20.5234C104.308 20.3838 105.012 20.2329 105.433 20.2533C106.318 20.2966 107.775 20.6887 108.409 21.746C109.199 23.0627 111.186 22.525 109.646 28.2561C107.904 34.7426 104.422 33.2757 104.356 33.1467C104.291 33.017 101.973 28.2781 101.973 28.2781C101.973 28.2781 100.38 30.4761 100.399 30.3874C100.416 30.3017 96.3383 21.5374 102.29 20.7926Z" fill="#13375B"/>
<path id="Vector_10" d="M74.9006 31.7452C75.1017 31.3015 76.9635 32.5826 77.3687 32.3285C77.7739 32.0744 78.3169 31.7611 78.5105 31.4592C78.704 31.1581 79.1431 31.3083 79.4933 31.0777C79.8443 30.8472 81.0094 32.6645 81.6225 32.8928C82.2355 33.1218 82.5699 30.6719 83.1454 30.7622C83.7208 30.8525 81.6428 35.3184 81.7678 35.6673C81.8921 36.0147 84.1794 43.783 85.5366 45.9758C86.3304 45.5806 90.951 43.8816 91.6883 43.494C92.0092 45.1877 93.0274 46.4726 93.4409 48.1336C90.8795 49.3078 83.8405 51.4914 83.0889 51.2237C80.7993 50.4091 79.5295 39.2875 79.1363 37.2138C78.7424 35.1386 77.7633 34.7442 77.1947 33.6596C76.6253 32.575 74.7003 32.1889 74.9014 31.7452H74.9006Z" fill="#F7A491"/>
<path id="Vector_11" d="M89.5539 50.8195C89.5539 50.8195 99.4781 47.9123 101.944 45.8151C104.41 43.7179 104.883 38.8765 102.537 37.2359C100.19 35.5961 87.7388 44.0956 87.7388 44.0956L89.5539 50.8195Z" fill="#EAB054"/>
<path id="Vector_12" d="M92.9505 120.525C92.9505 120.525 93.1478 124.1 93.1486 124.108C93.2209 124.561 93.5063 125.683 93.5063 126.096C93.5063 127.646 86.7829 124.78 88.29 124.093C88.4263 124.031 89.1411 123.561 89.1855 123.033C89.2548 122.22 89.4303 120.575 89.4303 120.575L92.9497 120.525H92.9505Z" fill="#F7A491"/>
<path id="Vector_13" d="M88.3073 124.078C88.3073 124.078 89.8859 124.552 90.6941 124.67C91.5029 124.788 92.5687 123.79 93.1403 124.06C93.7699 124.357 93.7059 127.279 93.7059 127.279C93.7059 127.279 84.0626 127.652 82.9675 127.165C82.0592 126.763 85.0793 125.182 88.3066 124.078H88.3073Z" fill="#F47458"/>
<path id="Vector_14" d="M107.763 120.756C107.763 120.756 107.961 124.331 107.962 124.339C108.034 124.792 108.319 125.914 108.319 126.327C108.319 127.877 101.596 125.011 103.103 124.324C103.239 124.262 104.166 123.441 104.211 122.913C104.28 122.1 104.243 120.807 104.243 120.807L107.763 120.757V120.756Z" fill="#F7A491"/>
<path id="Vector_15" d="M103.12 124.309C103.12 124.309 104.699 124.783 105.507 124.901C106.315 125.02 107.381 124.022 107.953 124.292C108.583 124.588 108.608 126.848 108.608 127.26C108.608 127.671 100.224 127.746 97.4821 127.301C96.503 127.141 99.8937 125.413 103.12 124.309Z" fill="#F47458"/>
<path id="Vector_16" d="M97.1088 69.1504L94.2664 70.408L88.2871 99.6989L88.5296 121.657L93.3227 121.771C93.3227 121.771 95.552 102.564 95.552 101.075C95.552 99.5859 105.878 75.0256 105.878 75.0256L97.1088 69.1504Z" fill="#355389"/>
<path id="Vector_17" d="M99.3035 70.7624C99.3035 70.7624 101.397 93.3302 101.397 97.134C101.397 100.938 103.095 122.229 103.095 122.229L107.899 122.2C107.899 122.2 108.246 115.711 108.761 106.163C108.841 104.668 108.657 101.651 108.761 100.103C109.508 88.9689 110.986 78.4883 110.281 74.3333C110.167 73.6643 109.954 71.916 109.537 71.4746C106.391 68.1358 99.3027 70.7616 99.3027 70.7616L99.3035 70.7624Z" fill="#466EB6"/>
<path id="Vector_18" d="M107.216 37.0123C107.216 37.0123 110.531 37.4849 111.403 38.1425C112.386 38.8827 113.477 40.5393 113.477 40.5393C113.477 40.5393 109.407 60.2764 109.399 63.5978C109.393 66.1675 110.28 72.4765 110.28 72.4765C110.28 72.4765 97.98 73.2729 93.3218 71.3866C93.3218 71.3866 94.7934 63.883 94.7934 61.9125C94.7934 59.9419 96.5528 42.0259 96.9535 40.7744C97.3172 39.639 97.9808 37.5994 100.229 37.0958C102.476 36.5929 107.217 37.0116 107.217 37.0116L107.216 37.0123Z" fill="#F7CC7F"/>
<path id="Vector_19" d="M106.312 31.6988L107.132 37.2107C107.132 37.2107 104.135 43.773 102.345 43.2042C100.844 42.7263 101.768 36.9202 101.768 36.9202C101.79 36.7753 102.616 33.6102 102.341 32.2411C102.03 30.693 106.311 31.6996 106.311 31.6996L106.312 31.6988Z" fill="#F7A491"/>
<path id="Vector_20" d="M102.34 32.2408C102.095 30.6806 106.31 31.6992 106.31 31.6992L106.378 32.1566L106.504 33C106.504 33 105.074 36.4139 101.989 35.9384C102.116 35.0972 102.441 32.881 102.34 32.2416V32.2408Z" fill="#F47458"/>
<path id="Vector_21" d="M91.7205 58.5188C91.8199 58.4452 91.8094 58.3891 91.8094 58.3891C91.6843 58.22 91.7318 57.6071 91.9381 57.4789C92.1438 57.3507 92.5452 57.3121 93.3217 57.1771C93.9867 57.061 94.959 56.9131 95.3416 56.7227C96.2537 56.7538 97.0844 57.4759 97.7284 57.7103C97.8805 57.7656 100.728 57.6496 101.466 57.6208C102.268 57.5897 102.887 57.5169 102.887 57.5169C102.887 57.5169 107.596 56.8183 112.504 56.4542L111.629 52.385L116.256 51.8457C116.568 54.1538 117.392 57.7361 117.429 58.826C117.502 60.9695 110.243 60.751 103.818 60.4514C103.111 60.4188 102.445 60.3839 101.837 60.3498C101.008 60.3354 99.621 60.4241 98.9816 60.4613C98.5802 60.5189 98.0296 60.6031 97.9603 60.6395C97.8504 60.6979 97.1161 60.836 97.0535 60.8405C96.991 60.8451 96.7357 60.9892 96.6257 61.0476C96.5158 61.106 95.0441 61.1545 94.8054 61.1704C94.5666 61.1864 94.0402 61.0445 94.0402 61.0445L93.0558 61.0347C92.3328 61.0271 92.5746 60.2891 92.5746 60.2891C92.2334 60.2838 92.0639 60.1518 92.0135 59.9554C91.9622 59.7589 92.033 59.5352 92.021 59.498C92.0089 59.4608 91.9035 59.4388 91.9035 59.4388C91.6866 59.4442 91.5367 59.1878 91.5164 59.027C91.496 58.8662 91.6196 58.5916 91.719 58.518L91.7205 58.5188Z" fill="#F7A491"/>
<path id="Vector_22" d="M110.793 37.832C110.793 37.832 112.734 38.2909 114.74 40.602C116.563 42.7037 117.712 54.4761 117.712 54.4761L111.415 55.5205L110.913 49.8259L109.23 47.2212L110.793 37.832Z" fill="#F7CC7F"/>
<path id="Vector_23" d="M104.871 23.1621C103.022 22.4583 100.992 23.6544 100.649 25.5923C100.5 26.435 100.356 27.4953 100.301 28.6581C100.167 31.4538 101.52 34.2185 102.777 34.2549C104.035 34.2913 107.563 32.5809 107.807 28.6133C107.958 26.1634 106.812 23.9009 104.871 23.1621Z" fill="#F7A491"/>
<path id="Vector_24" d="M106.872 28.9004C106.854 29.5178 107.244 30.0297 107.743 30.0441C108.242 30.0586 108.663 29.5701 108.681 28.9527C108.699 28.3353 108.309 27.8233 107.809 27.8089C107.31 27.7945 106.891 28.283 106.872 28.9004Z" fill="#F7A491"/>
<path id="Vector_25" d="M107.809 27.8095C107.809 27.8095 106.267 27.8755 105.914 26.8121C105.563 25.7495 104.03 23.2966 101.381 23.6386C98.7323 23.9807 103.979 22.0178 104.178 22.0587C104.376 22.0997 106.756 22.5715 106.756 22.5715C106.756 22.5715 108.281 24.4662 108.313 24.6467C108.345 24.8272 108.505 26.7537 108.505 26.7537L107.808 27.8095H107.809Z" fill="#13375B"/>
<path id="Vector_26" d="M101.676 31.0527L103.901 31.2712C103.901 31.2712 103.768 32.1176 102.787 32.0501C101.59 31.9682 101.676 31.0535 101.676 31.0535V31.0527Z" fill="white"/>
<path id="Vector_27" d="M83.7542 47.2509C83.7542 47.2509 83.825 48.2521 83.514 48.6215C82.1772 49.3276 75.8823 51.0668 73.6944 52.423C72.7937 52.6831 68.5677 53.076 67.1533 49.9723C68.4751 49.697 69.9091 49.4399 70.7089 49.2169C71.7129 48.937 78.6411 45.9918 79.7965 45.8538C82.1327 45.5739 83.755 47.2509 83.755 47.2509H83.7542Z" fill="#C8D2DE"/>
<path id="Vector_28" d="M68.5672 33.9131C68.5672 33.9131 75.7612 31.1378 82.7106 28.2495C86.1713 38.6581 86.2722 47.2608 83.5134 48.6215C81.7367 49.4983 80.0949 47.9267 81.1011 46.3172C73.9974 48.5828 70.7076 49.2169 70.7076 49.2169C70.7076 49.2169 72.1318 41.8991 68.5664 33.9131H68.5672Z" fill="white"/>
<path id="Vector_29" d="M76.0076 34.0011C75.8789 33.6924 76.0227 33.3367 76.3292 33.2062L80.9212 31.2585C81.2277 31.1288 81.581 31.2736 81.7105 31.5823C81.8393 31.891 81.6954 32.2468 81.3889 32.3772L76.7969 34.325C76.4904 34.4547 76.1372 34.3098 76.0076 34.0011Z" fill="#DFE5ED"/>
<path id="Vector_30" d="M77.2542 38.9054C77.1254 38.5967 77.2693 38.241 77.5758 38.1105L82.1678 36.1628C82.4743 36.0331 82.8275 36.1779 82.9571 36.4866C83.0859 36.7953 82.942 37.1511 82.6355 37.2815L78.0435 39.2293C77.737 39.359 77.3838 39.2141 77.2542 38.9054Z" fill="#DFE5ED"/>
<path id="Vector_31" d="M77.7064 40.6315C77.5776 40.3228 77.7214 39.9671 78.028 39.8366L82.6199 37.8888C82.9265 37.7591 83.2797 37.904 83.4092 38.2127C83.538 38.5214 83.3942 38.8771 83.0876 39.0076L78.4957 40.9554C78.1891 41.0851 77.8359 40.9402 77.7064 40.6315Z" fill="#DFE5ED"/>
<path id="Vector_32" d="M73.3113 36.9391C72.2614 36.8056 71.515 35.837 71.6476 34.7797C71.7801 33.7224 72.7419 32.9707 73.7918 33.1042C74.8417 33.2377 75.5881 34.2063 75.4555 35.2636C75.3229 36.3209 74.3612 37.0726 73.3113 36.9398V36.9391ZM73.7669 33.2969C72.8225 33.177 71.9571 33.8536 71.8381 34.8047C71.7191 35.7559 72.3909 36.6274 73.3354 36.7472C74.2798 36.867 75.1452 36.1905 75.2642 35.2393C75.3832 34.2882 74.7114 33.4167 73.7669 33.2969Z" fill="#466EB6"/>
<path id="Vector_33" d="M74.3718 42.2576C73.3219 42.1241 72.5756 41.1555 72.7081 40.0982C72.8407 39.0409 73.8024 38.2892 74.8523 38.4219C75.9022 38.5554 76.6486 39.524 76.5168 40.5813C76.3842 41.6386 75.4225 42.3903 74.3726 42.2568L74.3718 42.2576ZM74.8275 38.6153C73.883 38.4955 73.0177 39.1721 72.8987 40.1232C72.7797 41.0743 73.4515 41.9458 74.3959 42.0657C75.3404 42.1855 76.2057 41.5089 76.3247 40.5578C76.4437 39.6067 75.7719 38.7352 74.8275 38.6153Z" fill="#466EB6"/>
<path id="Vector_34" d="M74.0917 33.323C73.1653 35.2943 72.5259 37.4302 72.5259 37.4302C73.4681 36.0065 74.0405 34.1778 74.2702 33.345L74.0917 33.3223V33.323Z" fill="#F47458"/>
<path id="Vector_35" d="M71.5001 34.2845C73.789 34.7744 76.071 36.186 76.071 36.186C72.9605 35.1051 71.3179 34.3246 71.3179 34.3246L71.5001 34.2837V34.2845Z" fill="#F47458"/>
<path id="Vector_36" d="M40.7675 33.8797C40.8782 31.1917 40.485 28.5363 39.2905 26.034C38.2632 23.8807 35.7206 22.6588 33.4017 22.6558C26.0389 22.6459 25.1027 32.4432 20.4158 36.2219C18.9841 37.3763 17.3829 38.3168 16.028 39.5623C11.0241 44.1602 13.2782 52.6718 17.8725 56.7031C21.0613 59.5004 26.072 61.0902 30.0019 58.9035C32.0535 57.762 33.6103 55.8643 34.7197 53.7853C36.2945 50.8348 37.309 47.43 38.4289 44.2853C39.6212 40.9381 40.6199 37.4537 40.7667 33.8805L40.7675 33.8797Z" fill="#F7CC7F"/>
<path id="Vector_37" d="M37.2022 42.3366C37.2022 42.3366 36.0763 43.9393 36.5447 46.3353C37.0139 48.7314 44.1417 56.1364 45.035 56.6127C46.0073 57.1315 46.6038 56.9275 47.0399 56.6779C50.7966 54.5246 56.104 43.0572 56.7194 42.2395L57.2601 41.5228L56.7374 39.5947L46.3545 51.091C46.3545 51.091 37.8695 41.5387 37.2022 42.3366Z" fill="#F7A491"/>
<path id="Vector_38" d="M35.9498 40.3594C35.9498 40.3594 36.7556 40.6863 37.0004 40.8403C38.6543 41.8832 44.0755 47.8289 44.0755 47.8289C44.0755 47.8289 41.2226 50.9159 39.9595 52.2364L32.7451 46.7708L35.9498 40.3594Z" fill="#C8D2DE"/>
<path id="Vector_39" d="M28.1058 66.5449C23.4807 72.345 23.498 76.2815 23.5417 83.729C23.5861 91.1758 24.6345 93.5164 20.5713 101.07C27.9175 105.432 38.4096 104.368 38.4096 104.368C41.1217 79.0477 41.9871 73.1133 40.0048 67.4293C33.5157 67.4513 28.105 66.5449 28.105 66.5449H28.1058Z" fill="#F47458"/>
<path id="Vector_40" d="M30.8337 39.3354C30.8337 39.3354 26.5965 39.0639 24.92 40.9002C23.2434 42.7365 28.6383 57.2629 28.9433 59.5997C29.2483 61.9366 26.6349 66.9001 26.6349 66.9001C26.6349 66.9001 34.2884 70.1631 40.6216 68.3374C40.6216 68.3374 40.4928 51.4658 40.1878 49.7964C39.8828 48.127 37.3432 41.3378 36.7339 40.6696C36.1238 40.0021 30.8337 39.3339 30.8337 39.3339V39.3354Z" fill="white"/>
<path id="Vector_41" d="M32.2441 33.6443C32.2441 33.6443 32.2222 33.7695 32.1831 33.9834C31.994 35.0073 31.2665 38.4038 30.7754 39.3375C30.1812 40.4661 32.8089 44.0651 35.3373 43.6259C36.0904 43.4955 34.7009 40.319 34.7679 39.983C34.8959 39.339 35.0691 38.4607 35.2461 37.5596C35.3463 37.0514 35.4472 36.5364 35.5429 36.0518C35.8133 34.6759 36.0339 33.5503 36.0339 33.5503L32.2448 33.6451L32.2441 33.6443Z" fill="#F7A491"/>
<path id="Vector_42" d="M32.1831 33.9837C32.2223 33.7705 32.2441 33.6446 32.2441 33.6446L36.0332 33.5498C36.0332 33.5498 35.8125 34.6754 35.5422 36.0513C35.4473 36.5329 35.3471 37.0449 35.2477 37.5508C34.6625 37.4643 34.0517 37.1784 33.4386 36.6391C32.7706 36.0513 32.3322 35.3451 32.0679 34.5904C32.1146 34.35 32.1537 34.1422 32.1831 33.9837Z" fill="#F47458"/>
<path id="Vector_43" d="M34.7952 24.9882C34.7952 24.9882 33.0095 24.7811 31.8896 26.2359C30.7704 27.6914 29.5631 32.1915 32.3445 34.6383C35.1258 37.0852 37.8733 34.3152 38.2808 31.3791C38.6882 28.4423 38.8464 24.882 34.7952 24.9882Z" fill="#F7A491"/>
<path id="Vector_44" d="M34.9947 24.5073C34.9947 24.5073 32.6079 28.8018 30.9005 28.9998C29.1939 29.1977 28.9702 31.4565 28.9702 31.4565C28.9702 31.4565 29.5803 26.2169 31.2703 25.2059C32.9604 24.1956 34.9947 24.5073 34.9947 24.5073Z" fill="#F7CC7F"/>
<path id="Vector_45" d="M31.3496 30.0597C31.4882 30.8197 31.2133 31.5501 30.7305 31.6502C30.247 31.7496 29.7386 31.1815 29.6 30.4215C29.4614 29.6615 29.7401 28.9644 30.2236 28.8651C30.7071 28.7649 31.211 29.3004 31.3503 30.0604L31.3496 30.0597Z" fill="#F7A491"/>
<path id="Vector_46" d="M42.9866 66.2593L31.773 66.5452L31.1953 50.8804L43.0665 50.9175L42.9866 66.2593Z" fill="#466EB6"/>
<path id="Vector_47" d="M43.0171 57.5806C42.9893 57.5191 42.136 57.9439 41.4641 57.7952C41.3301 57.7656 41.8249 57.3546 41.8912 57.2332C41.9002 57.2173 42.8944 56.5839 42.8115 56.1524C42.7287 55.7208 41.8739 55.9984 41.8739 55.9984C41.8739 55.9984 39.457 57.1209 39.1158 57.4668C38.7746 57.8127 38.6308 58.0728 38.609 58.1047C38.4606 58.151 38.3318 58.1851 38.2361 58.198C36.0128 58.4854 32.3827 57.975 26.85 57.0997L26.8432 54.1765C25.6721 54.2463 23.6265 54.0408 22.6836 53.9346C22.7333 56.1637 22.7054 60.0297 23.1784 60.7669C23.5106 61.2842 26.4305 61.6324 29.6796 61.8827C33.8189 62.202 34.905 61.9638 38.5005 61.7113C39.5896 61.6301 41.0853 61.9653 41.6539 61.9684C42.4982 61.9737 42.795 62.0685 43.222 61.6218C43.582 61.2448 43.5398 60.3172 43.4796 59.7422C43.3666 58.6538 43.3312 58.2374 43.0164 57.5798L43.0171 57.5806Z" fill="#F7A491"/>
<path id="Vector_48" d="M26.9885 39.7373C26.9885 39.7373 24.5972 40.1787 23.4359 42.323C22.6699 43.7375 21.8535 50.284 22.1051 55.1511C23.7236 54.8053 26.4402 54.7423 28.1054 54.7355C28.0421 50.3742 27.8026 39.5909 26.9885 39.7373Z" fill="#E4E8ED"/>
<path id="Vector_49" d="M48.7761 48.8457C48.7761 48.8457 54.4797 41.7357 55.5989 40.6185C56.7189 39.5013 61.2814 36.2406 61.414 36.5849C61.5458 36.9285 58.9369 39.4959 58.973 39.5908C59.0099 39.6863 59.4302 40.422 59.5801 40.8142C59.7307 41.2063 59.7699 42.1476 59.6418 42.4388C59.5138 42.7301 58.5874 43.2261 58.0655 43.4294C57.5436 43.6327 56.7942 43.5242 56.1698 44.0855C55.5455 44.6475 50.5747 52.0693 50.5747 52.0693L48.7754 48.845L48.7761 48.8457Z" fill="#F7A491"/>
<path id="Vector_50" d="M18.6076 117.091C18.6076 117.091 18.121 120.509 17.2843 121.611C17.0033 121.981 16.4904 122.449 16.153 123.118C15.6288 124.16 15.9188 125.71 16.3052 126.564C16.3383 126.639 16.5801 126.828 16.7443 126.887C18.0826 127.304 19.5061 126.856 20.0762 125.558C20.3948 124.833 20.6742 123.865 20.7299 122.646C20.873 119.543 21.8258 117.965 21.8258 117.965L18.6076 117.092V117.091Z" fill="#F7A491"/>
<path id="Vector_51" d="M33.2497 118.653C33.2497 118.653 33.5502 122.507 33.3062 123.759C33.1759 124.43 32.4484 125.81 32.782 126.441C33.1157 127.072 33.6881 126.811 33.6881 126.811L41.4455 126.979C41.9162 126.987 42.2996 127.072 41.92 126.79C41.2987 126.327 40.7971 126.021 38.8125 125.048C38.683 124.985 38.2115 124.681 38.042 124.576C37.6112 124.31 37.1782 123.891 36.8054 123.47C36.1848 122.77 36.1305 119.377 36.1305 119.377L33.2497 118.653Z" fill="#F7A491"/>
<path id="Vector_52" d="M40.0054 67.4294C40.0054 67.4294 41.0937 73.6861 40.379 77.7887C39.6642 81.8906 36.3119 121.815 36.3119 121.815L33.3603 120.517C33.3603 120.517 31.6236 104.248 31.7667 102.039C31.9098 99.8301 33.041 96.134 33.041 96.134L32.6614 83.3104L37.471 66.4639L40.0046 67.4294H40.0054Z" fill="#F7A491"/>
<path id="Vector_53" d="M28.8024 66.1135C28.8024 66.1135 25.8011 70.6887 25.0863 74.475C24.3716 78.2613 25.6105 89.8979 24.236 94.8599C23.4919 97.5456 20.6714 101.694 20.2428 105.165C19.8143 108.635 18.2598 118.936 18.2598 118.936L21.06 120.129L30.7959 95.786L37.7415 75.263L39.5204 64.6929L28.8016 66.1127L28.8024 66.1135Z" fill="#F7A491"/>
<path id="Vector_54" d="M20.3362 124.874C18.2598 125.258 16.8785 124.028 16.1592 123.107C15.6313 124.15 15.3737 125.707 15.7623 126.564C16.1043 127.319 17.1029 127.298 17.89 127.327C18.7215 127.358 19.3654 126.89 19.7781 126.157C19.9709 125.814 20.1698 125.388 20.3362 124.875V124.874Z" fill="#F47458"/>
<path id="Vector_55" d="M38.0408 124.576C35.7549 125.17 34.0656 124.766 33.1204 124.38C32.8764 125.08 32.5533 125.958 32.725 126.464C32.9352 127.084 33.2334 127.224 33.4978 127.231C35.5855 127.286 41.1452 127.362 42.7374 127.383C42.9596 127.386 43.0823 127.123 42.9392 126.95C42.5446 126.472 38.211 124.681 38.0408 124.577V124.576Z" fill="#F47458"/>
<path id="Vector_56" d="M75.658 31.852C75.9607 33.2726 76.2552 32.5217 76.4089 31.4599C76.4315 32.1091 76.5949 32.1645 76.7516 32.0886C76.9413 31.9961 77.2306 30.5611 77.0852 30.2842C76.9504 30.0279 76.0609 30.4564 75.8237 30.6422C75.6693 30.715 75.4953 30.8038 75.298 30.8728C74.7422 31.067 74.6344 31.1132 74.4356 31.2354C74.1291 31.4242 74.2526 31.7504 74.3219 32.2419C74.4846 32.8979 74.9078 32.8873 74.9154 31.8937C74.9365 31.9893 75.0939 32.8638 75.3251 32.8797C75.5458 32.8949 75.5872 32.5551 75.6587 31.852H75.658Z" fill="#F8A492"/>
</g>
</svg>
