<svg width="128" height="129" viewBox="0 0 128 129" fill="none" xmlns="http://www.w3.org/2000/svg">
<g id="Vector Art">
<path id="Vector" d="M8.5105 127.94C8.5105 127.94 -8.51547 80.8972 5.59633 50.2723C46.954 -39.4824 130.314 5.79464 120.639 70.7656C116.443 98.9483 134.757 99.8995 125.2 128L8.5105 127.94Z" fill="#A9E8B7"/>
<path id="Intersect" fill-rule="evenodd" clip-rule="evenodd" d="M10.7988 40.0597C13.0293 36.0999 15.3517 32.4672 17.7488 29.1473C29.639 29.2134 51.7936 29.1352 54.3631 29.0392C55.0405 29.0138 55.7227 28.9829 56.408 28.9519C62.8636 28.6599 69.5884 28.3556 75.0372 32.4867C75.8198 33.0807 76.6091 33.8372 76.8656 34.9299C77.5015 37.6266 74.7265 39.4687 72.5332 40.1565C72.1869 42.0267 74.1752 43.0886 75.6969 43.422C80.6016 44.5007 85.4324 46.0991 90.1177 48.1962C93.44 49.6825 97.1298 52.057 97.7842 56.3661C98.2443 59.3976 96.9328 62.5314 94.9973 64.466C93.0619 66.4006 90.5989 67.3196 88.1611 67.9065C83.2862 69.0795 78.3142 69.0909 73.3359 69.1023C69.8356 69.1103 66.3322 69.1184 62.8572 69.5301C61.7348 69.6632 60.5609 69.8635 59.6473 70.6845C58.7292 71.5096 58.2375 72.7928 57.7416 74.0871C57.457 74.8298 57.1711 75.5762 56.8023 76.2417C54.7955 79.8658 50.7712 80.5284 47.2347 80.7666C39.3593 81.3003 31.4641 81.3801 23.5821 81.0061C23.5229 81.0033 23.4637 81.0005 23.4045 80.9977C21.4758 80.9058 19.5152 80.8125 17.6541 81.4404C16.2115 81.9265 14.8955 82.8229 13.5792 83.7195C13.0559 84.076 12.5325 84.4325 12.0011 84.7633C7.68453 87.4491 5.0623 88.6024 0.410869 89.5203C-0.188865 82.2064 -0.204252 74.5121 0.851449 67.0788C3.23484 66.7816 5.42567 66.849 7.63988 66.9172C9.69421 66.9804 11.7687 67.0442 14.0357 66.818C19.0343 66.3193 23.9549 64.6453 28.4591 61.9108C28.6562 61.7912 28.8528 61.6694 29.0497 61.5475C30.0983 60.8981 31.1517 60.2457 32.2904 59.9131C33.7289 59.4924 35.2172 59.6039 36.7001 59.715C37.0883 59.7441 37.4762 59.7732 37.8628 59.7926C41.4944 59.9762 45.1525 59.2939 48.5792 57.7908C49.736 57.2837 51.0276 56.4445 51.218 54.9386C51.4613 53.0166 49.7757 51.6423 48.3016 50.9825C46.8275 50.3227 45.0586 49.5102 44.74 47.605C44.6869 47.2868 44.6801 46.9533 44.6733 46.6218C44.6618 46.0614 44.6503 45.5065 44.4161 45.04C44.161 44.5329 43.6983 44.2583 43.2567 44.0216C38.3625 41.4033 33.0426 40.3793 27.7479 40.1061C27.0767 40.0713 18.3092 40.0547 10.7988 40.0597Z" fill="#D4F3DB"/>
<path id="Vector_2" d="M125.98 128.331H1.42789C0.914374 128.331 0.498047 127.779 0.498047 127.099C0.498047 126.418 0.914374 125.867 1.42789 125.867H125.98C126.494 125.867 126.91 126.418 126.91 127.099C126.91 127.779 126.494 128.331 125.98 128.331Z" fill="#F0806A"/>
<path id="Vector_3" d="M63.527 125.925L63.5255 125.181C63.5255 125.181 60.1225 121.36 59.078 119.415L56.2052 114.046L52.4443 114.988L57.2183 121.832L63.5278 125.925H63.527Z" fill="#FFB27D"/>
<path id="Vector_4" d="M42.5365 27.4244C43.1932 24.6899 42.2407 23.4161 41.3817 22.7378C40.9741 21.7314 40.509 21.0057 40.0331 20.7321C39.1657 20.2328 38.1258 20.1785 37.3986 20.2219C37.5856 20.0266 37.9542 19.9552 37.9542 19.9552C37.5036 19.887 36.4967 20.3398 36.4967 20.3398C30.2239 17.8945 29.2377 27.2391 29.3703 29.4099C29.5014 31.5807 29.4837 34.1376 26.2201 35.8479C19.9934 39.1119 28.2899 51.4104 28.2899 51.4104C28.1312 49.6559 36.132 40.3981 40.3059 37.6257C41.322 36.1123 41.6829 33.4383 41.7105 33.2282C41.535 35.3479 41.1764 36.5372 40.8561 37.207C42.7587 35.4355 43.04 31.1815 42.5365 27.4244Z" fill="#A9453D"/>
<path id="Vector_5" d="M40.0583 37.7644C40.079 37.7738 38.043 38.8437 36.5112 38.4196C35.0706 38.0218 34.1288 36.1325 34.1487 36.1278C34.7587 36.0053 34.9349 35.1571 34.9219 31.5117L35.1978 31.5668L39.8353 32.4963C39.8353 32.4963 39.7296 33.9733 39.7265 35.3641C39.7234 36.5325 39.7932 37.6396 40.0575 37.7644H40.0583Z" fill="#FFB27D"/>
<path id="Vector_6" d="M39.8356 32.4965C39.8356 32.4965 39.7298 33.9734 39.7267 35.3643C37.1314 35.2898 35.7597 32.895 35.1973 31.5669L39.8348 32.4965H39.8356Z" fill="#ED975D"/>
<path id="Vector_7" d="M58.3202 117.538L55.8619 117.614L53.2007 117.696C53.2007 117.696 47.0543 110.772 43.6061 99.6732C43.5256 99.415 43.4413 99.1545 43.3509 98.8902C41.4643 93.3236 37.5525 86.3366 35.4912 80.0118C35.1632 79.0047 34.8682 78.0565 34.6038 77.1587C34.5195 76.8711 34.4368 76.5889 34.3586 76.3113C32.8391 70.9711 32.4 67.4645 31.9946 63.7183L46.8796 63.8384C46.8796 63.8384 49.2827 89.42 58.3202 117.537V117.538Z" fill="#2A4E96"/>
<path id="Vector_8" d="M44.7964 55.1852C44.7589 62.352 45.8355 65.426 45.8355 65.426C45.8355 65.426 39.4624 68.7024 31.8877 66.2904C31.7988 66.2618 27.0142 64.9678 27.0142 64.9678C27.1406 64.6778 28.2686 59.8478 28.3919 59.5818C29.9912 56.107 29.8073 54.4502 29.9973 53.3818C30.349 51.3878 30.3567 49.324 30.1812 47.378C29.7191 42.2262 28.3444 37.9489 28.3444 37.9489C30.408 37.4736 32.3413 36.6386 34.4892 35.8238C34.9835 36.4464 36.4938 37.0976 37.8041 37.0681C39.3129 37.0348 39.8026 36.3812 39.7237 35.668C41.3313 36.5727 42.6148 37.4279 42.6148 37.4279C43.9811 39.8297 46.7528 42.1618 46.9535 45.846C47.0033 46.7523 44.798 54.9844 44.7972 55.1852H44.7964Z" fill="#E7F1FD"/>
<path id="Vector_9" d="M40.7018 33.8139C40.7018 33.8139 34.5616 33.9162 34.557 30.0467C34.5524 26.1772 33.757 23.5839 37.6773 23.3552C41.5976 23.1265 42.3608 24.6018 42.6727 25.8935C42.9846 27.1851 42.298 33.6883 40.701 33.8146L40.7018 33.8139Z" fill="#FFB27D"/>
<path id="Vector_10" d="M40.475 23.2596C40.475 23.2596 38.7938 27.7997 36.2138 28.4711C33.6337 29.1425 32.5142 28.4432 32.5142 28.4432C32.5142 28.4432 32.918 26.108 33.3287 23.3309C33.3287 23.3309 39.2061 21.0988 40.4743 23.2596H40.475Z" fill="#A9453D"/>
<path id="Vector_11" d="M40.0586 23.628C40.0586 23.628 41.3145 24.6413 41.6203 25.6275C41.9268 26.6129 42.0639 28.6418 42.6486 28.5728C42.6486 28.5728 43.9153 25.4872 42.4915 23.7412C40.982 21.8898 40.0586 23.6288 40.0586 23.6288V23.628Z" fill="#A9453D"/>
<path id="Vector_12" d="M36.1021 124.99C35.8929 123.827 35.496 121.816 35.496 121.816L35.5879 114.681H31.3052L32.9075 121.511C32.9404 121.828 33.0278 123.058 32.578 124.362C32.578 124.362 32.1665 126.259 34.0124 126.293C35.8584 126.328 36.3113 126.152 36.1021 124.989V124.99Z" fill="#FFB27D"/>
<path id="Vector_13" d="M32.5782 124.363C32.5782 124.363 32.2303 126.631 32.4395 127.582C32.4395 127.582 32.9843 127.619 34.3253 127.619C35.5966 127.619 36.2763 127.582 36.2763 127.582C36.2763 127.582 36.3153 125.142 35.9759 124.314C35.9759 124.314 34.6678 126.301 32.5782 124.363Z" fill="#1E3D70"/>
<path id="Vector_14" d="M50.3639 60.1597L53.2642 69.1058L51.6098 69.7764L46.8145 61.8731L50.3639 60.1597Z" fill="#FFB27D"/>
<path id="Vector_15" d="M65.7157 127.582C65.7157 127.582 62.0108 127.654 61.384 127.582C60.7571 127.512 60.2729 126.363 59.5939 124.989C59.3158 124.427 58.692 124.117 58.0529 123.947L58.0828 127.582H57.1426L56.1717 123.747C55.5687 122.627 56.0261 121.616 56.4507 120.731C56.9441 120.73 58.3679 121.066 60.8821 123.931C61.7081 124.872 62.6207 125.208 63.5265 125.18C63.5387 125.188 63.5518 125.194 63.564 125.2C65.6537 126.151 65.7165 127.581 65.7165 127.581L65.7157 127.582Z" fill="#1E3D70"/>
<path id="Vector_16" d="M51.0845 61.0296C51.0845 61.0296 50.6355 59.862 50.0393 58.3874C49.4424 56.9128 47.9435 42.5552 46.9542 40.4146C45.9642 38.274 42.5451 36.901 42.5451 36.901L39.7236 35.6675C39.7236 35.6675 43.2761 44.5469 43.3811 46.344C43.4853 48.1411 43.7987 75.7307 43.7987 75.7307C43.7987 75.7307 43.5895 76.9991 45.9926 76.4703C48.3956 75.9416 49.0224 75.4136 49.0224 75.4136C49.0224 75.4136 48.1496 68.9523 47.627 62.6073C49.3611 62.4988 51.0853 61.0296 51.0853 61.0296H51.0845Z" fill="#2A4E96"/>
<path id="Vector_17" d="M55.8622 117.614L53.2009 117.696C53.2009 117.696 47.0546 110.772 43.6063 99.673C43.5259 99.4148 43.4416 99.1543 43.3512 98.8899C41.4646 93.3233 37.5527 86.3364 35.4914 80.0116C35.1635 79.0045 34.8685 78.0563 34.6041 77.1585C34.5198 76.8709 34.437 76.5886 34.3589 76.3111L36.5512 74.6279C36.5512 74.6279 43.132 85.4099 45.1696 95.5569C46.9397 104.37 54.027 114.976 55.8615 117.614H55.8622Z" fill="#1E3D70"/>
<path id="Vector_18" d="M36.7803 96.5023C36.8178 101.437 36.5711 112.781 35.9358 117.478H33.5787C32.2761 117.478 31.6263 117.458 31.6263 117.458C30.0332 109.292 28.8991 102.536 28.0738 96.7132C27.3972 91.935 26.7949 87.8392 26.332 84.3124C25.8661 80.7639 25.542 77.7922 25.4263 75.2818C25.4087 74.8864 25.3949 74.5018 25.388 74.1289C25.3803 73.7537 25.3788 73.3885 25.3819 73.035L38.2431 71.7666C38.0814 80.4127 36.7596 93.6345 36.7803 96.5023Z" fill="#2A4E96"/>
<path id="Vector_19" d="M33.5797 117.478C32.277 117.478 31.6272 117.458 31.6272 117.458C30.0341 109.292 28.9 102.536 28.0747 96.7131C27.3981 91.935 26.7958 87.8391 26.333 84.3123C25.8671 80.7638 25.543 77.7921 25.4272 75.2817L30.1468 78.0906C30.1468 78.0906 27.1345 79.1659 28.2839 87.305C29.4334 95.444 31.9805 116.325 33.5797 117.477V117.478Z" fill="#1E3D70"/>
<path id="Vector_20" d="M34.1865 75.2024C34.1865 75.2024 33.2808 78.5145 30.1467 78.0912C27.0126 77.6686 22.5552 75.7661 22.5552 75.7661C22.5552 75.7661 23.8946 71.4841 25.5598 65.8579C27.5766 59.0469 30.0724 50.2675 31.2486 44.7288C31.5789 43.1775 31.8042 41.8812 31.8877 40.9532L34.4884 35.8486C34.4884 35.8486 38.3658 44.6528 38.5742 46.8725C38.7834 49.0922 34.1865 75.2017 34.1865 75.2017V75.2024Z" fill="#2A4E96"/>
<path id="Vector_21" d="M31.0567 46.5422L34.4889 35.8486C34.4797 35.8533 30.1541 37.1511 27.9786 38.2629C27.9786 38.2629 26.6184 40.0368 25.7771 44.1295C25.7771 44.1295 24.8882 53.9556 26.8728 57.549C26.8728 57.549 33.1418 58.8174 43.1716 55.3294V53.0035C43.1716 53.0035 32.2016 53.585 29.9548 53.8494L31.0567 46.5422Z" fill="#FFB27D"/>
<path id="Vector_22" d="M34.0476 51.5246C33.9074 55.1189 33.0722 62.095 25.6193 65.8303C25.5994 65.8396 25.5795 65.8505 25.5596 65.859C27.5764 59.0481 30.0722 50.2687 31.2484 44.73C32.617 46.8 34.1235 49.5461 34.0476 51.5246Z" fill="#1E3D70"/>
<path id="Vector_23" d="M34.489 35.8486C34.489 35.8486 28.1266 36.3022 26.5948 39.7553C25.0622 43.2085 24.5749 54.6952 26.525 58.0778C26.525 58.0778 29.2101 58.8515 33.9587 57.953C34.0169 57.9421 34.0752 57.9305 34.1342 57.9189C34.1342 57.9189 35.6491 54.1665 34.2905 53.426C34.2905 53.426 30.2852 53.6377 30.7036 52.2988C31.1212 50.9598 34.4882 35.8486 34.4882 35.8486H34.489Z" fill="#2A4E96"/>
<path id="Vector_24" d="M50.4398 54.441L50.2521 55.0503L39.8123 51.7647C39.8123 51.7647 39.6728 51.6042 39.7418 51.391C39.8177 51.156 40 51.1553 40 51.1553L50.4398 54.441Z" fill="#A9453D"/>
<path id="Vector_25" d="M51.1947 55.017L50.4399 54.4409L50.2529 55.0503L51.1947 55.017Z" fill="#A9453D"/>
<path id="Vector_26" d="M52.8521 68.8608C52.8521 68.8608 55.5004 70.3416 55.849 71.4697C56.1977 72.5977 55.9578 74.9601 55.5379 74.9244C55.1172 74.8895 54.4904 72.3861 54.1417 72.2101C53.7931 72.0341 53.3057 71.5054 53.3057 71.893C53.3057 72.2807 53.6544 72.9862 53.4797 73.0916C53.3057 73.1971 52.7479 72.1047 52.3647 71.893C51.9816 71.6814 51.8207 69.9385 51.4483 69.4702C51.0759 69.0019 52.8529 68.8608 52.8529 68.8608H52.8521Z" fill="#FFB27D"/>
<path id="Vector_27" d="M43.1719 53.0045C43.1719 53.0045 45.5405 51.5292 46.5336 51.7556C47.5275 51.9827 50.0593 53.838 48.8416 54.2396C47.624 54.6412 46.6378 54.2202 46.1689 54.5117C45.7007 54.8032 45.3551 55.3374 43.1719 55.3296C40.9888 55.3227 43.1719 53.0038 43.1719 53.0038V53.0045Z" fill="#FFB27D"/>
<path id="Vector_28" d="M114.696 119.304C114.696 119.304 116.452 120.926 116.11 122.078C115.767 123.231 114.182 123.999 113.967 125.408C113.754 126.816 112.896 127.585 112.125 127.585H108.449C108.449 127.585 107.881 126.594 109.252 126.294C110.623 125.996 111.14 124.341 111.054 122.804C110.968 121.267 111.183 119.219 111.183 119.219L114.096 118.536L114.696 119.304Z" fill="#233862"/>
<path id="Vector_29" d="M93.2153 123.533C93.2153 123.533 93.531 127.224 92.7594 127.608L82.951 127.618C82.951 127.618 82.8897 126.435 84.4751 126.179C86.0606 125.924 88.8452 124.984 89.3165 122.893C89.7877 120.801 93.2153 123.533 93.2153 123.533Z" fill="#233862"/>
<path id="Vector_30" d="M84.8149 71.3252C84.8149 71.3252 85.3352 77.795 85.9467 85.5727C86.7789 96.1376 87.7781 109.114 87.8778 111.573C88.0486 115.842 88.7352 122.67 88.7352 122.67C88.7352 122.67 90.362 124.293 93.6195 123.609C93.6195 123.609 96.5214 113.862 97.3505 103.548C97.3635 103.379 97.3758 103.208 97.3888 103.038C98.1597 92.5387 99.3589 70.4297 99.3589 70.4297L84.8149 71.3259V71.3252Z" fill="#EE9849"/>
<path id="Vector_31" d="M84.8152 71.3254C84.8152 71.3254 85.3355 77.7953 85.947 85.573L97.35 103.547C97.363 103.378 97.3753 103.208 97.3883 103.038C98.1592 92.5382 99.3584 70.4292 99.3584 70.4292L84.8145 71.3254H84.8152Z" fill="#E58638"/>
<path id="Vector_32" d="M87.1924 72.0935C87.1924 72.0935 96.5747 95.5251 102.744 106.537C108.913 117.548 110.841 120.621 110.841 120.621C110.841 120.621 114.375 119.213 114.697 118.253C114.697 118.253 112.339 96.9943 108.207 91.8123C105.873 88.884 103.13 80.0961 103.001 77.0236C102.873 73.9503 102.166 67.8682 102.166 67.8682L87.1931 72.0935H87.1924Z" fill="#EE9849"/>
<path id="Vector_33" d="M66.9179 52.8508C66.9179 52.8508 64.1255 52.3445 63.5868 51.9212C63.0481 51.4987 63.396 51.2762 63.5662 50.5559C63.8972 49.1526 63.6865 49.9055 64.2489 49.8434C64.8114 49.7822 64.3753 49.4232 64.373 49.1379C64.3707 48.8526 64.2504 48.5564 64.7577 48.6092C65.265 48.6619 66.4811 50.2908 67.4995 50.9095C68.5178 51.5281 66.9179 52.8508 66.9179 52.8508Z" fill="#FFB27D"/>
<path id="Vector_34" d="M93.183 36.4324C93.183 36.4324 96.1592 49.1201 85.0474 58.9314C81.5792 61.9938 66.4536 52.9702 66.4536 52.9702C66.4536 52.9702 66.4858 51.456 67.918 50.8226C67.918 50.8226 79.8344 52.6508 81.2466 52.7725C82.4995 52.8802 85.0359 42.5386 88.1125 39.0816C90.4941 36.4061 93.183 36.4316 93.183 36.4316V36.4324Z" fill="#233862"/>
<path id="Vector_35" d="M99.5367 35.9836C99.5367 35.9836 93.1888 39.0825 89.5283 37.9327C89.5283 37.9327 90.4295 36.783 92.0057 35.927C91.8793 35.1835 91.7804 34.5385 91.7245 33.9919C91.5697 32.7297 91.5697 32.0141 91.5697 32.0141L94.0187 30.0651L96.3413 28.1997C96.1582 33.4446 99.5367 35.9821 99.5367 35.9821V35.9836Z" fill="#FFB27D"/>
<path id="Vector_36" d="M84.4146 71.8597C84.5265 71.9582 84.6537 72.0132 84.7954 72.0132C86.174 71.9845 90.1862 72.7559 93.5778 72.4055C96.4498 72.1249 98.9831 71.2844 101.7 70.0789C102.066 69.9106 102.897 69.4617 102.882 69.0694C102.867 68.6205 102.826 67.9894 102.77 67.1754C102.657 65.5736 102.496 63.2989 102.445 60.6017C102.349 55.5406 102.657 54.3807 102.657 50.9369C102.683 46.1588 101.973 37.3662 98.1816 34.5581C97.9279 34.3612 96.3509 35.1318 94.8873 35.8482C93.5494 36.5072 92.2138 36.5777 90.9464 36.3258L89.6797 37.4476C88.1441 38.8625 86.4552 40.8124 85.7096 43.7577C85.0912 46.2541 84.7249 50.7687 84.5265 55.453C84.3556 59.1961 84.315 62.3732 84.315 62.4508C84.246 67.653 84.315 71.7899 84.4138 71.8597H84.4146Z" fill="#2B478B"/>
<path id="Vector_37" d="M96.3836 30.2062C96.3836 30.2062 94.779 33.1648 91.7246 33.9928C91.5698 32.7306 91.5698 32.015 91.5698 32.015L94.0188 30.0659L96.3836 30.2062Z" fill="#ED985F"/>
<path id="Vector_38" d="M90.4529 31.9295C90.4529 31.9295 96.5088 32.932 97.0773 29.1649C97.6459 25.3977 98.8099 22.9904 94.9678 22.1911C91.1249 21.3918 90.1555 22.716 89.6582 23.9278C89.1617 25.1388 88.892 31.5714 90.4529 31.9288V31.9295Z" fill="#FFB27D"/>
<path id="Vector_39" d="M99.2784 21.7409C99.3336 21.6773 99.46 21.6254 99.7428 21.6099C99.7428 21.6099 99.5175 21.4672 99.2156 21.4595C99.1565 21.0625 98.9481 20.3593 98.2723 20.1888C98.2723 20.1888 98.6355 20.3849 98.683 20.8067C97.9006 19.9942 96.2248 19.4026 91.5834 19.7732C85.467 20.2616 87.4823 24.2242 88.2746 24.6963C89.0662 25.1685 91.0593 23.8737 92.5351 23.9923C94.011 24.111 94.2914 26.2678 94.7918 26.564C95.2922 26.8601 95.0953 26.3368 95.7727 26.0267C96.45 25.7174 96.5144 26.8524 96.3182 27.5905C96.1228 28.3285 97.0531 29.3023 97.0531 29.3023L97.9933 28.2774C98.9336 27.2532 99.8201 22.9131 99.3926 21.9882C99.355 21.9068 99.3175 21.8238 99.2791 21.7409H99.2784Z" fill="#2C3A64"/>
<path id="Vector_40" d="M102.445 60.6014C102.407 58.6019 102.428 56.3706 102.572 54.0075C102.58 53.8494 102.589 53.6889 102.595 53.5284C102.02 50.6428 101.148 48.0828 99.867 47.999C99.867 47.999 96.0487 54.0703 102.446 60.6006L102.445 60.6014Z" fill="#233862"/>
<path id="Vector_41" d="M107.496 71.0709C107.496 71.0709 107.178 74.2015 106.829 74.7939C106.479 75.3862 104.993 77.2787 104.359 77.65C103.725 78.0214 104.746 75.1567 104.616 74.5993C104.488 74.0418 104.095 75.6165 103.816 75.6537C103.537 75.6909 103.608 74.2736 103.598 73.7573C103.588 73.2417 104.956 71.9679 105.439 70.8693C105.921 69.7715 107.495 71.0709 107.495 71.0709H107.496Z" fill="#FFB27D"/>
<path id="Vector_42" d="M98.1774 34.5271C98.1774 34.5271 102.009 36.363 103.846 39.1851C106.696 43.5624 110 59.5171 110.06 60.9948C110.121 62.4725 107.649 72.9025 107.649 72.9025C107.649 72.9025 105.142 72.7351 104.495 71.4551C104.495 71.4551 104.996 60.7382 104.679 60.049C104.362 59.3597 94.2272 45.6727 95.3667 42.7522C96.5061 39.8317 98.1774 34.5264 98.1774 34.5264V34.5271Z" fill="#2B478B"/>
<path id="Vector_43" d="M78.0565 44.868L65.7363 41.9282L61.729 59.1201L74.0492 62.0598L78.0565 44.868Z" fill="#DBAF8F"/>
<path id="Vector_44" d="M77.7401 44.7918L65.4199 41.8521L61.4126 59.0439L73.7328 61.9836L77.7401 44.7918Z" fill="#EFCBAB"/>
<path id="Vector_45" d="M76.6189 45.7704L65.9888 43.2339L62.5311 58.0676L73.1613 60.6041L76.6189 45.7704Z" fill="#EBF3FA"/>
<path id="Vector_46" d="M75.0584 47.7774C75.0439 47.7774 75.0293 47.7759 75.0147 47.772L66.8408 45.8214C66.7389 45.7973 66.6761 45.6942 66.6998 45.5911C66.7236 45.488 66.8255 45.4244 66.9274 45.4484L75.1013 47.3991C75.2032 47.4231 75.2661 47.5262 75.2423 47.6293C75.2216 47.7177 75.1442 47.7766 75.0584 47.7766V47.7774Z" fill="#B5C1CF"/>
<path id="Vector_47" d="M74.722 48.9444C74.7074 48.9444 74.6929 48.9429 74.6783 48.939L66.5044 46.9883C66.4025 46.9643 66.3397 46.8612 66.3634 46.7581C66.3872 46.655 66.4891 46.5914 66.591 46.6154L74.7649 48.5661C74.8668 48.5901 74.9297 48.6932 74.9059 48.7963C74.8852 48.8847 74.8078 48.9436 74.722 48.9436V48.9444Z" fill="#B5C1CF"/>
<path id="Vector_48" d="M74.3646 50.1109C74.35 50.1109 74.3355 50.1094 74.3209 50.1055L66.147 48.1548C66.0451 48.1308 65.9822 48.0277 66.006 47.9246C66.0297 47.8215 66.1317 47.7579 66.2336 47.7819L74.4075 49.7326C74.5094 49.7566 74.5722 49.8597 74.5477 49.9628C74.527 50.0512 74.4496 50.1101 74.3638 50.1101L74.3646 50.1109Z" fill="#B5C1CF"/>
<path id="Vector_49" d="M74.0281 51.2779C74.0136 51.2779 73.999 51.2763 73.9845 51.2725L65.8106 49.3218C65.7087 49.2978 65.6458 49.1947 65.6696 49.0916C65.6933 48.9885 65.7952 48.9249 65.8972 48.9489L74.0711 50.8996C74.173 50.9236 74.2358 51.0267 74.2121 51.1298C74.1914 51.2182 74.114 51.2771 74.0281 51.2771V51.2779Z" fill="#B5C1CF"/>
<path id="Vector_50" d="M73.2943 45.5159L69.0722 44.508C68.9465 44.4778 68.8676 44.3491 68.8974 44.2219L69.23 42.7969C69.2599 42.6698 69.3871 42.5899 69.5128 42.6202L73.735 43.6281C73.8606 43.6583 73.9396 43.787 73.9097 43.9141L73.5771 45.3391C73.5472 45.4663 73.42 45.5461 73.2943 45.5159Z" fill="#EE9849"/>
<path id="Vector_51" d="M64.5752 50.546C64.7201 50.0335 64.163 48.5613 63.8833 48.3822C63.6036 48.2031 63.2887 48.9838 63.0205 49.9537C62.7523 50.9236 62.8917 51.7686 63.1078 51.8043C63.3247 51.8392 64.4419 51.0182 64.5752 50.5468V50.546Z" fill="#FFB27D"/>
</g>
</svg>
