<?xml version="1.0" encoding="UTF-8"?>
<svg id="Warstwa_1" xmlns="http://www.w3.org/2000/svg" version="1.1" viewBox="0 0 30.6 35.5">
  <!-- Generator: Adobe Illustrator 29.0.1, SVG Export Plug-In . SVG Version: 2.1.0 Build 192)  -->
  <defs>
    <style>
      .st0 {
        fill: none;
      }

      .st1 {
        fill: #332d32;
      }

      .st2 {
        fill: #00bb27;
      }
    </style>
  </defs>
  <g>
    <path class="st0" d="M30.6,10l1.1-1.8-5.1-3.1-.2.3c1.7,1.3,3.1,2.9,4.2,4.7Z"/>
    <path class="st2" d="M11.7,29.7l3.5,5.8,3.5-5.8,11.8-19.7c-1.1-1.8-2.5-3.4-4.2-4.7l-11.1,18.5-3.5,5.8Z"/>
    <path class="st0" d="M4.1,5.3l-.2-.2-5.2,3.1L-.1,10c1.1-1.8,2.5-3.4,4.2-4.7h0Z"/>
    <path class="st1" d="M15.2,35.5l3.5-5.8-3.5-5.8L4.1,5.3C2.4,6.7,1,8.2-.1,10l11.8,19.7s3.5,5.8,3.5,5.8Z"/>
  </g>
  <path class="st1" d="M15.2,23.9h0l-3.5,5.8,3.5,5.8,3.5-5.8,2.1-3.5c-.4.1-.9.2-1.4.2-1.8,0-3.4-1-4.2-2.5h0Z"/>
  <circle class="st1" cx="15.2" cy="5.9" r="5.9"/>
</svg>