<?xml version="1.0" encoding="UTF-8"?>
<svg id="Warstwa_1" xmlns="http://www.w3.org/2000/svg" version="1.1" viewBox="0 0 120 28.8">
  <!-- Generator: Adobe Illustrator 29.0.1, SVG Export Plug-In . SVG Version: 2.1.0 Build 192)  -->
  <defs>
    <style>
      .st0 {
        fill: none;
      }

      .st1 {
        fill: #332d32;
      }

      .st2 {
        fill: #00bb27;
      }
    </style>
  </defs>
  <g>
    <path class="st1" d="M29.7,5.9h-7.7v3.7h6.6v3h-6.6v3.9h7.7v3h-11.2V3h11.2v3h0Z"/>
    <path class="st1" d="M42.8,19.5l-5.1-6.7-1.3,1.4v5.3h-3.6V3h3.6v7l6-7h4.4l-6.7,7.2,7.2,9.3h-4.5Z"/>
    <path class="st1" d="M57.9,3.1c.9.3,1.7.7,2.4,1.2l-1.5,2.6c-.6-.4-1.2-.7-2-1s-1.4-.4-2-.4-1.4.2-1.8.5-.7.8-.7,1.3.3,1,.8,1.3,1.3.7,2.4,1.1c1.1.4,2,.8,2.7,1.1s1.2.8,1.7,1.5.7,1.5.7,2.4-.3,2-.8,2.7c-.5.8-1.3,1.4-2.3,1.8s-2.1.6-3.4.6-2.1-.1-3.1-.4c-1.1-.3-2-.6-2.8-1.1l1.1-2.9c.8.4,1.6.7,2.4,1s1.7.4,2.5.4,1.6-.2,2-.5.7-.8.7-1.4-.2-1-.7-1.3-1.2-.6-2.2-1c-1.1-.4-2.1-.7-2.7-1.1-.7-.3-1.3-.8-1.8-1.5s-.7-1.5-.7-2.6.3-1.8.8-2.6c.5-.7,1.2-1.3,2.2-1.7s2-.6,3.2-.6,2.1.2,3.1.5h-.2Z"/>
    <path class="st1" d="M63.3,3h5.8c2.1,0,3.6.5,4.7,1.4s1.6,2.2,1.6,3.8-.2,2-.7,2.9-1.2,1.6-2.2,2.1-2.1.8-3.5.8h-2.3v5.5h-3.5V3h.1ZM69,11c.9,0,1.6-.2,2-.7.5-.5.7-1.1.7-2s-.2-1.4-.7-1.8-1.2-.6-2.1-.6h-2.2v5.1h2.3Z"/>
    <path class="st1" d="M88.9,5.9h-7.7v3.7h6.6v3h-6.6v3.9h7.7v3h-11.2V3h11.2v3h0Z"/>
    <path class="st1" d="M101.7,19.5l-3.3-5.6h-2.9v5.6h-3.5V3h6.2c2.3,0,3.9.5,5,1.4s1.6,2.2,1.6,3.8-.3,2.3-.8,3.2-1.3,1.5-2.4,1.9l3.9,6.3h-3.9.1ZM95.5,11h2.7c.9,0,1.6-.2,2.1-.7s.8-1.1.8-1.9-.3-1.4-.7-1.8-1.3-.6-2.4-.6h-2.5v5h0Z"/>
    <path class="st1" d="M111.5,6h-5v-3h13.5v3h-5v13.6h-3.5V6h0Z"/>
    <path class="st1" d="M23.4,22.8c.3,0,.5.2.6.3l-.3.5c-.3-.2-.7-.3-1.2-.3s-.5,0-.8.2-.4.3-.6.6c-.1.3-.2.6-.2,1,0,.6.1,1.1.4,1.4s.6.4,1.1.4.5,0,.7-.1.4-.2.6-.3l.3.4c-.2.2-.4.3-.7.4s-.6.1-.9.1-.8,0-1.1-.3c-.3-.2-.6-.4-.8-.8s-.3-.8-.3-1.3,0-1,.3-1.3.4-.6.8-.8c.3-.2.7-.3,1.1-.3s.6,0,.8.1h.2Z"/>
    <path class="st1" d="M27.7,25.9h-2.5c0,.8.4,1.1,1.1,1.1s.4,0,.6-.1.3-.2.5-.3l.3.4c-.2.2-.4.3-.6.4-.2,0-.5.1-.8.1s-.6,0-.8-.2-.4-.3-.6-.6c-.1-.3-.2-.6-.2-1s0-.7.2-1c.1-.3.3-.5.6-.6.2-.1.5-.2.9-.2s.6,0,.8.2c.2.1.4.3.5.6.1.2.2.5.2.8v.4h-.2ZM25.5,24.6c-.2.2-.3.5-.3.8h2c0-.3,0-.6-.3-.8s-.4-.3-.7-.3-.5,0-.7.3h0Z"/>
    <path class="st1" d="M28.5,24h.4v.5h.1l.5-.5c.2,0,.4-.2.7-.2s.6,0,.9.3.3.5.3.9v2.4h-.6v-2.2c0-.3,0-.5-.2-.6s-.3-.2-.5-.2c-.4,0-.8.2-1.1.6v2.3h-.6v-3.4h.1Z"/>
    <path class="st1" d="M32.6,26.7v-2.3h-.6v-.5h.6v-.5l.3-.4h.3v.9h.8v.5h-.8v2.5c0,0,0,0,.2,0s.3,0,.5-.1l.2.4c-.2.1-.5.2-.7.2-.5,0-.8-.3-.8-.7h0Z"/>
    <path class="st1" d="M34.8,24h.4v.5h0c.2-.4.4-.6.8-.6h.4v.5h-.4c-.3,0-.6.2-.8.7v2.2h-.6v-3.4h0Z"/>
    <path class="st1" d="M40.1,24v3.4h-.4v-.5c-.3.2-.5.3-.6.4s-.4.2-.7.2-.6,0-.8-.3c-.2-.2-.3-.5-.3-.9v-2.3h.6v2.2c0,.6.2.8.6.8s.4,0,.6-.2c.2-.1.3-.3.5-.4v-2.4h.6,0Z"/>
    <path class="st1" d="M45.6,24.2c.2.2.3.5.3.9v2.3h-.6v-2.3c0-.5-.2-.7-.6-.7s-.3,0-.5.2-.3.3-.4.5v2.4h-.6v-2.3c0-.2,0-.4-.2-.5s-.3-.2-.4-.2-.4,0-.5.2-.3.3-.4.5v2.4h-.6v-3.4h.5v.5h0c0-.2.3-.3.4-.4s.4-.1.6-.1.5,0,.6.1.3.3.4.5c0-.2.3-.4.5-.5s.4-.1.6-.1c.3,0,.6,0,.8.3h0v-.3Z"/>
    <path class="st1" d="M48.9,22.8h1.4c.5,0,.9.1,1.2.4.3.2.4.6.4,1s0,.5-.2.8c0,.2-.3.4-.5.5s-.5.2-.9.2h-.8v1.7h-.6v-4.6h0ZM50.2,25.1c.3,0,.6,0,.7-.3s.3-.4.3-.7c0-.6-.3-.9-1-.9h-.8v1.8h.8Z"/>
    <path class="st1" d="M52.6,24h.4v.5h0c.2-.4.4-.6.8-.6h.4v.5h-.4c-.3,0-.6.2-.8.7v2.2h-.6v-3.4h0Z"/>
    <path class="st1" d="M57.1,24.1c.3.1.5.3.6.6.2.3.2.6.2,1s0,.7-.2,1-.4.5-.6.6-.5.2-.8.2-.6,0-.8-.2-.5-.3-.6-.6c-.2-.3-.2-.6-.2-1s0-.7.2-1,.4-.5.6-.6.5-.2.8-.2.6,0,.8.2ZM55.5,24.7c-.2.2-.3.5-.3.9s0,.7.3.9.5.3.8.3.6-.1.8-.3.3-.5.3-.9,0-.7-.3-.9c-.2-.2-.5-.3-.8-.3s-.6.1-.8.3h0Z"/>
    <path class="st1" d="M60.5,22.5v.5h-.5c-.3,0-.5.2-.5.5v.6h.9v.5h-.9v2.9h-.6v-2.9h-.5v-.5h.5v-.6c0-.3,0-.6.3-.7s.4-.2.8-.2h.5ZM61.7,22.8s0,.2,0,.3,0,.2,0,.3-.2,0-.3,0h-.3s0-.2,0-.3,0-.2,0-.3h.6ZM61.7,27.4h-.6v-3.4h.6v3.4Z"/>
    <path class="st1" d="M63.4,27.4h-.6v-4.9h.6v4.9Z"/>
    <path class="st1" d="M67.4,27v.4h-.4c-.2,0-.3,0-.4-.1,0,0-.2-.2-.2-.4-.3.3-.7.5-1.2.5s-.6,0-.8-.3-.3-.4-.3-.7,0-.6.4-.8.6-.3,1-.3h.8v-.5c0-.3,0-.4-.2-.6-.2-.1-.3-.2-.6-.2s-.6.1-.9.3l-.3-.4c.4-.3.8-.5,1.3-.5s.8,0,1,.3c.2.2.3.5.3.9v1.6c0,.2,0,.3.2.3h.2v.5ZM66,26.9c.2,0,.3-.2.4-.4v-.5h-.8c-.2,0-.4,0-.6.1s-.2.2-.2.4,0,.3.2.4.3.1.5.1.4,0,.6-.1h0Z"/>
    <path class="st1" d="M70.3,27.4l-1.2-1.6-.4.5v1.1h-.6v-4.9h.6v3.1l1.4-1.6h.7l-1.3,1.4,1.5,2h-.7Z"/>
    <path class="st1" d="M71.8,26.7v-2.3h-.6v-.5h.6v-.5l.3-.4h.3v.9h.8v.5h-.8v2.5c0,0,0,0,.2,0s.3,0,.5-.1l.2.4c-.2.1-.5.2-.7.2-.5,0-.8-.3-.8-.7h0Z"/>
    <path class="st1" d="M77.1,24l-1.3,3.7c0,.4-.3.7-.5.9s-.5.3-.8.3h-.6v-.5h.5c0,0,.3,0,.4-.2,0-.1.2-.3.3-.4v-.2l-1.4-3.6h.6l1.1,2.9,1-2.9h.7Z"/>
    <path class="st1" d="M79.9,27.4l-1.2-1.6-.4.5v1.1h-.6v-4.9h.6v3.1l1.4-1.6h.7l-1.3,1.4,1.5,2h-.7Z"/>
    <path class="st1" d="M81.8,22.8s0,.2,0,.3,0,.2,0,.3h-.6c-.1,0,0-.2,0-.3s0-.2,0-.3h.6ZM81.8,27.4h-.6v-3.4h.6v3.4Z"/>
    <path class="st1" d="M85.3,27.1c-.3-.3-.5-.7-.5-1.3v-2.9h.6v3c0,.4,0,.6.3.9s.5.3.9.3.6,0,.9-.3c.2-.2.3-.5.3-.9v-3h.6v2.9c0,.6-.2,1-.5,1.3s-.7.4-1.3.4-.9-.1-1.3-.4h0Z"/>
    <path class="st1" d="M91.8,24.4l-1.9,2.5h2v.5h-2.6v-.4l1.8-2.5h-1.8v-.5h2.5v.5h0Z"/>
    <path class="st1" d="M95.5,27v.4h-.4c-.2,0-.3,0-.4-.1,0,0,0-.2-.2-.4-.3.3-.7.5-1.2.5s-.6,0-.8-.3-.3-.4-.3-.7,0-.6.4-.8.6-.3,1-.3h.8v-.5c0-.3,0-.4-.2-.6s-.3-.2-.6-.2-.6.1-.9.3l-.3-.4c.4-.3.8-.5,1.3-.5s.8,0,1,.3c.2.2.3.5.3.9v1.6c0,.2,0,.3.2.3h.2v.5ZM94.1,26.9c.2,0,.3-.2.4-.4v-.5h-.8c-.2,0-.4,0-.6.1s-.2.2-.2.4,0,.3.2.4.3.1.5.1.4,0,.6-.1h0Z"/>
    <path class="st1" d="M96.8,27.4h-.6v-4.9h.6v4.9Z"/>
    <path class="st1" d="M100.7,25.9h-2.5c0,.8.4,1.1,1.1,1.1s.4,0,.6-.1.3-.2.5-.3l.3.4c-.2.2-.4.3-.6.4s-.5.1-.8.1-.6,0-.8-.2-.4-.3-.6-.6-.2-.6-.2-1,0-.7.2-1c0-.3.3-.5.6-.6.3-.1.5-.2.9-.2s.6,0,.8.2c.2.1.4.3.5.6,0,.2.2.5.2.8v.4h-.2ZM98.5,24.6c-.2.2-.3.5-.3.8h2c0-.3,0-.6-.3-.8s-.4-.3-.7-.3-.5,0-.7.3h0Z"/>
    <path class="st1" d="M103.9,24.4l-1.9,2.5h2v.5h-2.6v-.4l1.8-2.5h-1.8v-.5h2.5v.5h0ZM103,22.8s0,.2,0,.3,0,.2,0,.3h-.6c-.1,0,0-.2,0-.3s0-.2,0-.3h.6Z"/>
    <path class="st1" d="M104.7,24h.4v.5h0c.2-.2.3-.3.5-.5.2,0,.4-.2.7-.2s.6,0,.9.3.3.5.3.9v2.4h-.6v-2.2c0-.3,0-.5-.2-.6s-.3-.2-.5-.2c-.4,0-.8.2-1.1.6v2.3h-.6v-3.4h0Z"/>
    <path class="st1" d="M109.2,22.8s0,.2,0,.3,0,.2,0,.3h-.6c-.1,0,0-.2,0-.3s0-.2,0-.3h.6ZM109.2,27.4h-.6v-3.4h.6v3.4Z"/>
    <path class="st1" d="M113.1,25.9h-2.5c0,.8.4,1.1,1.1,1.1s.4,0,.6-.1.3-.2.5-.3l.3.4c-.2.2-.4.3-.6.4-.2,0-.5.1-.8.1s-.6,0-.8-.2-.4-.3-.6-.6c0-.3-.2-.6-.2-1s0-.7.2-1c0-.3.3-.5.6-.6.3-.1.5-.2.9-.2s.6,0,.8.2c.2.1.4.3.5.6,0,.2.2.5.2.8v.4h-.2ZM110.9,24.6c-.2.2-.3.5-.3.8h2c0-.3,0-.6-.3-.8s-.4-.3-.7-.3-.5,0-.7.3h0Z"/>
    <path class="st1" d="M114,24h.4v.5h0c.2-.2.3-.3.5-.5.2,0,.4-.2.7-.2s.6,0,.9.3.3.5.3.9v2.4h-.6v-2.2c0-.3,0-.5-.2-.6s-.3-.2-.5-.2c-.4,0-.8.2-1.1.6v2.3h-.6v-3.4h0ZM115.5,23.5h-.4l.5-.8h.7l-.8.8h0Z"/>
  </g>
  <g>
    <g>
      <path class="st0" d="M16.2,5.1l.6-.9-2.6-1.6h0c.9.8,1.6,1.6,2.1,2.5h-.1Z"/>
      <path class="st2" d="M6.6,15.1l1.8,3,1.8-3,6-10c-.6-.9-1.3-1.7-2.1-2.4l-5.7,9.5-1.8,3h0Z"/>
      <path class="st0" d="M2.7,2.7h0c0,0-2.6,1.4-2.6,1.4l.6.9c.6-.9,1.3-1.7,2.1-2.4h-.1Z"/>
      <path class="st1" d="M8.4,18.1l1.8-3-1.8-3L2.7,2.7c-.9.7-1.6,1.5-2.1,2.4l6,10,1.8,3h0Z"/>
    </g>
    <path class="st1" d="M8.4,12.2h0l-1.8,3,1.8,3,1.8-3,1.1-1.8c-.2,0-.4.1-.7.1-.9,0-1.7-.5-2.2-1.3h0Z"/>
    <circle class="st1" cx="8.4" cy="3" r="3"/>
  </g>
</svg>