<svg width="202" height="48" viewBox="0 0 202 48" fill="none" xmlns="http://www.w3.org/2000/svg">
<g id="Group">
<path id="Vector" d="M50.5695 9.89577H37.7576V16.1274H48.8011V21.0924H37.7576V27.5621H50.5695V32.5695H31.9595V4.96484H50.5695V9.89577Z" fill="#F6F6F6"/>
<path id="Vector_2" d="M72.3759 32.5695L63.8148 21.4069L61.6894 23.7364V32.5695H55.7383V4.96484H61.6894V16.714L71.7808 4.96484H79.0752L67.9126 17.0286L79.8573 32.561H72.3674L72.3759 32.5695Z" fill="#F6F6F6"/>
<path id="Vector_3" d="M97.5746 5.118C99.1559 5.6451 100.482 6.29122 101.553 7.04786L99.1049 11.3837C98.1272 10.7035 97.0475 10.1509 95.8488 9.72586C94.6501 9.30928 93.5108 9.09674 92.4396 9.09674C91.1219 9.09674 90.1017 9.36879 89.3621 9.90439C88.6224 10.44 88.2569 11.1881 88.2569 12.1318C88.2569 13.0755 88.6904 13.8236 89.5576 14.3592C90.4248 14.8948 91.751 15.4814 93.5364 16.1106C95.3727 16.7652 96.852 17.3688 97.9487 17.9214C99.0539 18.474 100.023 19.2817 100.848 20.3444C101.672 21.4071 102.089 22.7673 102.089 24.4251C102.089 26.1849 101.638 27.7152 100.729 28.999C99.819 30.2827 98.5523 31.2774 96.92 31.9745C95.2877 32.6717 93.4258 33.0202 91.3174 33.0202C89.6086 33.0202 87.8658 32.7907 86.089 32.3316C84.3121 31.8725 82.7563 31.2434 81.4131 30.4613L83.2239 25.6493C84.4822 26.3295 85.8169 26.8821 87.2282 27.2817C88.6309 27.6897 90.0167 27.8938 91.3855 27.8938C92.8817 27.8938 94.0039 27.6047 94.7606 27.0266C95.5087 26.4485 95.8828 25.6834 95.8828 24.7397C95.8828 23.796 95.4747 23.0564 94.6586 22.5293C93.8424 22.0022 92.5927 21.4666 90.9094 20.914C89.0135 20.3103 87.4917 19.7237 86.3355 19.1626C85.1793 18.593 84.1846 17.7684 83.3599 16.6802C82.5353 15.592 82.1187 14.1637 82.1187 12.4039C82.1187 10.7716 82.5438 9.35179 83.4025 8.12756C84.2526 6.90333 85.4598 5.96816 87.0071 5.30503C88.5544 4.65041 90.3483 4.31885 92.3716 4.31885C94.242 4.31885 95.9593 4.5824 97.5406 5.1095L97.5746 5.118Z" fill="#F6F6F6"/>
<path id="Vector_4" d="M106.527 4.96484H116.185C119.628 4.96484 122.263 5.74699 124.091 7.31128C125.919 8.87558 126.829 11.001 126.829 13.679C126.829 15.4643 126.42 17.0881 125.604 18.5504C124.788 20.0127 123.581 21.1689 121.974 22.036C120.367 22.9032 118.438 23.3368 116.176 23.3368H112.308V32.561H106.51V4.96484H106.527ZM116.032 18.4144C117.502 18.4144 118.642 18.0233 119.441 17.2326C120.24 16.442 120.639 15.3538 120.639 13.9595C120.639 12.5653 120.24 11.5706 119.441 10.9075C118.642 10.2358 117.485 9.90427 115.989 9.90427H112.325V18.4229H116.032V18.4144Z" fill="#F6F6F6"/>
<path id="Vector_5" d="M149.188 9.89577H136.376V16.1274H147.42V21.0924H136.376V27.5621H149.188V32.5695H130.578V4.96484H149.188V9.89577Z" fill="#F6F6F6"/>
<path id="Vector_6" d="M170.484 32.5695L164.924 23.2603H160.155V32.5695H154.357V4.96484H164.686C168.47 4.96484 171.258 5.72149 173.043 7.23477C174.829 8.74805 175.721 10.8564 175.721 13.56C175.721 15.6854 175.254 17.4622 174.319 18.882C173.383 20.3017 172.074 21.3814 170.399 22.1126L176.903 32.561H170.476L170.484 32.5695ZM160.155 18.2953H164.686C166.208 18.2953 167.398 17.9043 168.257 17.1306C169.107 16.357 169.541 15.2858 169.541 13.917C169.541 12.5483 169.124 11.5706 168.3 10.899C167.475 10.2273 166.149 9.89577 164.338 9.89577H160.155V18.2953Z" fill="#F6F6F6"/>
<path id="Vector_7" d="M186.893 9.92977H178.536V4.96484H201.056V9.92977H192.699V32.561H186.901V9.92977H186.893Z" fill="#F6F6F6"/>
<path id="Vector_8" d="M39.9427 38.0786C40.3678 38.1977 40.7248 38.3677 41.0139 38.5887L40.5123 39.3794C39.9597 39.0138 39.3051 38.8353 38.5484 38.8353C38.0723 38.8353 37.6388 38.9458 37.2562 39.1668C36.8651 39.3879 36.5591 39.7279 36.3295 40.1955C36.1 40.6546 35.981 41.2327 35.981 41.9129C35.981 42.9245 36.219 43.6727 36.6951 44.1743C37.1712 44.6759 37.7833 44.9224 38.5484 44.9224C38.9735 44.9224 39.3561 44.8629 39.6877 44.7439C40.0192 44.6249 40.3423 44.4378 40.6483 44.1913L41.1839 44.9394C40.8524 45.2285 40.4613 45.458 40.0107 45.6196C39.5516 45.7811 39.05 45.8576 38.5059 45.8576C37.8173 45.8576 37.2052 45.7131 36.6696 45.4155C36.134 45.1265 35.7089 44.6759 35.3943 44.0808C35.0798 43.4856 34.9268 42.746 34.9268 41.8703C34.9268 40.9947 35.0883 40.272 35.4028 39.6684C35.7174 39.0733 36.151 38.6227 36.7036 38.3337C37.2477 38.0446 37.8683 37.8916 38.5654 37.8916C39.0585 37.8916 39.5261 37.9511 39.9427 38.0701V38.0786Z" fill="#F6F6F6"/>
<path id="Vector_9" d="M47.084 43.1456H42.9182C43.0287 44.4123 43.6579 45.0415 44.8056 45.0415C45.1796 45.0415 45.5197 44.982 45.8173 44.8629C46.1233 44.7439 46.3784 44.5909 46.5994 44.4038L47.0585 45.05C46.7524 45.305 46.4039 45.5006 46.0213 45.6451C45.6387 45.7896 45.1882 45.8576 44.6781 45.8576C44.168 45.8576 43.7004 45.7471 43.2838 45.5261C42.8672 45.305 42.5357 44.965 42.2891 44.5144C42.0426 44.0638 41.915 43.5197 41.915 42.8651C41.915 42.2104 42.0256 41.6918 42.2551 41.2328C42.4846 40.7737 42.7992 40.4166 43.2158 40.1786C43.6239 39.932 44.0999 39.813 44.6356 39.813C45.1712 39.813 45.6387 39.932 46.0128 40.1786C46.3954 40.4251 46.6759 40.7482 46.863 41.1562C47.05 41.5643 47.1435 42.0064 47.1435 42.491C47.1435 42.712 47.1265 42.9331 47.0925 43.1456H47.084ZM43.4453 41.0797C43.1393 41.3943 42.9607 41.8364 42.9182 42.423H46.2253C46.1998 41.8619 46.0638 41.4198 45.8003 41.0967C45.5367 40.7737 45.1626 40.6121 44.6696 40.6121C44.1765 40.6121 43.7599 40.7652 43.4453 41.0797Z" fill="#F6F6F6"/>
<path id="Vector_10" d="M48.5293 39.9746H49.2094L49.3625 40.8503H49.3965C49.677 40.5102 49.9661 40.2637 50.2806 40.0851C50.5867 39.9151 50.9693 39.8301 51.4028 39.8301C52.0064 39.8301 52.4825 39.9916 52.8141 40.3147C53.1457 40.6377 53.3157 41.1138 53.3157 41.7344V45.7132H52.3295V42.0235C52.3295 41.5559 52.236 41.2243 52.049 41.0288C51.8619 40.8333 51.5984 40.7397 51.2413 40.7397C50.5442 40.7397 49.9576 41.0968 49.49 41.8024V45.7132H48.5293V39.9746Z" fill="#F6F6F6"/>
<path id="Vector_11" d="M55.3218 44.6078V40.8161H54.3696V39.9744H55.3218V39.1327L55.8064 38.4951H56.325V39.9744H57.7278V40.8161H56.325V44.4292C56.325 44.6163 56.3675 44.7608 56.4525 44.8458C56.5375 44.9308 56.6566 44.9733 56.7926 44.9733C57.0136 44.9733 57.2602 44.9138 57.5492 44.7863L57.8128 45.5344C57.4387 45.747 57.0391 45.849 56.6226 45.849C55.7639 45.849 55.3303 45.4324 55.3303 44.5993L55.3218 44.6078Z" fill="#F6F6F6"/>
<path id="Vector_12" d="M59.0371 39.9746H59.7853L59.9638 40.8163H59.9978C60.2698 40.1616 60.7374 39.8301 61.4006 39.8301C61.6726 39.8301 61.8766 39.8811 62.0212 39.9746L61.8596 40.8588C61.6726 40.7908 61.4771 40.7568 61.2815 40.7568C60.6949 40.7568 60.2783 41.1648 60.0233 41.981V45.7047H59.0456V39.9661L59.0371 39.9746Z" fill="#F6F6F6"/>
<path id="Vector_13" d="M67.8192 39.9743V45.7129H67.105L66.8925 44.8542C66.6375 45.1773 66.3569 45.4238 66.0508 45.5854C65.7448 45.7469 65.3792 45.8404 64.9541 45.8404C64.393 45.8404 63.9424 45.6704 63.6024 45.3388C63.2623 45.0073 63.0923 44.4887 63.0923 43.8085V39.9743H64.07V43.579C64.07 44.4972 64.427 44.9563 65.1327 44.9563C65.4812 44.9563 65.7958 44.8712 66.0593 44.6842C66.3229 44.5057 66.5864 44.2591 66.8415 43.9446V39.9658H67.8192V39.9743Z" fill="#F6F6F6"/>
<path id="Vector_14" d="M77.0264 40.3402C77.3494 40.6802 77.5109 41.1648 77.5109 41.8024V45.7132H76.5163V41.879C76.5163 41.0968 76.1847 40.7057 75.5216 40.7057C75.2155 40.7057 74.935 40.7908 74.6884 40.9608C74.4419 41.1308 74.2123 41.3944 74.0083 41.7429V45.7047H72.9966V41.8365C72.9966 41.4369 72.9031 41.1478 72.716 40.9693C72.529 40.7908 72.2825 40.6972 71.9934 40.6972C71.6788 40.6972 71.3898 40.7908 71.1347 40.9863C70.8797 41.1818 70.6587 41.4284 70.4971 41.7429V45.7047H69.5024V39.9661H70.2676L70.3951 40.7908H70.4291C70.6587 40.4592 70.9137 40.2127 71.1773 40.0596C71.4408 39.9066 71.7724 39.8301 72.1549 39.8301C72.5715 39.8301 72.9116 39.9151 73.1836 40.0766C73.4557 40.2382 73.6682 40.5017 73.8213 40.8503C74.0678 40.4932 74.3483 40.2297 74.6544 40.0681C74.9605 39.9066 75.3005 39.8301 75.6831 39.8301C76.2527 39.8301 76.7033 40.0001 77.0264 40.3402Z" fill="#F6F6F6"/>
<path id="Vector_15" d="M82.4502 38.0444H84.8136C85.6808 38.0444 86.3439 38.2485 86.8115 38.6565C87.2706 39.0646 87.5001 39.6172 87.5001 40.3229C87.5001 40.7904 87.3981 41.2155 87.1941 41.5896C86.99 41.9637 86.684 42.2612 86.2844 42.4908C85.8848 42.7118 85.4003 42.8223 84.8306 42.8223H83.4704V45.7129H82.4502V38.0444ZM84.7541 41.9297C85.2982 41.9297 85.7063 41.7936 85.9954 41.5131C86.2759 41.2325 86.4204 40.85 86.4204 40.3484C86.4204 39.3962 85.8678 38.9286 84.7541 38.9286H83.4704V41.9297H84.7541Z" fill="#F6F6F6"/>
<path id="Vector_16" d="M88.6055 39.9746H89.3536L89.5321 40.8163H89.5661C89.8382 40.1616 90.3058 39.8301 90.9689 39.8301C91.241 39.8301 91.445 39.8811 91.5895 39.9746L91.428 40.8588C91.241 40.7908 91.0454 40.7568 90.8499 40.7568C90.2633 40.7568 89.8467 41.1648 89.5917 41.981V45.7047H88.614V39.9661L88.6055 39.9746Z" fill="#F6F6F6"/>
<path id="Vector_17" d="M96.2146 40.1616C96.6397 40.3827 96.9883 40.7142 97.2433 41.1648C97.4984 41.6154 97.6344 42.1765 97.6344 42.8481C97.6344 43.5198 97.5069 44.0809 97.2433 44.5315C96.9798 44.982 96.6397 45.3136 96.2146 45.5347C95.7896 45.7557 95.322 45.8662 94.8204 45.8662C94.3188 45.8662 93.8512 45.7557 93.4261 45.5347C93.001 45.3136 92.6525 44.982 92.3974 44.5315C92.1424 44.0809 92.0063 43.5198 92.0063 42.8481C92.0063 42.1765 92.1339 41.6154 92.3974 41.1648C92.6525 40.7142 93.001 40.3827 93.4261 40.1616C93.8512 39.9406 94.3188 39.8301 94.8204 39.8301C95.322 39.8301 95.7896 39.9406 96.2146 40.1616ZM93.5026 41.2753C93.1796 41.6494 93.018 42.1765 93.018 42.8481C93.018 43.5198 93.1796 44.0469 93.5026 44.4209C93.8257 44.795 94.2593 44.982 94.8204 44.982C95.3815 44.982 95.8151 44.795 96.1381 44.4124C96.4612 44.0299 96.6227 43.5113 96.6227 42.8481C96.6227 42.185 96.4612 41.6579 96.1381 41.2839C95.8151 40.9013 95.373 40.7142 94.8204 40.7142C94.2678 40.7142 93.8257 40.9013 93.5026 41.2753Z" fill="#F6F6F6"/>
<path id="Vector_18" d="M101.893 37.4496L101.732 38.2317C101.553 38.1807 101.349 38.1552 101.137 38.1552C100.55 38.1552 100.261 38.4188 100.261 38.9544V39.9746H101.672V40.8162H100.261V45.7131H99.2664V40.8162H98.4077V39.9746H99.2664V38.9629C99.2664 38.4188 99.4194 38.0107 99.7255 37.7386C100.032 37.4666 100.457 37.3306 100.992 37.3306C101.332 37.3306 101.638 37.3731 101.893 37.4496ZM103.883 38.0022C104.01 38.1127 104.078 38.2657 104.078 38.4698C104.078 38.6738 104.01 38.8353 103.883 38.9374C103.755 39.0394 103.602 39.0989 103.415 39.0989C103.228 39.0989 103.084 39.0479 102.956 38.9374C102.829 38.8268 102.769 38.6738 102.769 38.4698C102.769 38.2657 102.829 38.1127 102.956 38.0022C103.084 37.9002 103.237 37.8407 103.415 37.8407C103.594 37.8407 103.755 37.8917 103.883 38.0022ZM103.908 45.7046H102.922V39.9661H103.908V45.7046Z" fill="#F6F6F6"/>
<path id="Vector_19" d="M106.672 45.7131H105.686V37.4751H106.672V45.7131Z" fill="#F6F6F6"/>
<path id="Vector_20" d="M113.362 45.0073L113.286 45.6619C113.158 45.7384 112.971 45.7809 112.724 45.7809C112.478 45.7809 112.265 45.7129 112.121 45.5854C111.968 45.4578 111.866 45.2538 111.815 44.9733C111.313 45.5514 110.676 45.8404 109.902 45.8404C109.366 45.8404 108.924 45.6959 108.567 45.4153C108.21 45.1348 108.04 44.7267 108.04 44.2081C108.04 43.63 108.261 43.1964 108.695 42.9159C109.137 42.6353 109.681 42.4908 110.352 42.4908C110.582 42.4908 110.829 42.5078 111.092 42.5333C111.356 42.5588 111.568 42.5928 111.73 42.6353V41.8787C111.73 41.4451 111.602 41.139 111.356 40.9435C111.101 40.748 110.778 40.6544 110.361 40.6544C109.8 40.6544 109.273 40.8415 108.78 41.2155L108.355 40.5779C108.958 40.0763 109.681 39.8213 110.514 39.8213C111.237 39.8213 111.789 39.9913 112.155 40.3399C112.529 40.68 112.716 41.1985 112.716 41.8702V44.5567C112.716 44.8627 112.835 45.0158 113.073 45.0158H113.354L113.362 45.0073ZM111.033 44.8287C111.322 44.6757 111.56 44.4717 111.747 44.2081V43.3495C111.594 43.3154 111.39 43.2814 111.126 43.2474C110.863 43.2219 110.633 43.2049 110.42 43.2049C110.012 43.2049 109.672 43.2814 109.4 43.4345C109.128 43.5875 108.992 43.834 108.992 44.1656C108.992 44.4632 109.103 44.6842 109.324 44.8372C109.545 44.9903 109.8 45.0583 110.106 45.0583C110.437 45.0583 110.744 44.9818 111.041 44.8287H111.033Z" fill="#F6F6F6"/>
<path id="Vector_21" d="M118.242 45.7131L116.261 43.0946L115.538 43.8853V45.7131H114.552V37.4751H115.538V42.7206L117.927 39.9746H119.101L116.907 42.3805L119.458 45.7131H118.242Z" fill="#F6F6F6"/>
<path id="Vector_22" d="M120.767 44.6078V40.8161H119.815V39.9744H120.767V39.1327L121.252 38.4951H121.77V39.9744H123.173V40.8161H121.77V44.4292C121.77 44.6163 121.813 44.7608 121.898 44.8458C121.983 44.9308 122.102 44.9733 122.238 44.9733C122.459 44.9733 122.705 44.9138 122.995 44.7863L123.258 45.5344C122.884 45.747 122.493 45.849 122.068 45.849C121.209 45.849 120.776 45.4324 120.776 44.5993L120.767 44.6078Z" fill="#F6F6F6"/>
<path id="Vector_23" d="M129.49 39.9746L127.254 46.0788C127.024 46.7249 126.727 47.201 126.387 47.524C126.038 47.8471 125.605 48.0086 125.086 48.0086C124.755 48.0086 124.44 47.9576 124.142 47.8641L124.321 47.0989C124.406 47.1245 124.517 47.15 124.644 47.1755C124.772 47.201 124.882 47.2095 124.993 47.2095C125.231 47.2095 125.46 47.1244 125.681 46.9374C125.894 46.7589 126.064 46.5123 126.191 46.1893L126.302 45.8917L123.879 39.9746H124.916L126.778 44.88L128.461 39.9746H129.49Z" fill="#F6F6F6"/>
<path id="Vector_24" d="M134.217 45.7131L132.236 43.0946L131.513 43.8853V45.7131H130.527V37.4751H131.513V42.7206L133.902 39.9746H135.075L132.882 42.3805L135.432 45.7131H134.217Z" fill="#F6F6F6"/>
<path id="Vector_25" d="M137.371 38.0024C137.498 38.1129 137.558 38.2659 137.558 38.4699C137.558 38.674 137.498 38.8355 137.371 38.9375C137.243 39.048 137.09 39.0991 136.903 39.0991C136.716 39.0991 136.571 39.048 136.444 38.9375C136.316 38.827 136.257 38.674 136.257 38.4699C136.257 38.2659 136.316 38.1129 136.444 38.0024C136.571 37.9003 136.724 37.8408 136.903 37.8408C137.081 37.8408 137.243 37.8918 137.371 38.0024ZM137.396 45.7048H136.41V39.9662H137.396V45.7048Z" fill="#F6F6F6"/>
<path id="Vector_26" d="M143.262 45.1433C142.71 44.6672 142.438 43.936 142.438 42.9414V38.0444H143.458V42.9839C143.458 43.5875 143.628 44.0636 143.959 44.3951C144.291 44.7267 144.767 44.8967 145.379 44.8967C145.991 44.8967 146.467 44.7352 146.799 44.3951C147.13 44.0636 147.3 43.596 147.3 42.9839V38.0444H148.321V42.9414C148.321 43.936 148.049 44.6672 147.496 45.1433C146.943 45.6194 146.246 45.8574 145.388 45.8574C144.529 45.8574 143.832 45.6194 143.279 45.1433H143.262Z" fill="#F6F6F6"/>
<path id="Vector_27" d="M153.991 40.7398L150.846 44.8545H154.102V45.7132H149.724V44.9905L152.81 40.8418H149.817V39.9746H153.991V40.7398Z" fill="#F6F6F6"/>
<path id="Vector_28" d="M160.232 45.0073L160.155 45.6619C160.028 45.7384 159.841 45.7809 159.594 45.7809C159.347 45.7809 159.135 45.7129 158.982 45.5854C158.829 45.4578 158.735 45.2538 158.684 44.9733C158.183 45.5514 157.545 45.8404 156.772 45.8404C156.236 45.8404 155.794 45.6959 155.437 45.4153C155.08 45.1348 154.91 44.7267 154.91 44.2081C154.91 43.63 155.131 43.1964 155.564 42.9159C156.006 42.6353 156.55 42.4908 157.222 42.4908C157.452 42.4908 157.698 42.5078 157.962 42.5333C158.217 42.5588 158.438 42.5928 158.599 42.6353V41.8787C158.599 41.4451 158.472 41.139 158.225 40.9435C157.979 40.748 157.647 40.6544 157.231 40.6544C156.669 40.6544 156.142 40.8415 155.649 41.2155L155.224 40.5779C155.828 40.0763 156.55 39.8213 157.384 39.8213C158.106 39.8213 158.65 39.9913 159.024 40.3399C159.399 40.68 159.586 41.1985 159.586 41.8702V44.5567C159.586 44.8627 159.705 45.0158 159.951 45.0158H160.232V45.0073ZM157.902 44.8287C158.191 44.6757 158.429 44.4717 158.616 44.2081V43.3495C158.463 43.3154 158.259 43.2814 157.996 43.2474C157.741 43.2219 157.503 43.2049 157.29 43.2049C156.882 43.2049 156.542 43.2814 156.27 43.4345C155.998 43.5875 155.862 43.834 155.862 44.1656C155.862 44.4632 155.972 44.6842 156.193 44.8372C156.414 44.9903 156.669 45.0583 156.976 45.0583C157.307 45.0583 157.613 44.9818 157.911 44.8287H157.902Z" fill="#F6F6F6"/>
<path id="Vector_29" d="M162.399 45.7131H161.413V37.4751H162.399V45.7131Z" fill="#F6F6F6"/>
<path id="Vector_30" d="M168.92 43.1456H164.754C164.865 44.4123 165.494 45.0415 166.642 45.0415C167.016 45.0415 167.356 44.982 167.653 44.8629C167.959 44.7439 168.214 44.5909 168.435 44.4038L168.894 45.05C168.588 45.305 168.24 45.5006 167.857 45.6451C167.475 45.7896 167.024 45.8576 166.514 45.8576C166.004 45.8576 165.536 45.7471 165.12 45.5261C164.703 45.305 164.372 44.965 164.125 44.5144C163.879 44.0638 163.751 43.5197 163.751 42.8651C163.751 42.2104 163.862 41.6918 164.091 41.2328C164.321 40.7737 164.635 40.4166 165.052 40.1786C165.468 39.932 165.936 39.813 166.471 39.813C167.007 39.813 167.475 39.932 167.849 40.1786C168.231 40.4251 168.512 40.7482 168.699 41.1562C168.886 41.5643 168.979 42.0064 168.979 42.491C168.979 42.712 168.962 42.9331 168.92 43.1456ZM165.281 41.0797C164.967 41.3943 164.797 41.8364 164.754 42.423H168.061C168.036 41.8619 167.9 41.4198 167.636 41.0967C167.373 40.7737 166.999 40.6121 166.505 40.6121C166.012 40.6121 165.596 40.7652 165.281 41.0797Z" fill="#F6F6F6"/>
<path id="Vector_31" d="M174.191 40.7397L171.046 44.8544H174.302V45.7131H169.923V44.9905L173.009 40.8417H170.017V39.9745H174.191V40.7397ZM172.661 38.0107C172.788 38.1212 172.856 38.2742 172.856 38.4782C172.856 38.6823 172.788 38.8438 172.661 38.9458C172.533 39.0563 172.38 39.1074 172.193 39.1074C172.006 39.1074 171.862 39.0563 171.734 38.9458C171.607 38.8353 171.547 38.6823 171.547 38.4782C171.547 38.2742 171.607 38.1212 171.734 38.0107C171.862 37.9086 172.015 37.8491 172.193 37.8491C172.372 37.8491 172.533 37.9001 172.661 38.0107Z" fill="#F6F6F6"/>
<path id="Vector_32" d="M175.543 39.9746H176.223L176.376 40.8503H176.41C176.691 40.5102 176.98 40.2637 177.294 40.0851C177.609 39.9151 177.983 39.8301 178.416 39.8301C179.02 39.8301 179.496 39.9916 179.828 40.3147C180.159 40.6377 180.329 41.1138 180.329 41.7344V45.7132H179.343V42.0235C179.343 41.5559 179.25 41.2243 179.063 41.0288C178.876 40.8333 178.604 40.7397 178.255 40.7397C177.558 40.7397 176.971 41.0968 176.504 41.8024V45.7132H175.543V39.9746Z" fill="#F6F6F6"/>
<path id="Vector_33" d="M182.982 38.0024C183.109 38.1129 183.169 38.2659 183.169 38.4699C183.169 38.674 183.109 38.8355 182.982 38.9375C182.854 39.048 182.701 39.0991 182.514 39.0991C182.327 39.0991 182.183 39.048 182.055 38.9375C181.928 38.827 181.868 38.674 181.868 38.4699C181.868 38.2659 181.928 38.1129 182.055 38.0024C182.183 37.9003 182.336 37.8408 182.514 37.8408C182.693 37.8408 182.854 37.8918 182.982 38.0024ZM183.007 45.7048H182.021V39.9662H183.007V45.7048Z" fill="#F6F6F6"/>
<path id="Vector_34" d="M189.554 43.1456H185.388C185.498 44.4123 186.128 45.0415 187.275 45.0415C187.649 45.0415 187.989 44.982 188.287 44.8629C188.593 44.7439 188.848 44.5909 189.069 44.4038L189.528 45.05C189.222 45.305 188.874 45.5006 188.491 45.6451C188.108 45.7896 187.658 45.8576 187.148 45.8576C186.638 45.8576 186.17 45.7471 185.754 45.5261C185.337 45.305 185.005 44.965 184.759 44.5144C184.512 44.0638 184.385 43.5197 184.385 42.8651C184.385 42.2104 184.495 41.6918 184.725 41.2328C184.954 40.7737 185.269 40.4166 185.686 40.1786C186.102 39.932 186.57 39.813 187.105 39.813C187.641 39.813 188.108 39.932 188.483 40.1786C188.865 40.4251 189.146 40.7482 189.333 41.1562C189.52 41.5643 189.613 42.0064 189.613 42.491C189.613 42.712 189.596 42.9331 189.554 43.1456ZM185.915 41.0797C185.6 41.3943 185.43 41.8364 185.388 42.423H188.695C188.67 41.8619 188.534 41.4198 188.27 41.0967C188.006 40.7737 187.632 40.6121 187.139 40.6121C186.646 40.6121 186.23 40.7652 185.915 41.0797Z" fill="#F6F6F6"/>
<path id="Vector_35" d="M190.999 39.9744H191.679L191.832 40.85H191.866C192.147 40.51 192.436 40.2634 192.75 40.0849C193.065 39.9149 193.439 39.8299 193.873 39.8299C194.476 39.8299 194.952 39.9914 195.284 40.3144C195.615 40.6375 195.785 41.1136 195.785 41.7342V45.713H194.799V42.0233C194.799 41.5557 194.706 41.2241 194.519 41.0286C194.332 40.833 194.06 40.7395 193.711 40.7395C193.014 40.7395 192.427 41.0966 191.96 41.8022V45.713H190.999V39.9744ZM193.498 39.2517H192.784L193.567 37.917H194.816L193.498 39.2517Z" fill="#F6F6F6"/>
<path id="Vector_36" d="M11.9639 25.2665L14.9394 30.223L17.915 25.2665L27.9809 8.51838C27.0287 6.9966 25.8215 5.65335 24.4102 4.55664L14.9394 20.3186L11.9639 25.2665Z" fill="#00BB29"/>
<path id="Vector_37" d="M14.9394 30.2232L17.915 25.2667L14.9394 20.3188L5.47712 4.54834C4.06586 5.65355 2.85863 6.9968 1.89795 8.51859L11.9638 25.2667L14.9394 30.2232Z" fill="#F6F6F6"/>
<path id="Vector_38" d="M14.9477 20.3105L11.9722 25.267L14.9477 30.2234L17.9233 25.267L19.7256 22.2744C19.3601 22.3849 18.9775 22.4615 18.5694 22.4615C17.0051 22.4615 15.6619 21.5858 14.9562 20.3105H14.9477Z" fill="#F6F6F6"/>
<path id="Vector_39" d="M14.9391 10.0999C17.7281 10.0999 19.9891 7.83896 19.9891 5.04995C19.9891 2.26094 17.7281 0 14.9391 0C12.1501 0 9.88916 2.26094 9.88916 5.04995C9.88916 7.83896 12.1501 10.0999 14.9391 10.0999Z" fill="#F6F6F6"/>
</g>
</svg>
