<?xml version="1.0" encoding="UTF-8" standalone="no"?>
<!-- Creator: CorelDRAW -->
<svg
   xmlns:dc="http://purl.org/dc/elements/1.1/"
   xmlns:cc="http://web.resource.org/cc/"
   xmlns:rdf="http://www.w3.org/1999/02/22-rdf-syntax-ns#"
   xmlns:svg="http://www.w3.org/2000/svg"
   xmlns="http://www.w3.org/2000/svg"
   xmlns:sodipodi="http://sodipodi.sourceforge.net/DTD/sodipodi-0.dtd"
   xmlns:inkscape="http://www.inkscape.org/namespaces/inkscape"
   xml:space="preserve"
   width="743.99994"
   height="867.79871"
   style="shape-rendering:geometricPrecision; text-rendering:geometricPrecision; image-rendering:optimizeQuality; fill-rule:evenodd; clip-rule:evenodd"
   viewBox="0 0 210 297"
   sodipodi:version="0.32"
   inkscape:version="0.45.1"
   sodipodi:docname="POL Krapkowice COA.svg"
   inkscape:output_extension="org.inkscape.output.svg.inkscape"
   sodipodi:docbase="C:\Users\Mistrz\Desktop"
   id="svg2"
   version="1.0"><metadata
   id="metadata97"><rdf:RDF><cc:Work
       rdf:about=""><dc:format>image/svg+xml</dc:format><dc:type
         rdf:resource="http://purl.org/dc/dcmitype/StillImage" /></cc:Work></rdf:RDF></metadata><sodipodi:namedview
   inkscape:window-height="480"
   inkscape:window-width="640"
   inkscape:pageshadow="2"
   inkscape:pageopacity="0.0"
   guidetolerance="10.0"
   gridtolerance="10.0"
   objecttolerance="10.0"
   borderopacity="1.0"
   bordercolor="#666666"
   pagecolor="#ffffff"
   id="namedview95" />
 <defs
   id="defs4">
  <style
   type="text/css"
   id="style6">
   
    .str1 {stroke:#00923F;stroke-width:2.4694}
    .str0 {stroke:#DA251D;stroke-width:2.4694}
    .fil2 {fill:none}
    .fil3 {fill:#0A0B0C}
    .fil0 {fill:#1F1A17}
    .fil5 {fill:white}
    .fil1 {fill:#0082C9}
    .fil4 {fill:#FACF00}
   
  </style>
   <clipPath
   id="id0">
    <rect
   x="-113.212"
   y="-213.576"
   width="464.73901"
   height="704.05603"
   id="rect9" />
   </clipPath>
 
  <metadata
   id="CorelCorpID_0Corel-Layer" />
  
  
  
  
  
  
  
  
  
  
  
  
  
  
  
  
  
  
  
  
  
  
  
  
  
  
  
  
  
  
  
  
  
  <sodipodi:namedview
   id="base"
   pagecolor="#ffffff"
   bordercolor="#666666"
   borderopacity="1.0"
   objecttolerance="10.0"
   gridtolerance="10.0"
   guidetolerance="10.0"
   inkscape:pageopacity="0.0"
   inkscape:pageshadow="2"
   inkscape:window-width="640"
   inkscape:window-height="480" />
  
  
  
  
  
  
  
  
 </defs>
 <g
   id="g2293"
   transform="matrix(0.5492745,0,0,0.5492745,-320.68333,77.681119)"><path
     id="path82"
     class="fil3"
     d="M 1006.78,168.685 L 1006.78,168.6853 C 1006.7798,295.6973 902.657,399.2883 774.992,399.2883 C 647.327,399.2883 543.204,295.6983 543.204,168.6853 L 543.204,168.685 L 543.204,-141.425 L 1006.78,-141.425 L 1006.78,168.685 L 1006.78,168.685 z "
     style="fill:#0a0b0c" /><path
     id="path84"
     class="fil1"
     d="M 1001.26,167.867 L 1001.26,167.8673 C 1001.2598,292.2653 899.616,393.7223 774.99,393.7223 C 650.364,393.7223 548.72,292.2643 548.719,167.8673 L 548.719,167.867 L 548.719,-135.859 L 1001.259,-135.859 L 1001.259,167.867 L 1001.26,167.867 L 1001.26,167.867 z "
     style="fill:#0082c9" /><path
     id="path86"
     class="fil3"
     d="M 680.335,-76.9967 C 674.5766,-71.638 674.5251,-65.2331 677.2413,-58.3717 C 681.9892,-61.8763 686.542,-63.2617 692.6788,-62.9655 C 695.6103,-62.8239 698.409,-62.3847 700.6163,-61.3092 C 703.5382,-59.8855 704.7013,-57.8152 705.7413,-54.903 C 709.2767,-55.1386 712.8827,-55.5221 716.3663,-54.6217 C 718.7739,-53.9994 721.4699,-52.3463 724.4913,-49.8717 C 708.6208,-51.3022 697.3359,-50.3875 689.8975,-45.278 L 687.9913,-43.9655 C 689.4996,-43.3753 690.7361,-42.8353 692.1475,-42.028 C 693.1457,-41.457 694.3347,-40.7598 695.4913,-40.1842 C 697.2507,-39.3087 699.3882,-39.4464 701.2725,-39.8092 C 709.5251,-41.3987 717.8618,-41.5716 726.1586,-40.7297 C 730.5097,-36.2503 734.9623,-29.5609 735.8975,-24.3092 C 737.0771,-17.6858 732.5849,-11.267 728.3038,-8.8092 C 725.6659,-7.2948 723.514,-7.4879 721.1475,-8.528 C 718.7811,-9.568 716.3243,-11.587 713.71,-13.653 C 709.3012,-17.1369 705.676,-19.5913 701.835,-19.4655 C 696.8105,-19.3007 693.3203,-14.3046 691.0225,-10.4342 L 692.9288,-8.903 C 694.2508,-10.1526 695.8308,-10.7293 698.3038,-9.6217 C 705.6969,-6.3113 712.7623,1.8021 721.6788,3.847 C 724.1405,4.4117 726.7428,4.0692 729.1163,3.2533 C 725.9024,5.9858 721.7355,7.936 717.2413,9.5033 L 715.0225,10.2845 L 716.8975,11.6595 C 720.6792,14.4318 725.2071,14.9813 729.46,13.8158 C 724.8824,21.0396 722.203,27.7492 722.21,36.9408 C 722.2104,37.4261 722.2189,37.9169 722.2322,38.4109 C 720.6957,39.7951 719.2562,40.714 717.8038,41.1595 C 716.1825,41.6569 714.5166,41.6141 712.3975,40.8158 C 708.67,39.4115 705.9254,38.0135 703.2725,36.972 C 700.6197,35.9306 698.0229,35.2555 694.835,35.5033 C 688.0859,36.0281 683.7677,38.2069 678.835,42.847 C 674.2675,47.1419 669.5316,48.7488 665.2725,48.4408 C 660.4945,48.0952 654.9595,45.363 651.71,40.9095 C 647.8318,35.5944 648.8259,29.1256 653.46,24.5658 C 656.4366,21.6371 660.9576,21.645 664.6788,23.5033 C 666.5208,24.4231 668.0777,25.586 669.585,26.597 C 671.0924,27.608 672.6102,28.5345 674.4288,28.5345 C 676.4344,28.5345 677.984,27.7722 678.9288,26.597 C 679.8736,25.4219 680.2407,24.0114 680.4913,22.6283 C 681.5736,16.6553 679.2495,9.4656 677.2725,4.7533 C 674.2177,-2.5282 669.5848,-9.3698 664.8663,-16.278 C 652.8084,-33.9307 642.5726,-52.5176 638.3975,-73.6217 C 634.9123,-91.2391 637.8472,-104.0944 640.6475,-113.2155 L 641.1475,-114.778 L 639.4913,-114.8092 C 629.2623,-114.9003 622.1209,-111.0647 617.7413,-105.0905 C 613.3617,-99.1162 611.6917,-91.1278 611.835,-82.8717 C 612.1928,-62.2755 621.231,-40.0364 628.5605,-23.5798 C 627.9302,-23.4367 627.3187,-23.2545 626.7273,-23.0354 C 612.1576,-44.9724 601.4301,-69.6134 596.1416,-96.6266 C 595.3093,-91.0991 594.15,-85.5346 594.2977,-79.9266 C 594.7111,-64.2481 602.9525,-45.3357 620.7552,-18.8133 C 620.5104,-18.5201 620.2762,-18.2164 620.0538,-17.903 C 619.794,-17.5368 619.5498,-17.1592 619.3213,-16.771 C 608.3668,-26.5887 598.2037,-36.6209 591.2725,-46.028 C 585.3245,-54.1006 581.8654,-62.3179 580.9913,-69.5905 L 580.7725,-71.528 L 579.1163,-70.4967 C 571.9623,-66.0156 567.5987,-60.4178 566.21,-53.9655 C 564.8214,-47.5131 566.4018,-40.3476 570.6788,-32.6842 C 577.0116,-21.3372 588.8594,-8.658 605.2795,5.8256 C 604.7371,6.5542 604.2782,7.3232 603.9052,8.1227 C 586.5845,3.5745 571.2574,-6.0303 558.9404,-18.8961 C 561.6456,-9.6745 564.9974,-3.2355 573.5225,2.8783 C 580.2232,7.7124 589.6334,11.9522 602.8369,15.7325 C 603.0064,16.8997 603.3181,18.0599 603.7658,19.1929 C 587.2921,19.4323 573.6533,16.0155 562.2725,11.472 L 560.2413,10.6595 L 560.585,12.8158 C 562.317,24.2235 568.5798,32.6751 577.3975,38.1283 C 585.9454,43.4146 596.8476,45.9352 608.4809,45.9185 C 608.5725,46.8468 608.7357,47.7589 608.9694,48.6475 C 596.3073,51.9017 582.0617,52.2431 568.7413,50.847 L 564.9288,50.4408 L 567.8038,52.972 C 572.1286,56.8063 578.8065,58.6927 586.7413,59.0345 C 594.5069,59.3691 603.5063,58.2274 612.7612,55.7011 C 613.2757,56.2785 613.8307,56.8248 614.4239,57.3361 C 598.5349,67.9591 582.8236,75.0363 567.46,73.6595 L 565.5225,73.472 L 566.21,75.3158 C 569.9029,85.1157 577.554,90.408 588.5225,90.6595 C 599.3275,90.9073 613.3796,86.5699 630.8814,77.6908 C 631.1323,78.1966 631.4057,78.6874 631.7025,79.1613 C 620.3732,91.4823 602.3548,102.5963 579.0435,111.3056 C 574.2748,113.0872 569.4377,114.6571 564.6068,116.2592 C 579.6122,119.8991 591.4075,116.3923 604.9288,109.0345 C 616.8611,102.757 628.4359,93.8533 637.9796,84.9318 C 638.4947,85.1991 639.0295,85.4436 639.5837,85.665 C 624.1655,117.6287 602.9995,139.4291 574.1163,148.1596 L 571.3663,149.0033 L 573.8663,150.4096 C 589.7792,159.4741 605.6187,160.435 620.7413,152.0346 C 635.596,143.7829 649.7575,126.7159 663.4095,99.8409 C 664.4484,100.8531 665.5705,101.7095 666.7537,102.4165 C 656.3943,131.5527 640.9832,155.2975 622.4385,171.5955 C 614.0027,179.0091 605.6693,183.3207 595.5819,187.6798 C 611.3765,186.9214 621.5058,182.7931 634.585,171.4721 C 643.9975,163.7539 652.7641,153.7705 658.4913,143.2533 C 665.0744,131.1646 668.0589,121.9752 675.0079,104.9631 C 675.4603,104.9961 675.9133,105.0148 676.3664,105.0193 C 671.9424,123.3106 668.0634,138.5471 663.3663,151.0033 C 651.6877,181.9737 635.3166,202.7856 615.7725,221.5033 L 614.0225,223.1596 L 616.3975,223.5971 C 635.7629,227.2319 654.2977,218.9112 669.4913,199.9096 C 684.4799,181.1643 696.382,152.0449 703.2432,113.2856 C 703.9085,113.6997 704.5923,114.0691 705.2917,114.3927 C 703.5081,159.5969 697.2111,190.5326 683.3663,209.2533 L 681.1163,212.3471 L 684.7413,211.1596 C 689.0209,209.7841 692.7257,206.3413 695.9288,201.2533 C 699.1319,196.1653 701.8625,189.3915 704.2413,181.1283 C 708.9464,164.7843 712.2087,142.5697 714.1756,116.1094 C 714.921,116.076 715.6671,116.0019 716.4111,115.8869 C 718.2964,138.9657 716.5633,159.8429 710.4913,178.0971 L 709.5225,180.9408 L 712.21,179.5971 C 730.8246,170.1699 740.5501,148.5807 745.1314,117.7999 C 745.2093,118.0336 745.2875,118.2681 745.3663,118.5033 C 747.6928,125.4509 750.4721,133.0033 752.6176,140.8265 C 748.781,144.975 745.4574,149.0015 742.5538,152.9408 C 735.6789,162.268 731.1679,170.7234 728.9288,178.6283 C 726.6617,186.6318 724.1232,195.7834 719.6788,202.8471 C 715.2344,209.9107 709.0637,214.8795 699.0538,214.9408 L 696.96,214.9408 L 697.9913,216.7846 C 699.7353,219.8415 702.5103,221.815 705.8441,222.8925 C 695.9109,232.0749 676.8502,240.8007 665.46,246.2533 C 663.9006,246.9998 662.5245,247.864 661.2725,248.0033 C 659.4514,248.2059 655.2308,249.0547 651.46,252.5658 C 642.7723,253.8383 636.6616,250.3763 632.8663,246.9096 C 632.1582,244.7875 630.3042,242.654 627.3663,241.9721 C 625.3559,241.5054 622.8394,241.8666 620.6385,244.0185 C 606.2185,246.0964 602.3515,256.1658 604.585,262.4096 L 605.46,264.8471 L 606.8038,262.6283 C 609.6625,257.9658 614.0575,256.5779 617.3789,256.3285 C 617.7173,258.2566 618.8392,259.831 620.3663,260.6908 C 622.2076,261.7276 624.6552,261.6814 626.6788,260.2533 C 627.4879,259.6823 628.1594,258.8247 628.8663,258.0033 C 629.2182,258.385 629.7603,258.8891 629.8038,259.1283 C 630.0196,260.3152 630.3066,261.1911 630.96,261.8783 C 631.6135,262.5655 632.4594,262.7834 633.2725,262.9096 C 634.5659,263.11 636.0439,263.2353 637.46,263.4408 C 636.0513,264.1558 634.6331,264.6686 633.1163,264.8783 C 630.6895,265.2138 627.8832,265.0749 624.46,265.0658 C 622.8474,264.1578 620.9243,263.0502 618.7413,262.7533 C 616.4299,262.4389 613.8266,263.3221 612.0225,266.1596 L 611.5574,266.8831 C 607.6033,269.0206 604.5109,272.3782 602.9288,276.0346 C 601.1363,280.1773 601.3985,284.9155 604.8975,288.0658 L 606.4913,289.5033 L 606.9288,287.4096 C 607.7278,283.5721 609.9365,280.6204 613.4548,279.2205 C 614.6575,282.2083 617.0275,283.2627 618.4913,283.3783 C 619.7119,283.4747 620.8401,283.2015 621.7725,282.5971 C 622.705,281.9926 623.4627,281.1655 624.3975,280.0971 C 625.4734,278.8674 626.166,278.1606 626.7725,277.7846 C 627.3791,277.4085 627.9558,277.2455 629.1163,277.1908 C 629.3705,277.1788 629.9908,277.2186 630.3038,277.2221 C 628.7641,277.9128 627.5842,278.934 626.9913,280.2221 C 626.291,281.7436 626.1822,283.4249 626.2634,285.0221 C 624.9616,289.6659 625.205,294.3908 626.8663,298.1596 C 628.6755,302.2638 632.3584,305.2187 637.2725,305.2533 L 639.585,305.2846 L 638.3038,303.3471 C 636.6896,300.9067 636.0774,298.5735 636.4619,295.7612 C 637.9563,296.1109 639.2978,296.2088 640.5225,296.0033 C 642.0636,295.7447 643.4043,294.9412 644.2725,293.7221 C 645.9082,291.4256 645.9446,287.9173 645.1163,283.4408 C 647.5227,281.6227 648.587,279.8205 649.21,278.5033 C 649.8692,277.1094 649.8812,277.255 651.2725,276.4096 C 653.7252,274.919 654.7805,273.6454 655.3038,272.4721 C 655.7569,271.4559 655.6977,271.0724 656.6788,270.2221 L 657.7725,269.2846 C 661.2032,270.8939 664.0981,271.4749 667.8038,271.3158 C 667.4006,274.3931 667.9436,277.7624 671.335,278.8783 C 673.6434,279.6379 676.2356,278.8435 678.1163,277.0346 C 678.7736,277.8176 679.2672,278.7466 679.4288,280.0971 C 679.6467,281.9176 679.3467,284.3015 678.3975,287.0971 L 677.6475,289.3158 L 679.8975,288.6908 C 686.1454,286.9134 689.2552,281.4771 689.1475,276.0033 C 689.0847,272.8082 688.0886,269.3482 686.5225,265.6908 C 685.0416,263.6175 683.1916,261.7459 680.5225,261.4096 C 678.465,261.1502 676.437,261.5658 673.5225,261.5658 C 672.5986,261.5658 668.9012,261.0803 667.4288,260.0971 C 667.2312,259.9652 666.5101,259.4079 666.71,259.0971 C 666.8917,258.8146 668.309,257.8694 671.7725,257.5033 C 673.2022,257.3522 673.9511,257.2259 674.71,256.9721 C 675.469,256.7182 676.1935,256.3817 677.96,255.8158 C 690.2038,251.894 709.3514,243.4381 721.4454,237.1296 C 723.4247,240.6418 726.9755,243.0182 732.96,244.3783 L 734.3975,244.6908 L 734.4913,243.2533 C 735.0954,232.2413 742.572,225.9392 750.4288,219.3783 C 754.2477,216.1894 758.0063,213.1102 760.6788,209.6908 C 761.4485,208.706 762.126,207.6824 762.6792,206.6206 C 762.8693,209.3236 762.8794,212.0321 762.5538,214.7846 C 762.0214,219.2827 760.9238,224.1197 759.3975,227.7846 C 758.3217,230.3671 756.6861,232.9022 754.8975,234.6596 C 753.109,236.4169 751.2233,237.3121 749.6163,237.1283 C 747.6268,236.9008 746.206,235.9929 745.4913,232.9096 L 745.0225,230.8783 C 743.1616,232.5159 741.3768,234 740.4288,236.4096 C 739.719,238.2135 739.648,240.517 741.0538,242.6283 C 745.3176,249.0314 754.7013,250.7132 762.3976,248.0033 C 763.1982,247.7213 763.8643,247.5922 764.3038,247.5971 C 764.7433,247.6019 764.9038,247.7295 764.9601,247.7846 C 765.0163,247.8396 765.0968,247.9375 765.0851,248.3783 C 765.0733,248.8191 764.9205,249.5158 764.5226,250.4408 C 763.0789,253.7964 759.2369,259.0421 754.3663,264.0971 C 749.4957,269.152 743.5573,274.0984 737.96,277.1596 C 734.0912,279.2754 729.8521,281.4935 725.8038,280.8783 C 723.8471,280.5808 721.7184,279.6686 720.4288,278.4096 C 719.1392,277.1505 718.5529,275.7913 719.335,273.7533 C 719.8648,272.373 720.8187,271.7098 722.1163,271.3471 C 724.9735,270.5483 726.6812,271.4193 729.1399,272.5868 C 727.9163,269.3346 727.0886,266.7567 724.1397,264.4958 C 721.8698,262.7554 718.9496,261.8342 716.1475,261.9721 C 710.1639,262.2667 705.648,267.4195 705.6475,273.4721 C 705.647,280.4744 708.432,285.7198 712.96,288.7221 C 717.4881,291.7243 723.6112,292.4845 730.1788,291.0346 C 733.0996,290.3897 735.1688,289.2628 737.1163,288.0971 C 733.4474,290.6687 728.7108,292.9407 723.3663,293.6283 C 716.4414,294.5192 708.5484,293.6506 702.7413,293.0658 C 693.5363,292.139 684.5999,291.6109 675.71,296.4096 C 668.8846,300.094 664.0398,306.5338 663.8975,315.6283 C 663.8108,321.1763 666.0517,325.5663 669.0225,328.5971 C 671.9934,331.6278 675.6374,333.3442 678.71,333.7221 C 681.8309,334.1059 684.5461,332.6336 686.6475,330.6596 C 690.3638,327.3672 692.1469,322.9781 694.1769,318.5596 C 690.8053,321.2485 687.0337,324.817 682.3663,324.5033 C 678.279,324.2287 675.7476,320.6016 676.2413,316.6596 C 676.4739,314.8024 677.3796,313.0318 679.0225,311.7846 C 680.6655,310.5373 683.1048,309.7582 686.585,310.0971 C 697.6504,311.1744 704.0818,312.3554 714.8975,308.1596 C 712.5882,310.81 710.2307,314.1486 708.71,318.1596 C 707.0974,322.4132 706.7621,326.8079 707.9913,330.6596 C 709.2205,334.5112 712.0467,337.7694 716.46,339.6596 C 718.8037,340.6632 721.5533,341.208 724.2413,340.9408 C 726.9293,340.6736 729.6107,339.5696 731.46,337.2846 C 732.9208,335.4798 732.7854,333.5475 732.71,331.3783 C 732.6544,329.7776 732.4303,327.987 732.21,325.8783 L 731.7725,321.6596 L 729.8663,325.4408 C 728.9821,327.2145 725.7398,330.4339 723.6475,328.5033 C 722.5907,327.5281 721.7043,325.6329 722.46,322.6283 C 723.4897,318.5347 726.9135,314.8524 731.0538,311.4721 C 735.1941,308.0917 739.9646,305.0336 743.46,301.9721 C 749.4491,296.7263 754.8102,289.2994 759.8975,280.9096 C 762.5075,276.6056 764.2816,271.7555 765.9601,267.9721 C 766.2733,267.2659 766.5873,266.4205 766.9288,265.9096 C 767.0995,265.6541 767.263,265.5032 767.3663,265.4408 C 767.4696,265.3784 767.4827,265.3813 767.6476,265.4096 C 767.8883,265.4508 767.9567,265.476 768.0226,265.5658 C 768.0884,265.6556 768.1449,265.8755 768.1476,266.2221 C 768.1776,270.1363 767.5596,274.0798 766.9913,278.0971 C 766.3486,282.6393 765.694,288.2559 765.0538,294.1283 C 764.5295,298.9377 762.9016,303.3513 761.1163,306.8158 C 759.331,310.2803 757.3445,312.8279 756.335,313.8158 C 754.1465,315.9578 752.0815,316.9935 750.335,316.7221 C 748.5886,316.4506 746.6147,314.8567 744.6788,310.5658 L 743.71,308.4096 L 742.4913,310.4096 C 738.6147,316.8278 739.4304,323.2985 742.71,326.5658 C 745.2312,329.0775 748.865,329.8215 752.5538,329.4721 C 755.384,329.204 758.2384,328.1997 760.9601,326.8783 C 759.4968,332.325 757.0658,342.1312 763.9601,349.0346 C 765.1049,350.1809 766.1861,351.2056 767.3488,352.3325 C 770.2397,355.1341 773.7829,358.7234 776.1051,361.9996 L 776.6788,-18.5284 C 776.7238,-28.7688 774.781,-37.0442 772.0851,-44.1534 C 774.4592,-43.4945 776.6444,-43.5533 779.0538,-43.6221 C 775.9464,-48.3235 774.6204,-51.2499 774.2101,-56.9971 C 773.9564,-60.5502 773.8406,-64.5535 771.6788,-67.9346 C 774.0513,-68.356 776.0385,-69.5628 777.4601,-71.3096 C 780.0678,-74.5141 780.4799,-78.4201 780.8663,-82.3409 C 777.3219,-80.5687 774.4122,-79.7415 770.3663,-79.5284 C 766.4598,-79.3224 760.8056,-82.2148 754.71,-85.4034 C 746.0854,-89.915 735.5051,-95.1022 726.96,-95.7784 C 721.9523,-96.1746 716.4545,-95.7479 711.7725,-93.7471 C 707.3205,-91.8445 703.6188,-88.4001 702.14,-83.0316 C 694.5276,-83.942 686.1033,-82.365 680.335,-76.9971 L 680.335,-76.9967 z "
     style="fill:#0a0b0c" /><path
     id="path21_0"
     class="fil4"
     d="M 624.487,-21.976 C 623.7902,-21.5683 623.1327,-21.1033 622.5194,-20.5865 C 603.8163,-48.5258 596.2004,-67.5346 596.8352,-82.9342 C 602.5799,-62.664 610.1526,-43.6466 624.487,-21.976 L 624.487,-21.976 z M 618.2008,-14.4761 C 616.5576,-10.3386 616.4764,-5.4114 618.2415,-0.7467 C 613.3204,-0.2086 609.5372,1.5377 606.9345,3.9767 C 590.5967,-10.4329 578.9115,-22.9845 572.8352,-33.8717 C 568.7504,-41.1907 567.3887,-47.7291 568.6165,-53.4342 C 569.7445,-58.6755 573.1867,-63.3041 578.9602,-67.3092 C 580.2341,-60.0306 583.663,-52.2151 589.304,-44.5592 C 596.5291,-34.7532 606.996,-24.4887 618.2008,-14.4761 L 618.2008,-14.4761 z M 603.0827,10.4379 C 602.8825,11.235 602.758,12.0512 602.7102,12.8783 C 602.7054,12.9615 602.7016,13.0446 602.6983,13.1279 C 590.0954,9.4565 581.1931,5.3749 574.9602,0.8783 C 570.3669,-2.4355 567.2693,-5.9807 565.1165,-9.778 C 575.3433,-1.1964 587.8398,6.3954 603.0827,10.4379 L 603.0827,10.4379 z M 604.9697,21.6389 C 606.9352,24.9446 610.1208,27.8606 614.3352,29.8158 C 610.4667,34.1057 608.5844,38.8977 608.408,43.4495 C 597.1654,43.4538 586.7369,40.9985 578.7102,36.0345 C 570.9938,31.2624 565.6297,24.1155 563.5852,14.5345 C 575.0444,18.8534 588.6487,22.0407 604.9697,21.6389 L 604.9697,21.6389 z M 631.1433,-23.9358 C 623.7912,-40.3932 614.6543,-62.7616 614.304,-82.9342 C 614.1669,-90.8289 615.81,-98.2586 619.7415,-103.6217 C 623.4307,-108.6542 629.2026,-111.8639 637.8352,-112.1842 C 635.1452,-102.9844 632.6122,-90.2037 635.9915,-73.1217 C 637.886,-63.5451 640.9933,-54.5015 644.9238,-45.8495 C 640.6652,-43.5943 637.5143,-40.5074 635.8665,-36.6217 C 634.2916,-32.9079 634.1962,-28.5131 635.5227,-23.5905 C 634.0079,-23.9019 632.5422,-24.0098 631.1433,-23.9358 L 631.1433,-23.9358 z M 645.9606,-43.615 C 650.7131,-33.59 656.5433,-24.083 662.8352,-14.8717 C 667.5495,-7.9698 672.1004,-1.2437 675.0227,5.722 C 676.9084,10.2169 678.9561,17.1807 678.054,22.1595 C 677.8308,23.3911 677.4923,24.4429 676.9915,25.0658 C 676.4907,25.6887 675.8914,26.0658 674.429,26.0658 C 673.4841,26.0658 672.3724,25.5129 670.9602,24.5658 C 669.5481,23.6186 667.8678,22.3307 665.7727,21.2845 C 661.3248,19.0633 655.604,19.0155 651.7415,22.8158 C 646.3732,28.098 645.1339,36.1065 649.7102,42.3783 C 653.4494,47.5028 659.5321,50.5079 665.0852,50.9095 C 670.103,51.2724 675.5551,49.2993 680.5227,44.6283 C 685.2307,40.1995 688.6855,38.4648 695.0227,37.972 C 697.7853,37.7573 699.8869,38.2799 702.3665,39.2533 C 704.8461,40.2267 707.6606,41.6733 711.5227,43.1283 C 714.0389,44.0763 716.3738,44.1625 718.5227,43.5033 C 719.8857,43.0852 721.1577,42.393 722.3898,41.4802 C 723.782,60.0482 732.9288,83.279 737.6165,95.472 C 739.5984,100.6272 741.3605,106.2135 743.3423,112.3373 C 738.9072,108.673 734.7664,104.73 733.3977,103.1595 L 732.3665,101.9408 L 731.4602,103.2845 C 726.2358,110.9774 718.1167,114.5171 710.8977,113.5033 C 703.6788,112.4895 697.2141,107.0533 695.0852,95.9095 L 694.6165,93.4095 L 692.929,95.3158 C 688.4775,100.3959 680.5821,103.4442 673.6165,102.3158 C 666.6509,101.1874 660.5021,96.1882 659.0227,84.5033 L 658.8352,83.097 L 657.4602,83.472 C 647.1998,86.2815 639.958,84.5117 635.7102,80.2845 C 631.4625,76.0574 630.0221,69.1162 632.054,60.9408 L 632.4915,59.1908 L 630.7102,59.4408 C 621.8064,60.6101 615.213,56.5655 612.3665,50.6908 C 609.52,44.8161 610.3801,37.0453 617.1477,30.3783 L 618.5227,29.0033 L 616.7102,28.347 C 608.7892,25.3567 604.846,18.763 605.179,13.0033 C 605.512,7.2436 609.8809,2.061 619.929,1.5345 L 621.7727,1.4408 L 620.9602,-0.2155 C 618.2345,-5.8725 619.0489,-12.1862 622.0852,-16.4655 C 625.1216,-20.7447 630.2153,-23.0835 636.804,-20.903 L 639.179,-20.1217 L 638.3665,-22.4655 C 636.5672,-27.7716 636.6458,-32.1112 638.1477,-35.653 C 639.5254,-38.9015 642.1449,-41.571 645.9606,-43.615 L 645.9606,-43.615 z M 742.9846,115.218 C 738.8104,145.2628 729.9326,165.9642 713.6477,175.7845 C 719.0984,157.7843 720.6953,137.5597 718.8547,115.3618 C 723.9523,113.9576 728.8088,110.6614 732.5227,105.7532 C 734.6227,107.9859 738.6289,111.7249 742.9846,115.218 L 742.9846,115.218 z M 609.7686,50.9856 C 609.8784,51.2441 609.9935,51.5004 610.116,51.7532 C 610.417,52.3745 610.7558,52.9761 611.1295,53.5561 C 602.4324,55.8417 594.0302,56.8743 586.866,56.5657 C 581.5231,56.3355 576.9496,55.3256 573.3972,53.6282 C 585.5567,54.4997 598.227,53.9754 609.7686,50.9856 z M 616.5115,58.8886 C 619.9964,61.1163 624.4228,62.3087 629.4285,61.9719 C 628.4556,66.884 628.6164,71.4985 629.9382,75.4104 C 612.5416,84.2526 598.7027,88.4228 588.5847,88.1907 C 579.0888,87.9729 573.0021,83.943 569.4285,76.1594 C 585.1963,76.8121 600.8991,69.4267 616.5115,58.8886 z M 633.1875,81.1724 C 633.4441,81.4687 633.7116,81.7564 633.991,82.0344 C 634.5512,82.5919 635.1543,83.1072 635.7979,83.5792 C 626.4797,92.2235 615.23,100.8191 603.7722,106.8469 C 594.2551,111.8539 584.6487,114.8822 575.8972,115.0032 C 601.1421,106.0872 620.8144,94.4626 633.1875,81.1724 z M 641.9427,86.4355 C 646.0851,87.5096 651.0996,87.4533 656.8347,86.0657 C 657.6453,91.012 659.3542,94.9126 661.6401,97.8567 C 647.9705,125.0006 633.8457,141.9217 619.5222,149.8782 C 605.8747,157.4592 592.029,157.0161 577.5535,149.5345 C 605.8781,140.0012 626.8087,117.9405 641.9427,86.4355 L 641.9427,86.4355 z M 668.957,103.5336 C 670.0978,104.0162 671.2788,104.3773 672.4835,104.6208 C 665.6838,121.3059 662.7101,130.3011 656.3035,142.0657 C 650.7688,152.2292 642.2068,162.0345 633.0222,169.5657 C 626.6914,174.7569 620.0872,178.7398 614.0222,181.1907 C 637.3856,164.8413 656.6833,137.8951 668.957,103.5336 L 668.957,103.5336 z M 678.9461,104.8944 C 684.2546,104.3315 689.3825,101.9206 693.1785,98.3782 C 694.6799,104.2743 697.4844,108.7056 701.0124,111.666 C 694.2325,150.7392 682.3067,179.9272 667.5535,198.3782 C 653.3961,216.0839 636.7764,223.8116 619.241,221.4407 C 638.145,203.0109 654.2297,182.2392 665.6785,151.8782 C 670.5141,139.0549 674.4462,123.5197 678.9461,104.8944 L 678.9461,104.8944 z M 707.7263,115.3188 C 708.6516,115.5987 709.5961,115.8063 710.5535,115.9407 C 710.9338,115.9941 711.3153,116.0358 711.698,116.0664 C 709.738,142.3768 706.514,164.4035 701.8972,180.4407 C 699.5596,188.5608 696.8499,195.1512 693.8347,199.9407 C 692.0011,202.8534 690.0525,205.0066 688.0222,206.5657 C 700.3935,187.0313 706.0136,157.2649 707.7263,115.3188 L 707.7263,115.3188 z M 613.7241,268.5368 C 614.7334,269.2735 615.1359,270.4321 615.1785,271.8473 C 615.2274,273.4714 614.6057,275.3216 613.7145,276.5428 C 609.5927,277.7936 606.7173,280.8306 605.2722,284.6598 C 603.9244,282.4745 604.0077,279.8127 605.2097,277.0348 C 606.6659,273.6695 609.7944,270.361 613.7241,268.5368 L 613.7241,268.5368 z M 620.2221,246.5989 C 620.4531,247.3838 620.6211,248.5357 620.4597,249.691 C 620.256,251.15 619.6107,252.6257 618.1317,253.8234 C 614.7536,253.9343 610.0574,255.2498 606.491,259.2535 C 606.2329,254.6255 609.4273,248.4011 620.2221,246.5989 L 620.2221,246.5989 z M 628.7509,283.023 C 628.8278,282.3648 628.9751,281.7632 629.2097,281.2535 C 629.6686,280.2565 630.3762,279.5268 631.9285,279.0973 C 633.5717,278.6426 635.4203,278.704 637.3347,277.0973 L 639.9285,274.9098 L 636.5222,274.9098 C 633.6475,274.9098 630.9572,274.6296 628.991,274.7223 C 627.6178,274.787 626.4714,275.0326 625.4597,275.6598 C 624.4481,276.2869 623.6309,277.2051 622.5222,278.4723 C 621.6139,279.5104 620.9647,280.1871 620.4285,280.5348 C 619.8922,280.8824 619.4946,280.9742 618.6785,280.9098 C 618.0521,280.8603 616.4777,280.4131 615.6472,277.8785 C 616.9103,276.1647 617.714,273.9734 617.6472,271.7535 C 617.5882,269.7886 616.762,267.7868 615.0847,266.5348 C 616.1419,265.4573 617.1675,265.0237 618.3972,265.191 C 620.0007,265.4091 621.9025,266.4367 623.5847,267.3785 L 623.866,267.5348 L 624.1785,267.5348 C 627.6771,267.5348 630.6112,267.7098 633.4597,267.316 C 636.3083,266.9222 639.0497,265.8979 641.8347,263.5973 L 644.491,261.4098 L 641.0535,261.4098 C 638.796,261.4098 636.1607,260.8617 633.6472,260.4723 C 632.9828,260.3692 632.8374,260.2611 632.741,260.1598 C 632.6446,260.0584 632.4247,259.67 632.241,258.6598 C 631.9825,257.238 630.9607,256.2665 629.6472,255.2535 L 628.616,254.441 L 627.8972,255.5035 C 627.0259,256.7531 626.2041,257.5738 625.241,258.2535 C 623.9259,259.1815 622.6372,259.1274 621.5847,258.5348 C 620.6106,257.9862 619.9415,256.8836 619.8347,255.4098 C 621.6145,253.8217 622.6387,251.8547 622.8972,250.0035 C 623.1254,248.3697 622.8821,246.992 622.491,245.816 C 624.076,244.2933 625.4251,244.0586 626.8035,244.3785 C 628.9878,244.8855 630.3072,246.6263 630.6472,247.9723 L 630.741,248.316 L 631.0222,248.566 C 635.2156,252.4641 642.3117,256.5244 652.0847,255.0035 L 652.4597,254.941 L 652.741,254.6598 C 656.0612,251.3462 659.9408,250.6517 661.5535,250.4723 C 663.6364,250.2404 665.2241,249.0937 666.5222,248.4723 C 678.2941,242.8369 698.4871,233.8123 708.7022,223.578 C 711.7138,224.0742 715.093,224.0026 718.6785,223.6285 C 719.0003,228.0288 719.3161,231.7639 720.4255,234.8709 C 708.487,241.1078 689.2215,249.6247 677.2097,253.4723 C 675.3764,254.0595 674.5366,254.4251 673.9285,254.6285 C 673.3204,254.8319 672.8824,254.9223 671.5222,255.066 C 667.7639,255.4633 665.6607,256.2085 664.6472,257.7848 C 663.5565,259.4812 664.5964,261.1555 666.0535,262.1285 C 668.5137,263.7714 672.0682,264.0347 673.5222,264.0348 C 676.6556,264.0347 678.7587,263.6644 680.2097,263.8473 C 681.4021,263.9975 682.2997,264.4081 683.5242,265.8508 C 680.9708,266.2724 679.1181,267.5738 678.0222,269.2223 C 676.7932,271.0711 676.4409,273.2257 676.6999,275.0869 C 675.4153,276.4542 673.4534,276.9749 672.116,276.5348 C 669.6423,275.7207 669.8929,272.4026 670.366,270.4098 L 670.7722,268.7535 L 669.0535,268.9098 C 664.2656,269.3627 661.561,268.4916 657.3347,266.3785 L 655.0535,268.3785 C 653.6706,269.5771 653.3339,270.7734 653.0222,271.4723 C 652.6787,272.2427 652.2033,272.9715 649.991,274.316 C 648.6069,275.157 647.7686,275.7967 646.991,277.441 C 646.3021,278.8976 645.7764,280.1701 643.1785,281.9098 L 642.491,282.3785 L 642.6472,283.191 C 643.5932,287.7917 643.2775,290.8734 642.2722,292.2848 C 641.7696,292.9904 641.1229,293.397 640.116,293.566 C 639.3117,293.701 638.274,293.6377 636.9995,293.3379 C 637.186,292.7119 637.4118,292.0607 637.6785,291.3785 L 637.866,290.9098 L 637.6785,290.4723 C 635.9575,286.0737 632.7678,283.5529 628.7509,283.023 L 628.7509,283.023 z M 628.741,285.5973 C 631.6841,286.0516 633.8178,287.6475 635.241,291.0348 C 633.6839,295.3085 633.6436,299.0324 635.1472,302.4723 C 632.3569,301.7993 630.3607,299.9124 629.1472,297.1598 C 627.7542,293.9997 627.5599,289.7663 628.741,285.5973 z M 684.8456,268.184 C 685.9656,271.0775 686.6333,273.735 686.6785,276.0348 C 686.7539,279.868 685.0039,283.3891 681.366,285.316 C 681.8203,283.3266 682.0926,281.4481 681.8972,279.816 C 681.6317,277.5972 680.6834,275.7107 679.1313,274.4371 C 679.0461,273.2152 679.3202,271.7475 680.0847,270.5973 C 680.9426,269.3068 682.3281,268.2866 684.8456,268.184 z M 753.3657,143.675 C 753.4505,144.0131 753.5341,144.3518 753.616,144.6907 C 757.1507,159.3275 759.2643,176.6569 760.5847,189.8782 C 760.8784,192.8195 761.3154,195.6807 761.7248,198.5054 L 761.5848,198.5345 C 762.3364,202.0622 761.1601,205.0644 758.741,208.1595 C 756.3219,211.2545 752.6593,214.3095 748.8347,217.5032 C 741.3191,223.7792 733.5003,230.4656 732.241,241.597 C 727.3847,240.2826 724.8792,238.4162 723.4285,235.6282 C 721.8448,232.5846 721.4479,228.1863 721.0222,222.2532 L 720.9285,220.972 L 719.616,221.1282 C 714.9699,221.7137 710.8132,221.6838 707.491,220.8157 C 704.9266,220.1456 702.8867,218.9934 701.366,217.2532 C 710.9173,216.4539 717.3896,211.125 721.7722,204.1595 C 726.5,196.6456 729.0405,187.2732 731.3035,179.2845 C 733.4314,171.7721 737.765,163.5771 744.5222,154.4095 C 747.0938,150.9206 750.0279,147.3525 753.3657,143.675 L 753.3657,143.675 z M 729.9314,-40.278 C 733.5387,-39.7812 737.1351,-39.1036 740.7097,-38.2781 L 742.5847,-37.8406 L 742.2097,-39.7156 C 739.9113,-50.6822 735.6901,-57.3112 731.1785,-61.4031 C 726.8778,-65.3037 722.4108,-66.8317 719.241,-67.9031 C 717.7288,-72.048 716.0473,-75.8251 712.9285,-78.6218 C 710.8357,-80.4984 708.1392,-81.8796 704.5852,-82.6313 C 705.8883,-87.1269 708.8697,-89.8424 712.741,-91.4968 C 716.8854,-93.2679 722.0472,-93.6832 726.7722,-93.3093 C 734.4646,-92.7006 745.0192,-87.6963 753.5847,-83.2156 C 759.6604,-80.0373 765.3615,-76.7889 770.491,-77.0593 C 772.3462,-77.1571 775.0187,-77.5259 777.7723,-78.4343 C 777.3292,-76.2272 776.6362,-74.2406 775.5223,-72.8718 C 772.5811,-69.2578 768.6774,-70.3359 764.7153,-70.787 C 770.8362,-66.5367 771.1949,-64.4914 771.741,-56.8406 C 771.9951,-53.2818 772.2499,-50.3722 774.6473,-46.0906 C 770.9998,-46.3426 769.2726,-48.3859 766.6184,-50.5746 L 768.866,-45.7468 C 771.9723,-38.3492 774.2585,-29.6324 774.2098,-18.5281 L 773.616,355.1279 C 770.5597,352.0471 767.9519,349.5293 765.7098,347.2842 C 758.9496,340.515 762.8579,329.785 763.991,324.9092 L 764.6785,322.0654 L 762.1473,323.5654 C 759.0817,325.423 755.5183,326.7296 752.3035,327.0342 C 749.0887,327.3387 746.3178,326.6664 744.4597,324.8154 C 742.5206,322.8836 741.691,318.6488 743.6785,313.8779 C 745.5144,317.0076 747.5978,318.792 749.9597,319.1592 C 752.866,319.6109 755.5995,317.9985 758.0535,315.5967 C 759.3964,314.2823 761.4091,311.6166 763.3035,307.9404 C 765.1979,304.2642 766.9248,299.6027 767.491,294.4092 C 768.1298,288.5492 768.7928,282.9338 769.4285,278.4404 C 769.9922,274.4561 770.6482,270.3808 770.616,266.1904 C 770.6104,265.4577 770.4359,264.7342 769.991,264.1279 C 769.5461,263.5216 768.8545,263.1035 768.0848,262.9717 C 767.3711,262.8494 766.6271,262.9875 766.0848,263.3154 C 765.5424,263.6433 765.1632,264.0895 764.866,264.5342 C 764.2717,265.4235 763.9528,266.3925 763.7098,266.9404 C 761.9793,270.8411 760.2113,275.6056 757.7722,279.6279 C 752.7478,287.9139 747.4979,295.1677 741.8347,300.1279 C 738.5749,302.9831 733.7858,306.0276 729.491,309.5342 C 725.1962,313.0407 721.3072,317.0496 720.0535,322.0342 C 719.1166,325.7588 720.2364,328.6964 721.991,330.3154 C 724.4756,332.6079 727.9131,331.2765 730.0222,329.2842 C 730.1655,330.8805 730.4285,332.5232 730.2097,334.1279 C 730.124,334.757 729.9741,335.1635 729.5222,335.7217 C 728.1501,337.4172 726.2168,338.2535 724.0222,338.4717 C 721.8277,338.6898 719.4064,338.2562 717.4285,337.4092 C 713.596,335.7678 711.3586,333.1175 710.3347,329.9092 C 709.3109,326.7008 709.5694,322.866 711.0222,319.0342 C 712.2984,315.6679 714.2601,312.6063 716.3069,310.2531 C 720.9491,304.916 727.6793,301.1013 733.525,296.6479 C 727.038,299.8593 720.5076,303.5132 713.7752,306.1777 C 703.3661,310.2973 698.0496,308.7229 686.8035,307.6279 C 682.8432,307.2423 679.7212,308.146 677.5222,309.8154 C 675.3233,311.4848 674.1106,313.8947 673.8035,316.3467 C 673.1339,321.6932 676.6391,326.5994 682.1785,326.9717 C 683.8606,327.0847 685.5279,326.8193 687.116,326.3467 C 685.2138,328.9149 682.5543,331.7185 679.0222,331.2842 C 676.6492,330.9923 673.3494,329.5069 670.7722,326.8779 C 668.1951,324.2489 666.2898,320.5325 666.366,315.6592 C 666.4952,307.4019 670.6753,301.9554 676.8972,298.5967 C 685.1168,294.1598 693.354,294.5829 702.491,295.5029 C 708.2753,296.0854 716.3228,297.0117 723.6785,296.0654 C 730.4953,295.1884 736.3591,292.0661 740.491,288.7217 C 741.5541,287.8611 742.4877,286.332 741.5417,285.0701 C 740.6511,283.8818 738.8942,284.1701 737.7722,284.8467 C 735.2041,286.3957 733.057,287.8752 729.6472,288.6279 C 723.5699,289.9696 718.163,289.2287 714.3347,286.6904 C 710.5065,284.1521 708.1155,279.8341 708.116,273.4717 C 708.1164,268.6383 711.6365,264.6687 716.2722,264.4404 C 719.3607,264.2884 722.7066,266.0099 724.4597,268.6279 C 723.4693,268.6075 722.4536,268.6938 721.4597,268.9717 C 719.6254,269.4844 717.8738,270.7092 717.0535,272.8467 C 715.9486,275.7255 716.914,278.4371 718.7097,280.1904 C 720.5055,281.9437 723.0191,282.9803 725.4285,283.3467 C 730.5658,284.1274 735.2787,281.431 739.1472,279.3154 C 745.0779,276.0719 751.1418,271.0103 756.1472,265.8154 C 761.1527,260.6205 765.0827,255.3677 766.7723,251.4404 C 767.2509,250.3278 767.5294,249.3475 767.5535,248.4404 C 767.5776,247.5333 767.3107,246.6212 766.6785,246.0029 C 766.0463,245.3846 765.1917,245.1373 764.3348,245.1279 C 763.4778,245.1185 762.5722,245.3114 761.5848,245.6592 C 754.8,248.0481 746.536,246.3888 743.116,241.2529 C 741.735,239.1789 742.4514,237.2265 743.8347,235.4717 C 745.0375,237.9586 747.0824,239.3391 749.3347,239.5967 C 752.0096,239.9026 754.523,238.4657 756.616,236.4092 C 758.709,234.3526 760.4866,231.5828 761.6785,228.7217 C 763.3358,224.7421 764.4364,219.7511 764.991,215.0654 C 766.0465,206.1422 763.858,197.9969 763.0223,189.6279 C 761.6971,176.359 759.5769,158.9767 755.991,144.1279 C 753.7247,134.7439 750.3991,125.7217 747.7097,117.6904 C 744.8448,109.1342 742.5738,101.5586 739.8972,94.5966 C 734.8124,81.3704 724.6927,55.1982 724.6785,36.9404 C 724.6727,29.3356 726.4364,23.7596 729.8192,17.8492 C 731.9722,14.0872 734.481,10.8119 737.1313,7.4088 C 731.8387,10.2874 726.8816,13.6883 720.5847,10.8466 C 731.5416,6.8396 735.7601,2.6934 738.0108,-7.08 C 735.6122,-4.4457 733.4112,-1.408 730.1463,0.2024 C 727.6407,1.4384 724.6978,2.0038 722.241,1.4404 C 714.4885,-0.3376 707.505,-8.2137 699.3347,-11.8721 C 697.9462,-12.494 696.6252,-12.642 695.3972,-12.5284 C 696.9862,-14.6191 699.072,-16.9047 701.8972,-16.9971 C 704.5552,-17.0842 707.8635,-15.1257 712.1785,-11.7159 C 714.7637,-9.6729 717.338,-7.4955 720.1785,-6.2471 C 723.019,-4.9987 726.2479,-4.7736 729.5222,-6.6534 C 734.7225,-9.6388 739.7442,-16.8329 738.3347,-24.7471 C 737.3937,-30.0315 733.8317,-35.7665 729.9314,-40.2783 L 729.9314,-40.278 z M 697.8035,-80.8093 C 704.5683,-80.7963 708.5631,-79.2667 711.3035,-76.8093 C 714.5271,-73.9186 715.8501,-69.8628 717.366,-65.9656 L 717.9285,-65.7781 C 721.1303,-64.6962 725.4199,-63.28 729.5222,-59.5593 C 733.3595,-56.079 736.9972,-50.4111 739.2722,-41.0593 C 726.6349,-43.7797 713.6899,-44.6915 700.8347,-42.2156 C 699.2675,-41.9138 697.398,-41.9984 696.5847,-42.4031 C 695.4163,-42.9845 694.2459,-43.6241 693.116,-44.2781 C 704.4342,-50.4554 721.1038,-47.5013 733.5633,-46.3004 C 727.7772,-50.6264 723.3037,-55.6393 716.9597,-57.0281 C 713.5896,-57.8991 710.507,-57.6466 707.366,-57.4343 C 706.138,-60.3223 704.1165,-62.3401 701.6785,-63.5281 C 698.9935,-64.8363 695.9045,-65.2846 692.8035,-65.4343 C 685.6992,-65.7773 681.0408,-63.7391 678.5847,-62.2781 C 677.0173,-67.6594 678.5597,-71.9621 682.0222,-75.1843 C 685.8124,-78.7114 691.8393,-80.8208 697.8035,-80.8093 z "
     style="fill:#facf00" /><path
     id="path89"
     class="fil3"
     d="M 721.474,166.309 C 726.5582,148.3171 729.7803,128.0943 730.5157,106.8997 L 732.2348,104.8026 L 733.4166,105.5121 C 731.5639,130.0427 728.3827,151.7041 721.474,166.309 L 721.474,166.309 z M 722.8792,-83.266 C 721.7875,-81.2964 721.3248,-78.7452 722.5575,-77.0926 C 723.7129,-75.5431 728.1951,-76.3371 729.4674,-77.1369 C 731.0312,-78.1199 730.8448,-79.4626 729.3776,-80.3381 C 728.3761,-80.9356 727.0057,-81.3349 726.3938,-81.9469 C 725.2363,-83.1045 725.8754,-84.644 726.2408,-85.3389 C 728.6221,-84.8583 730.6329,-83.0741 731.1991,-81.8043 C 732.2808,-79.3782 733.6537,-78.1712 736.8784,-77.7324 L 737.1448,-74.7972 C 735.0138,-75.3808 733.8495,-75.1555 733.0347,-74.8475 C 731.6773,-74.3344 730.4816,-73.8418 729.3091,-73.4825 C 726.8316,-72.7234 723.8153,-72.6182 721.4862,-73.9193 C 719.5103,-75.0229 718.1806,-76.4452 718.2715,-78.8031 C 718.3603,-81.1016 720.8916,-82.7125 722.8792,-83.266 L 722.8792,-83.266 L 722.8792,-83.266 z M 642.0256,212.381 C 654.5498,203.2258 664.672,187.8899 672.683,167.095 C 680.0826,147.8872 687.0025,125.2602 691.7473,98.9762 L 693.3516,97.7072 L 694.2661,100.5917 C 688.6755,129.1897 681.3785,153.9393 672.5424,174.0883 C 664.5692,192.2696 654.5775,206.0377 642.0256,212.381 L 642.0256,212.381 z M 602.8836,149.8654 C 621.8258,140.8911 639.1627,119.8035 655.9402,85.4112 L 657.2195,85.4849 L 657.895,87.3018 C 641.0143,121.0204 623.1457,144.2699 602.8836,149.8654 L 602.8836,149.8654 z M 583.393,80.855 C 602.9044,77.6226 618.4698,70.8086 630.4426,61.68 L 630.1434,65.8398 C 616.4359,74.2089 601.2741,80.3606 583.393,80.855 z M 571.9348,23.285 C 588.9661,28.7651 601.9383,30.5222 613.7446,28.9862 L 615.0798,29.6108 L 614.1502,31.562 C 598.4572,32.8907 584.3339,30.2615 571.9348,23.285 L 571.9348,23.285 z M 577.5552,-53.2946 C 583.3968,-35.3528 597.0936,-18.8971 617.9426,-3.7942 L 618.5414,-0.7243 C 595.7982,-16.7464 580.2434,-33.8439 577.5552,-53.2946 L 577.5552,-53.2946 L 577.5552,-53.2946 z M 628.6302,-98.8352 C 621.4946,-83.1476 624.3441,-61.9363 636.2843,-35.6959 L 637.7418,-38.2688 C 628.2672,-60.1131 623.8982,-80.6444 628.6302,-98.8352 z "
     style="fill:#0a0b0c" /><path
     id="path91"
     class="fil3"
     d="M 782.96,113.191 L 782.96,128.1285 L 784.1787,128.1285 C 790.3763,128.1285 795.4287,133.1497 795.4287,139.3473 C 795.4287,145.5448 790.3763,150.5973 784.1787,150.5973 L 782.96,150.5973 L 782.96,165.5348 L 784.1787,165.5348 C 785.2971,165.5348 786.3995,165.4636 787.4818,165.3257 L 843.263,248.0336 C 825.6913,257.345 805.6477,262.6285 784.3975,262.6285 L 783.1787,262.6285 L 783.1787,283.3473 L 784.3975,283.3473 C 788.2808,283.3473 792.1294,283.1954 795.9371,282.895 L 804.0787,329.0406 C 797.6168,329.7001 791.0606,330.0348 784.4287,330.0348 L 783.21,330.0348 L 783.21,350.3473 L 784.4287,350.3473 C 901.1887,350.3473 996.4287,254.9721 996.4287,138.0343 C 996.4287,21.0963 901.1881,-74.3097 784.4287,-74.3097 L 783.21,-74.3097 L 783.21,-53.966 L 784.4287,-53.966 C 791.1132,-53.966 797.7195,-53.6223 804.232,-52.9547 L 796.0964,-6.8434 C 792.2356,-7.149 788.3351,-7.3097 784.3975,-7.3097 L 783.1787,-7.3097 L 783.1787,13.409 L 784.3975,13.409 C 806.2195,13.409 826.7676,18.987 844.6774,28.7725 L 787.5685,113.4101 C 786.4582,113.2655 785.3271,113.1903 784.1787,113.1903 L 782.96,113.1903 L 782.96,113.191 z "
     style="fill:#0a0b0c" /><path
     id="path35_1"
     class="fil5"
     d="M 790.147,164.844 C 796.3932,163.3748 801.7939,159.6548 805.4385,154.5946 L 860.8416,236.7586 C 855.9787,240.4774 850.839,243.8558 845.4536,246.8483 L 790.147,164.844 z M 808.3452,149.4099 C 809.6464,146.3086 810.3665,142.9085 810.3665,139.3474 C 810.3665,136.4321 809.8841,133.6256 808.9953,131.0036 L 909.7613,131.0036 C 909.8929,133.3313 909.9606,135.6755 909.9606,138.0349 C 909.9606,141.8696 909.7771,145.6626 909.4303,149.4099 L 808.3453,149.4099 L 808.3452,149.4099 z M 805.4953,124.188 C 801.8692,119.1222 796.4828,115.3932 790.2464,113.9042 L 846.8296,29.9703 C 852.1814,33.0317 857.2841,36.4759 862.1047,40.2602 L 805.4953,124.188 L 805.4953,124.188 z M 798.4132,282.676 C 800.5836,282.4681 802.7407,282.2138 804.8833,281.9131 L 812.9911,327.9162 C 810.8521,328.2354 808.6989,328.5093 806.5386,328.7594 L 798.4132,282.676 L 798.4132,282.676 z M 841.1399,271.9577 C 843.1611,271.1089 845.1573,270.2126 847.1314,269.2774 L 871.2204,309.3763 C 869.2777,310.3588 867.3136,311.3041 865.3346,312.2227 L 841.1399,271.9577 L 841.1399,271.9577 z M 883.3291,244.9828 C 884.9301,243.5222 886.5016,242.0301 888.0361,240.5012 L 920.618,273.6469 C 919.0792,275.1815 917.5063,276.6816 915.9159,278.1632 L 883.3291,244.9828 L 883.3291,244.9828 z M 909.0296,214.1207 C 910.1826,212.2687 911.2937,210.3889 912.3641,208.4834 L 954.4951,228.1228 C 953.4656,230.0421 952.4112,231.9463 951.3188,233.826 L 909.0296,214.1207 z M 927.8721,166.9893 C 928.3074,164.8674 928.6938,162.7283 929.0342,160.5743 L 974.7834,167.8431 C 974.4447,169.9927 974.0606,172.1273 973.6524,174.2536 L 927.8721,166.9893 L 927.8721,166.9893 z M 929.752,120.6787 C 929.4885,118.5094 929.1781,116.3543 928.8195,114.2147 L 974.5742,106.9747 C 974.9255,109.1094 975.2508,111.2525 975.5312,113.4097 L 929.752,120.6787 L 929.752,120.6787 z M 914.2201,70.9865 C 913.2024,69.0557 912.1453,67.1485 911.0439,65.2694 L 953.2198,45.6052 C 954.2715,47.502 955.2948,49.4161 956.2833,51.3511 L 914.2201,70.9865 L 914.2201,70.9865 z M 886.3192,33.8792 C 884.7543,32.3697 883.1559,30.8945 881.5248,29.4548 L 914.149,-3.7329 C 915.7524,-2.2749 917.3241,-0.783 918.8774,0.7273 L 886.3192,33.8792 L 886.3192,33.8792 z M 847.422,6.9021 C 845.4536,5.9643 843.4624,5.0671 841.4469,4.2155 L 865.6229,-36.0187 C 867.5974,-35.0992 869.5575,-34.1542 871.4952,-33.1705 L 847.422,6.9021 z M 805.0412,-5.8519 C 802.8971,-6.1547 800.7396,-6.4145 798.5672,-6.6234 L 806.6918,-52.6722 C 808.8525,-52.4226 811.0049,-52.1457 813.1436,-51.8251 L 805.0412,-5.8519 L 805.0412,-5.8519 z M 785.679,-71.8087 C 900.519,-71.1271 993.96,22.858 993.96,138.0353 C 993.9599,253.2123 900.5191,347.1663 785.679,347.8483 L 785.679,332.4733 C 892.575,331.7965 979.585,244.7233 979.585,138.0353 C 979.585,31.3473 892.5744,-55.7257 785.679,-56.4027 L 785.679,-71.8089 L 785.679,-71.8087 z M 785.6478,-4.7775 C 864.36,-4.0999 928.3358,59.7666 928.3358,138.0355 C 928.3358,216.3037 864.3608,280.1395 785.6478,280.8165 L 785.6478,265.0353 C 855.5678,264.358 912.4288,207.6055 912.4288,138.0353 C 912.4288,68.4646 855.568,11.6813 785.6478,11.0043 L 785.6478,-4.777 L 785.6478,-4.7775 z M 785.429,115.7855 C 797.9065,116.45 807.8978,126.7087 807.8978,139.3481 C 807.8978,151.9874 797.9065,162.2774 785.429,162.9418 L 785.429,152.9418 C 792.3857,152.3023 797.8978,146.4647 797.8978,139.3481 C 797.8978,132.2314 792.3857,126.4251 785.429,125.7856 L 785.429,115.7855 L 785.429,115.7855 z "
     style="fill:#ffffff" /><path
     id="path35_2"
     class="fil1"
     d="M 808.015,128.535 C 807.6908,127.8267 807.3357,127.1352 806.9517,126.4621 L 864.047,41.814 C 889.7393,62.812 906.9295,93.714 909.5955,128.535 L 808.0145,128.535 L 808.015,128.535 z M 889.7721,238.737 C 896.4614,231.8444 902.4797,224.3059 907.7078,216.2188 L 950.0483,235.9639 C 942.2383,249.0148 932.9186,261.0695 922.3357,271.8943 L 889.7721,238.737 L 889.7721,238.737 z M 849.3348,268.2071 C 861.008,262.436 871.8059,255.1668 881.4666,246.649 L 914.1009,279.8475 C 901.8748,290.9606 888.2088,300.5224 873.4298,308.2369 L 849.3348,268.2071 z M 807.3348,281.5532 C 818.2717,279.8305 828.8136,276.9022 838.8139,272.9037 L 863.0664,313.2651 C 848.0969,319.9736 832.1194,324.8196 815.4377,327.5288 L 807.3348,281.5532 L 807.3348,281.5532 z M 806.8967,152.3382 C 806.9842,152.1862 807.0698,152.033 807.1543,151.8791 L 909.1793,151.8791 C 905.4094,185.4694 888.0909,215.0919 862.8012,235.2306 L 806.8971,152.3382 L 806.8967,152.3382 z M 839.1236,3.2652 C 829.078,-0.7777 818.4866,-3.7452 807.4919,-5.488 L 815.5895,-51.4342 C 832.3302,-48.7026 848.36,-43.8188 863.3732,-37.0617 L 839.1236,3.2652 L 839.1236,3.2652 z M 879.6721,27.8398 C 870.5618,20.0639 860.4826,13.3804 849.6446,7.9908 L 873.7012,-32.0246 C 887.658,-24.7119 900.6105,-15.7414 912.2995,-5.3812 L 879.6721,27.8398 L 879.6721,27.8398 z M 909.7694,63.1328 C 903.658,53.103 896.3634,43.8573 888.0754,35.5926 L 920.6495,2.4548 C 932.8451,14.6186 943.4101,28.4034 952.0037,43.4413 L 909.7694,63.1328 L 909.7694,63.1328 z M 928.397,111.7846 C 925.8743,98.17 921.4314,85.2081 915.3558,73.1881 L 957.3965,53.577 C 965.2545,69.4647 970.9717,86.5782 974.1682,104.5419 L 928.397,111.7846 L 928.397,111.7846 z M 929.3922,158.1338 C 930.3155,151.5609 930.8043,144.8533 930.8043,138.0349 C 930.8043,133.0043 930.5467,128.031 930.0362,123.1304 L 975.8201,115.8607 C 976.6694,123.1386 977.1168,130.536 977.1168,138.0349 C 977.1168,147.3249 976.4358,156.46 975.1444,165.4032 L 929.3922,158.1338 L 929.3922,158.1338 z M 913.5622,206.3113 C 919.7543,194.8329 924.4371,182.443 927.3475,169.4029 L 973.1832,176.6807 C 969.5941,194.0664 963.6285,210.6037 955.6502,225.9464 L 913.5622,206.3113 L 913.5622,206.3113 z "
     style="fill:#0082c9" /></g>
</svg>